<?xml version="1.0" encoding="UTF-8"?> <svg xmlns="http://www.w3.org/2000/svg" viewBox="0 0 33 45.93"> <defs> <style>.cls-1{fill:#666;}</style> </defs> <title>10 мин</title> <g id="Слой_2" data-name="Слой 2"> <g id="Слой_1-2" data-name="Слой 1"> <path class="cls-1" d="M16.5,33A16.5,16.5,0,1,1,33,16.5,16.52,16.52,0,0,1,16.5,33Zm0-31A14.5,14.5,0,1,0,31,16.5,14.51,14.51,0,0,0,16.5,2Z"></path> <path class="cls-1" d="M12.82,22.91H11V12.09l-2.5,2.2v-2L11,10.09h1.84Z"></path> <path class="cls-1" d="M24.52,19.34A3.5,3.5,0,0,1,23.46,22a4,4,0,0,1-5.28,0,3.5,3.5,0,0,1-1.06-2.68V13.66A3.5,3.5,0,0,1,18.18,11a4,4,0,0,1,5.28,0,3.5,3.5,0,0,1,1.06,2.68Zm-1.84-.05V13.71a2.24,2.24,0,0,0-.5-1.51,1.88,1.88,0,0,0-2.72,0,2.24,2.24,0,0,0-.5,1.51v5.58a2.24,2.24,0,0,0,.5,1.51,1.88,1.88,0,0,0,2.72,0A2.24,2.24,0,0,0,22.68,19.29Z"></path> <path class="cls-1" d="M12.61,45.93H11.39V42L10,44.81H9.22L7.79,42v3.9H6.56V39.84H7.78L9.6,43.47l1.81-3.63h1.2Z"></path> <path class="cls-1" d="M19.62,45.93H18.4V41.74l-2.61,4.19H14.57V39.84h1.22V44l2.61-4.13h1.22Z"></path> <path class="cls-1" d="M26.44,45.93H25.21v-2.6H22.79v2.6H21.56V39.84h1.23v2.43h2.42V39.84h1.23Z"></path> </g> </g> </svg> 