<svg width="33" height="48" viewBox="0 0 33 48" fill="none" xmlns="http://www.w3.org/2000/svg">
<g clip-path="url(#clip0_21_2)">
<path d="M16.5 33C13.2366 33 10.0465 32.0323 7.3331 30.2193C4.61969 28.4062 2.50484 25.8293 1.256 22.8143C0.00714922 19.7993 -0.319606 16.4817 0.31705 13.281C0.953706 10.0803 2.52518 7.14031 4.83275 4.83275C7.14031 2.52518 10.0803 0.953706 13.281 0.31705C16.4817 -0.319606 19.7993 0.00714922 22.8143 1.256C25.8293 2.50484 28.4062 4.61969 30.2193 7.3331C32.0323 10.0465 33 13.2366 33 16.5C32.9947 20.8745 31.2546 25.0682 28.1614 28.1614C25.0682 31.2546 20.8745 32.9947 16.5 33ZM16.5 2.00001C13.6322 2.00001 10.8288 2.85042 8.44424 4.4437C6.05973 6.03698 4.20122 8.30157 3.10375 10.9511C2.00628 13.6006 1.71914 16.5161 2.27862 19.3288C2.83811 22.1415 4.2191 24.7252 6.24696 26.7531C8.27482 28.7809 10.8585 30.1619 13.6712 30.7214C16.4839 31.2809 19.3994 30.9937 22.0489 29.8963C24.6984 28.7988 26.963 26.9403 28.5563 24.5558C30.1496 22.1713 31 19.3678 31 16.5C30.9974 12.6552 29.4688 8.96859 26.7501 6.24988C24.0314 3.53118 20.3448 2.00266 16.5 2.00001Z" fill="#666666"/>
<path d="M18.34 23.82H16.5V12.96L14 15.16V13.16L16.5 11H18.34V23.82Z" fill="#666666"/>
<path d="M5.09 39.87H9.19V44.87H10V47.49H8.86V46H4.91V47.56H3.74V44.89H4.39C4.62216 44.4333 4.79682 43.9496 4.91 43.45C5.04368 42.792 5.10405 42.1213 5.09 41.45V39.87ZM6.25 40.94V41.94C6.27984 42.9695 6.08534 43.9932 5.68 44.94H8V40.94H6.25Z" fill="#666666"/>
<path d="M16 43.27H12.07C12.047 43.7214 12.1892 44.1658 12.47 44.52C12.6172 44.6745 12.7964 44.7948 12.9951 44.8726C13.1938 44.9503 13.4071 44.9836 13.62 44.97C13.8998 44.9769 14.1783 44.9294 14.44 44.83C14.6839 44.7057 14.9066 44.5437 15.1 44.35L15.88 45.08C15.5936 45.3793 15.2546 45.6233 14.88 45.8C14.472 45.9552 14.0359 46.0233 13.6 46C13.2331 46.0182 12.8663 45.961 12.5224 45.832C12.1784 45.703 11.8645 45.505 11.6 45.25C11.0514 44.588 10.7855 43.7366 10.86 42.88C10.8088 42.0571 11.0575 41.2436 11.56 40.59C11.7896 40.3184 12.0785 40.1031 12.4045 39.961C12.7304 39.8188 13.0847 39.7534 13.44 39.77C13.7964 39.7524 14.1522 39.8151 14.4811 39.9536C14.81 40.0921 15.1035 40.3027 15.34 40.57C15.8166 41.1928 16.0511 41.9674 16 42.75V43.27ZM14.79 42.41C14.7802 42.129 14.7227 41.8517 14.62 41.59C14.5273 41.3511 14.3611 41.1479 14.1455 41.0095C13.9298 40.8711 13.6758 40.8048 13.42 40.82C13.1626 40.8026 12.9063 40.8679 12.6886 41.0064C12.4709 41.1449 12.3032 41.3494 12.21 41.59C12.0995 41.849 12.045 42.1285 12.05 42.41H14.79Z" fill="#666666"/>
<path d="M22.51 46H21.29V43.36H18.86V46H17.64V39.87H18.86V42.29H21.29V39.87H22.51V46Z" fill="#666666"/>
<path d="M28.71 42.68C28.8926 42.8592 29.0358 43.0744 29.1305 43.312C29.2252 43.5496 29.2693 43.8044 29.26 44.06C29.2691 44.3141 29.2249 44.5673 29.1301 44.8033C29.0354 45.0392 28.8923 45.2527 28.71 45.43C28.323 45.7825 27.8131 45.9692 27.29 45.95H24.46V39.87H25.68V42.16H27.29C27.8131 42.1408 28.323 42.3275 28.71 42.68ZM27.79 44.68C27.9503 44.4975 28.0387 44.2629 28.0387 44.02C28.0387 43.7771 27.9503 43.5425 27.79 43.36C27.5919 43.1946 27.3375 43.1122 27.08 43.13H25.68V45H27.08C27.3444 45.0042 27.5997 44.9035 27.79 44.72V44.68Z" fill="#666666"/>
</g>
<defs>
<clipPath id="clip0_21_2">
<rect width="33" height="47.51" fill="white"/>
</clipPath>
</defs>
</svg>
