<?xml version="1.0" encoding="UTF-8"?> <svg xmlns="http://www.w3.org/2000/svg" viewBox="0 0 33 45.4"> <defs> <style>.cls-1{fill:#666;}</style> </defs> <title>5 мин</title> <g id="Слой_2" data-name="Слой 2"> <g id="Слой_1-2" data-name="Слой 1"> <path class="cls-1" d="M16.5,33A16.5,16.5,0,1,1,33,16.5,16.52,16.52,0,0,1,16.5,33Zm0-31A14.5,14.5,0,1,0,31,16.5,14.51,14.51,0,0,0,16.5,2Z"></path> <path class="cls-1" d="M20.24,18.56a7.73,7.73,0,0,1-.21,2A3.2,3.2,0,0,1,19.16,22a3.61,3.61,0,0,1-2.7,1,3.69,3.69,0,0,1-2.73-1,3.69,3.69,0,0,1-1-2.45h1.83a1.76,1.76,0,0,0,1.87,1.78,1.8,1.8,0,0,0,1.34-.5,3.22,3.22,0,0,0,.61-2.25c0-1.79-.63-2.68-1.87-2.68A1.67,1.67,0,0,0,14.72,17H13V10H20v1.64H14.7v3.38a2.82,2.82,0,0,1,2.12-.74,3.13,3.13,0,0,1,2.31.83A4.67,4.67,0,0,1,20.24,18.56Z"></path> <path class="cls-1" d="M12.61,45.4H11.39V41.49L10,44.28H9.22L7.79,41.49V45.4H6.56V39.31H7.78L9.6,42.94l1.81-3.63h1.2Z"></path> <path class="cls-1" d="M19.62,45.4H18.4V41.21L15.79,45.4H14.57V39.31h1.22v4.13l2.61-4.13h1.22Z"></path> <path class="cls-1" d="M26.44,45.4H25.21V42.8H22.79v2.6H21.56V39.31h1.23v2.43h2.42V39.31h1.23Z"></path> </g> </g> </svg> 