<?xml version="1.0" encoding="UTF-8"?> <svg xmlns="http://www.w3.org/2000/svg" xmlns:xlink="http://www.w3.org/1999/xlink" viewBox="0 0 1920 831"> <defs> <style>.cls-1{fill:url(#Безымянный_градиент_7);}.cls-2{fill:url(#Безымянный_градиент_2);}.cls-3{fill:url(#Безымянный_градиент_75);}.cls-4{mask:url(#mask);}.cls-5{fill:#4d4d4d;}</style> <linearGradient id="Безымянный_градиент_7" x1="-85.84" y1="428.04" x2="324" y2="428.04" gradientUnits="userSpaceOnUse"> <stop offset="0"></stop> <stop offset="1" stop-color="#fff"></stop> </linearGradient> <linearGradient id="Безымянный_градиент_2" y1="428.04" x2="349.56" y2="428.04" gradientUnits="userSpaceOnUse"> <stop offset="0" stop-color="#fff"></stop> <stop offset="1"></stop> </linearGradient> <linearGradient id="Безымянный_градиент_75" y1="415.5" x2="1920" y2="415.5" gradientUnits="userSpaceOnUse"> <stop offset="0" stop-color="#ffc28d"></stop> <stop offset="1" stop-color="#ffecb8"></stop> </linearGradient> <mask id="mask" x="-85.84" y="202.27" width="466.84" height="451.55" maskUnits="userSpaceOnUse"> <rect class="cls-1" x="-85.84" y="202.27" width="409.84" height="451.55"></rect> <rect class="cls-2" y="202.27" width="349.56" height="451.55"></rect> </mask> </defs> <title>Ресурс 7</title> <g id="Слой_2" data-name="Слой 2"> <g id="Слой_1-2" data-name="Слой 1"> <rect class="cls-3" width="1920" height="831"></rect> <g class="cls-4"> <path class="cls-5" d="M381,277.25c-5.7,1-11.39,2.11-17.12,2.89-3.69.5-7.45.46-11.17.69-2.36.15-4.71.28-7,.56-1.33.16-1.61,1.13-.61,2.07a4.28,4.28,0,0,1,1.16,3,13.26,13.26,0,0,1-1.73,8,17.28,17.28,0,0,1-4.21,4.81c-4.49,3.59-9.24,6.85-13.74,10.42-4.33,3.43-9.45,5.19-14.41,7.3-4.4,1.88-8.77,3.89-13.32,5.33-5.75,1.81-11.65,3.21-17.52,4.58-5.46,1.28-11,2.3-16.48,3.44-.42.09-.82.22-1.26.34,0,1.4,0,2.77,0,4.14q.21,18.24.43,36.48c0,4.46.1,8.93.2,13.4a1.81,1.81,0,0,0,.59,1.16,2.66,2.66,0,0,1,0,3.19,3.29,3.29,0,0,0-.57,1.57c-.05,2.58,0,5.16,0,7.74a2.29,2.29,0,0,0,1,2.05,4.49,4.49,0,0,1,1.5,2.28c.7,2.91,1.16,5.87,1.83,8.78a35.68,35.68,0,0,0,1.32,3.85c.14.4.26.8.42,1.31l-.89.09c0,4.44.06,8.78,0,13.1,0,1.87.14,3.15,2.15,4.23,3.88,2.1,5.64,5.81,6.08,10.16a37,37,0,0,0,.64,4.84,14.9,14.9,0,0,0,1.46,3.51c.2.38.85.52,1.29.78a12.7,12.7,0,0,0,.3-1.59A2.18,2.18,0,0,0,281,451c2.58-.84,3.18,1,2.83,3.49a4.65,4.65,0,0,1-2.44,3.61,1.49,1.49,0,0,0-.68,1.14c.06,6.7.19,13.39.28,20.09a22,22,0,0,0,0,4.13,4.75,4.75,0,0,0,1.81,2.58c1.86,1.31,2.09,3.34.33,4.82a25.15,25.15,0,0,0-2,1.84c-.16.17-.13.56-.13.85,0,9.06,0,18.13,0,27.19a1.33,1.33,0,0,0,1.14,1.53c1.75.48,2.25,1.84,1.43,3.51a18.43,18.43,0,0,0-.67,1.85H303.5c-.05-5.75-.1-11.44-.14-17.13,0-1.85,0-3.69.09-5.54a1.29,1.29,0,0,1,.64-1c1.93-.47,2.24-2,2.34-3.56s-.17-3.27,0-4.87A5.14,5.14,0,0,1,307.7,493c1-1.16,2.2-2.14,3.27-3.24,1.4-1.43,2.78-2.86,4.94-2.5V476.94l2.27-1-.08-.36c-.46-.21-.93-.39-1.37-.63-2-1.06-2.37-3.31-.64-4.66,3-2.3,3.89-5.29,3.6-8.84a3.54,3.54,0,0,0-.13-1.14c-.42-.9-.09-1.39.79-1.68-.11-.36-.21-.71-.43-1.48,1,.4,2,.48,2.44,1a2.13,2.13,0,0,1-.12,2.63,2.55,2.55,0,0,0-.14,1.68c.15,1,.55,1.91.65,2.88.22,2,1.63,2.72,3.16,3.52a4,4,0,0,1,1.9,1.86c.78,2.07.16,3.24-1.84,4.27-.43.22-.83.5-1.6,1,2.67.58,2.31,2.41,2.33,4.05,0,2.58,0,5.15,0,7.79l1.46.65a3,3,0,0,0-.12-3.78c-1.5-2.06-1.21-3,.64-4.73,1.7-1.6,2.91-3.5,2.13-6a1.74,1.74,0,0,1-.06-.51c0-.21,0-.42,0-.9.55,1,1,2.07,2.21.49a24.45,24.45,0,0,1,.51,3.16,4.46,4.46,0,0,0,1.45,3.4,5.74,5.74,0,0,1,1.53,2.52,2.76,2.76,0,0,1-.84,3.15,1.59,1.59,0,0,0-.46,2.36,2.51,2.51,0,0,1,.22,1.36c0,4,0,8.11,0,12.14,2.33,1.22,5,1.91,6.56,4.26a8.19,8.19,0,0,1,1.56,3.53c.21,3.07.09,6.18,0,9.26a1.26,1.26,0,0,0,1.1,1.51,36.73,36.73,0,0,1,17.42,10.46,34.49,34.49,0,0,1,4.46,6.73c.58,1,.55,2.39.81,3.65h1.85c-.11-3.35-.28-6.67-.29-10,0-8.2,0-16.41,0-24.62,0-1.2.92-1.5,1.61-1.92a2.26,2.26,0,0,0,1.28-2c0-1.8.14-3.59.16-5.39,0-1-.12-2,1.06-2.49.4-.19.64-.75,1-1.18,1.29,1.75,2.34,3.51,2.3,5.74-.05,2.05,0,4.1,0,6.19.27.1.42.17.57.21,2.11.54,2.85,2.12,2.83,4.06-.07,8.07-.22,16.14-.33,24.21,0,1.5,0,3,0,4.67H381v2.32l-4.14-.43v-27.1a14.59,14.59,0,0,1,0-3,2.68,2.68,0,0,0-1.18-3.06,2.8,2.8,0,0,1-1.12-2.68c.08-2.18,0-4.38,0-6.57a3.71,3.71,0,0,0-.52-1.27,3.82,3.82,0,0,0-.55,1.23,35.56,35.56,0,0,0,0,4.38,3.12,3.12,0,0,1-1.29,3,3.18,3.18,0,0,0-1.19,3.2,19.13,19.13,0,0,1,.35,2.8q.18,14.37.28,28.72a2.16,2.16,0,0,1-.34,1.47c-.29.29-1,.18-1.75.28,1.78,1,2.51,2.25,1.84,4.09a5.17,5.17,0,0,1-3.24,3.18c.13,7.19.26,14.16.39,21.15H381v2.58H368.9v4.12l12.1-.51v1c-4,.29-8.12.13-12.34,1.14,0,7.45,0,14.82,0,22.2a1.35,1.35,0,0,0,.84,1c1.8.5,3.63.89,5.49,1.32.14-1.84.29-3.76.44-5.68a8.09,8.09,0,0,1,.57,2.58c0,1-.19,2-.2,3.05a3.15,3.15,0,0,0,.44,1.12l.35-.1v-4.54h.43v19.27l-.43,0v-1.46c0-3.78,0-7.56,0-11.34a3.63,3.63,0,0,0-.43-1.09l-.37.14c0,6.22,0,12.45.05,18.67a8.72,8.72,0,0,0,1,2.81.66.66,0,0,0,.52.26c1.19,0,2.39,0,3.58-.07v1c-1.92.13-3.84.37-5.76.36-14.77,0-29.54.21-44.29,1.09-.37,0-.81-.38-1.14-.66-.91-.76-.37-1.75-.37-2.66,0-4.64,0-9.28,0-13.92,0-.38-.05-.75-.07-1.1-1.74-.28-1.72-.28-2-2.07-.13-.75-.38-1.49-.57-2.23-1.56,5.12-.8,10.32-1,15.55,2.09-.57,2.15-.54,2.19.94l-24.47,2.11c-4.67.4-9.33.79-14,1.21-4.19.37-8.37.93-12.57,1.13-5.1.24-10.22.11-15.33.31-5.27.21-10.53.78-15.81.89-9.62.22-19.25.09-28.87.35-6.09.16-12.16.82-18.25,1.16-9.18.51-18.37.87-27.54,1.42-8.31.5-16.63,1-24.92,1.82a214.33,214.33,0,0,1-24.56,1.25l-30.8-.57a9,9,0,0,0-5.57,1.31,28.75,28.75,0,0,1-12.38,4.31c-3,.39-6.09,1.3-9.14,1.32-10,.07-20,.52-29.92-1.19-4.76-.82-9.61-1.13-14.38-1.92a78.69,78.69,0,0,0-15.25-.87c-1.28,0-2.55.3-3.82.46v-.77c1.49-.14,3-.34,4.47-.41a83.16,83.16,0,0,1,15.76,1c3.93.57,7.89,1,11.84,1.5,3,.39,6.09,1.06,9.15,1.2,5.66.27,11.33.24,17,.33a68,68,0,0,0,21.24-3.19,38.44,38.44,0,0,0,5.63-2.74c.11,0,.15-.24.27-.46-.51,0-.89-.07-1.28-.08l-19.18-.44c-17.83-.41-35.64,0-53.45.66-3.81.14-7.63,0-11.45,0v-2.32c1.58-.15,3.15-.39,4.73-.44,9-.28,18-.7,26.92-.74,15.56-.06,31.11,0,46.66.22,10.74.13,21.47.58,32.21.78a265.78,265.78,0,0,0,31.42-1.06c4.83-.47,9.64-1.17,14.47-1.49,9.82-.66,19.64-1.12,29.46-1.68s19.37-1.28,29.07-1.65c8.41-.31,16.84-.22,25.26-.32,2.06,0,4.13,0,6.19-.14l26.89-1.17c1.76-.07,3.53,0,5.28-.16,3.38-.31,6.74-.75,10.12-1.1,8.49-.89,17-1.74,25.49-2.63,3-.31,6-.68,9.15-1.05V605.8a3.84,3.84,0,0,0-.69,0,157.93,157.93,0,0,1-20.39,1.56c-6.69.2-13.38.62-20.07.9-3.43.14-6.87.21-10.3.27a8,8,0,0,1-1.64-.3l.06-.32,7.65-.34c9.18-.42,18.37-.75,27.54-1.29,5.78-.34,11.54-1,17.3-1.54a1.65,1.65,0,0,0,1.22-.68,12.29,12.29,0,0,0,.53-2.42c-2,0-4,0-5.88,0-4.3.09-8.59.37-12.88.3-12.67-.18-25.34-.49-38-.74a1.84,1.84,0,0,0-.68.26l0,0a5.65,5.65,0,0,0-1.11-.28c-5.39-.37-10.78-.82-16.17-1-6.86-.28-13.73-.49-20.6-.5-11.54,0-23.09-.24-34.64.34-11.32.57-22.67.51-34,.57-10.44.05-20.87-.21-31.31-.18-18.35,0-36.69.19-55,.3-6.4,0-12.79.22-19.18.12-5.71-.08-11.41-.6-17.12-.67-6.1-.08-12.2,0-18.3.26-6.56.24-13.11.69-19.66,1v-3.1l16.29-.69v-1.8q.09-56,.14-112c0-2.87.82-5.86-.62-8.65,0-.06,0-.16.06-.24.08-.78.16-1.57.24-2.42H15.18l-14.8.2v-1.55c3.74,0,7.48.1,11.21-.05,3.08-.13,6.25.51,9.22-.92.58-.28,1.29-.36.72-1.18s-.28-1.38.63-1.69c.31-.11.6-.27.9-.41a4.52,4.52,0,0,0-2.2-.59q-4.83,0-9.67,0c-3.6,0-7.21.12-10.81.18v-1H17l-.21-1.83c-3.08-1.25-6-2.5-9-3.64-2.42-.92-4.89-1.69-7.34-2.53v-1.8q7.05,2.76,14.1,5.5c.68.26,1.39.43,2.09.65s1.57.62,1.65,1.69c.05.64.54.74,1.16.86,1.78.35,3.54.85,5.29,1.34,1,.29.77.91.14,1.32a28.93,28.93,0,0,1-2.69,1.45c.45,2,.31,2.07-1.69,2.71a17.24,17.24,0,0,0-3.17,1.68c-.14.08-.15.39-.23.6.22,0,.49.13.65,0,3-1.56,6-3.12,9-4.77a1.7,1.7,0,0,0,.56-1.26c.08-2.36.07-4.73.09-7.09,0-1.59.34-2.05,1.89-2.37,7.1-1.47,13.73-4.34,20.5-6.78A2,2,0,0,0,51.2,449c-.1-10.65-.08-21.31-.13-32,0-2.68.57-2.27-2.27-3.6-.31-.15-.74-.22-.9-.46a6.42,6.42,0,0,1-1.26-2.37c0-.34,1-.92,1.63-1.28a10.89,10.89,0,0,1,1.46-.5c.66-.28,1.77-.5,1.87-.93.24-1.06.5-2.33-.5-3.27s-2.22-2-3.32-3a6.58,6.58,0,0,1-.56-.64c1.35-1,2.66-2,3.91-3a1.66,1.66,0,0,0,.57-1.17c-.13-2.68-.35-5.37-.54-8.05-.12-1.72-.23-3.45-.36-5.32H68.22c-.46-1.1-.82-2.13-1.31-3.1a1.65,1.65,0,0,1,.29-2.2c.3-.29.55-.73.91-.88,1.75-.76,1.6-2.18,1.58-3.72-.1-8-.12-16.07-.17-24.1,0-.8.17-1.69-1.12-1.66.06-.18.06-.37.13-.4,2.7-1.05,3.6-3.14,3.45-5.86A13.36,13.36,0,0,1,72,340c.06-1,.12-1.94-1.36-2.08-.36,0-1-1.14-.87-1.52,1.45-4.06,2.94-8.12,4.63-12.09a16.67,16.67,0,0,1,2.76-4c1.43-1.7,3.07-3.22,4.48-4.93a2.32,2.32,0,0,0,.31-2c-.86-2-.84-3.75,1-5.31a3.29,3.29,0,0,0,.81-1.93,12.3,12.3,0,0,0-1.18-7.62A2.94,2.94,0,0,1,84,294.25,3.34,3.34,0,0,0,86.38,291c0-.84,1-1.64,1.49-2.46.3-.47.63-.92.93-1.39a1.83,1.83,0,0,0-.2-2.57c-1.5-1.73-2.78-3.74-1.67-6.18a9.4,9.4,0,0,1,2-2.62,2.36,2.36,0,0,1,1.7-.29c-2.38.76-2.57,3-3.14,4.75s1.55,4.19,3.45,4.29c2.65.12,3.75-.4,4.38-2.25.86-2.54-.29-4.08-2.79-4.68A1.55,1.55,0,0,1,91.13,276a4.12,4.12,0,0,1,3.08.85c2.33,1.45,2.68,3.55,2.35,6A3.66,3.66,0,0,1,93.31,286c-.64.05-1.28,0-2.08,0,.28.37.43.8.72.93,1.52.64,1.75,2.06,2,3.38a2.72,2.72,0,0,0,1.71,2.16,3.06,3.06,0,0,1,2,2.4c.11,1.25,1.12,1.84,1.79,2.67.51.63.89.95.23,1.85a5.84,5.84,0,0,0-.53,2.68c-.19,1.88-.28,3.76-.48,5.63a1.67,1.67,0,0,0,.82,1.8,2.89,2.89,0,0,1,1.12,1.83,30.24,30.24,0,0,1-.17,3.55c0,.38.1,1,.36,1.12,2.07,1.14,3.13,3.18,4.28,5a24.14,24.14,0,0,1,3.08,10.11c.13,1.15.39,2.29.44,3.44a2.32,2.32,0,0,0,1.79,2.21,2,2,0,0,1,1.16,2.86c-1.13,2.06-.75,4.26-.8,6.43,0,.21.24.42.34.65a4.88,4.88,0,0,1,.68,1.68c.12,9,.23,17.95.21,26.93,0,1.52.33,2.28,1.85,2.73,2.13.64,2.47,1.35,2.54,4,0,.5,0,1,0,1.64h10.4a3,3,0,0,1,3.25,3.06c.09,1.93,0,3.87,0,5.8,0,1.72.09,3.45,0,5.16a1.81,1.81,0,0,0,1.17,2c.35.16.68.35,1,.52a2.52,2.52,0,0,1,.41,4.37c-.4.33-.8.66-1.21,1a3.18,3.18,0,0,0-1.08,3.38,1.89,1.89,0,0,0,1,.73c.87.34,1.77.62,2.66.9s.92,1,.53,1.6a7.81,7.81,0,0,1-1.88,2.08,3.62,3.62,0,0,0-1.56,3.19q.09,18.24.24,36.48a2.31,2.31,0,0,0,.08.44,20.34,20.34,0,0,1,3.5.48c3.17,1,6.33,2.05,9.44,3.22,2.84,1.06,5.53,2.51,8.64,2.73.95.07,1.49.69,1.18,1.82a10,10,0,0,0-.34,2.62c0,5.45,0,10.91,0,16.37,0,1,.35,1.22,1.29,1.39,3,.54,5.92,1.39,8.91,1.85,5,.77,10.1,1.34,15.15,2,1.14.15,2.28.38,3.43.46.87.07,1.07.53,1.06,1.27,0,1.5,0,3,0,4.63,2.1.72,4.4,1.5,6.69,2.31,1.9.68,2.07,1.64,1.66,3.62a35.06,35.06,0,0,0-.31,6.25c0,.18.45.43.73.53,1.05.36,2.14.61,3.17,1s1.16,1.21.4,2.12a12.62,12.62,0,0,0-1,2,23.16,23.16,0,0,1-1.94,3.17,6,6,0,0,0-1.06,4.35c.16,4.6.19,9.2.19,13.8q0,21.27,0,42.54c0,6.79,0,13.58-.05,20.37V597c1.29-.08,2.52-.1,3.72-.28.24,0,.54-.71.55-1.1.1-4.29.12-8.59.23-12.88.11-4.6.31-9.19.41-13.78a1.9,1.9,0,0,0-.6-1.22,5.19,5.19,0,0,1-1.12-4.17c.54-1.46,3.31-1.77,4.45-.51a3.68,3.68,0,0,1-.21,4.9,1.5,1.5,0,0,0-.44.93q0,13.49,0,27a3.79,3.79,0,0,0,.09.52h5.1c0-3.23,0-6.32,0-9.4,0-6,.09-12,.2-17.92a1.77,1.77,0,0,0-1.26-1.94,10,10,0,0,1-1.59-1l.17-.37,2.66,1c.16-9.75.32-19.47.48-28.89a22.61,22.61,0,0,1-3.25-.87,2.23,2.23,0,0,1-1-1.42c-.65-2.55-.15-3.71,1.88-4.62-.5-1.73-.79-3.57.92-4.75,1.35-.94,2.94-.27,4.47,1.49a1.84,1.84,0,0,0,.35-.33c1.95-2.9,4.71-1.91,6.42-.08a1.72,1.72,0,0,0,1.92.68,20.2,20.2,0,0,1,3-.3V477.51a7.83,7.83,0,0,1-5.5-9.1A8.53,8.53,0,0,1,216.5,465c1.21-1.4,2.24-2.76,2.05-4.77a18.48,18.48,0,0,1,.1-3.86,6.19,6.19,0,0,1,.72-1.69l0,0c.1,1.92.19,3.83.29,5.82.21-.09.43-.28.63-.27.74.05,1.73-.09,2.13.32s.24,1.4.17,2.12a9,9,0,0,1-.57,1.78l.43.32A12.78,12.78,0,0,1,224,463a1.91,1.91,0,0,1,1.48-.41c.28.08.51.84.52,1.3a14.73,14.73,0,0,1-.25,2.27c2.22,0,3.06.9,2.34,2.68a2.4,2.4,0,0,1-1.23,1.18,3.51,3.51,0,0,0-2.2,3,5.44,5.44,0,0,1-3.88,4.42v50.05c3.15.27,4.82-2.35,5.09-4.49l2.15-.13c-.95-1.74-.75-2.22,1.4-3.49a4.05,4.05,0,0,0-.63-.77c-1.7-1.3-1.8-3.13-1.69-5,.08-1.25,2-2.8,3.68-2.93a3.38,3.38,0,0,0,3-2.34c2.18-5.49,2.15-11.24,2.06-17a4.4,4.4,0,0,0-1.74-3.7c-1.22-.9-.87-1.17.3-2.1a4.91,4.91,0,0,0,1.64-3.12c.68-8.42-.22-16.86,0-25.29a1.84,1.84,0,0,0-.77-1.25,3.18,3.18,0,0,1-1.73-2.81c0-1,.29-2.08,1.39-2.37.64-.17,1.74-.1,2,.3.44.6.35,1.59.52,2.58,1,.37,1.23.14,1.45-1.09.48-2.76,1-5.52,1.72-8.24a25.41,25.41,0,0,1,2-5.54c.91-1.7,1.95-3.47,3.86-4.34.66-.29,1.36-.49,2.16-.78-.05-1.17-.15-2.43-.17-3.7-.09-4.26-.14-8.51-.22-12.76a15.58,15.58,0,0,0-.23-1.65c0-.2-.17-.44-.11-.61.33-1,.79-2,1.05-3,.68-2.74,1.36-5.48,1.87-8.25.39-2.1.72-3,2-3.86-.14-1.65-.3-3.25-.39-4.85s-.2-3.18-.14-4.77-.56-3.19.5-4.72a4.46,4.46,0,0,1-.21-1.15q1-17.76,2-35.51.47-8,.92-15.95c0-.42,0-.84,0-1.36H250c-.43,2.13-.86,4.34-1.31,6.54a9.11,9.11,0,0,1-.51,2c-1.3,2.84-2.54,5.73-4.06,8.45a46.87,46.87,0,0,1-3.68,4.94c-.61.82-1.19,1.68-1.77,2.52-1.58,2.3-4.14,3.33-6.37,4.72-3.22,2-6.74,3.53-10,5.46-6.67,3.91-13.94,6.15-21.42,7.77a39.24,39.24,0,0,1-8.15.93c-7.51,0-15-.1-22.55-.26A112.53,112.53,0,0,1,145.54,371c-6-1.47-11.94-3-17.46-5.88-1.25-.65-2.36-1.56-3.59-2.25-2.43-1.37-4.88-2.67-7.33-4-2-1.06-2.57-1.65-3-3l12.23,7.19a51.52,51.52,0,0,0,14.11,5.39c5.9,1.41,11.85,2.6,17.8,3.79a30.31,30.31,0,0,0,5.37.57c10.13.23,20.27.5,30.4.5a35.33,35.33,0,0,0,8.2-1.46,64.35,64.35,0,0,0,14.25-4.76c6.4-3.28,13-6.18,18.87-10.46a15.45,15.45,0,0,0,2.69-2.73,40,40,0,0,0,3.38-4.52c1.38-2.3,2.56-4.72,3.82-7.09,0,0,0-.09,0-.12,2.23-3,2.37-6.74,3.23-10.2.15-.61-.44-1.41-.68-2.09h1c.09-.1.2-.16.2-.22.41-6.6.86-13.19,1.2-19.78.24-4.52-1.32-8.65-3.11-12.7a3.9,3.9,0,0,0-1.19-1.31c-1.47-1.18-3-2.31-4.48-3.44a2.67,2.67,0,0,1-.49-3.41c1.16-1.66,2.23-3.39,2.2-5.5,0-1,.47-1.17,1.27-1.14,2.61.1,5.23.22,7.84.28,1.93,0,3.86,0,5.92,0,.06-.49.14-.89.16-1.3q.33-7.14.64-14.29a3.79,3.79,0,0,0-.2-1.38,3.77,3.77,0,0,1,.72-3.62,1.7,1.7,0,0,0,.42-.82c0-4,0-8.08,0-12.07-.84-.68-2.62.12-2.52-1.84H260v-4.64a2.11,2.11,0,0,1,1.08,2.18c0,.8,0,1.61,0,2.42,1,.41,2.7-.45,2.49,1.66l-2.69.12v13.38c1.1.47,1.51,1.87.73,3.28a1.64,1.64,0,0,0-.25,1.14c.95,2.42.89,5,1,7.49s0,4.79,0,7.4c1.35-.33,2.33-.58,3.32-.8,5.59-1.22,10.61-3.9,15.82-6.11,6.94-2.94,12.74-7.55,18.59-12.15,3.95-3.1,8.09-6,12-9.14a193.55,193.55,0,0,0,24.31-24.44A96.89,96.89,0,0,0,348.51,212h1.29a32.55,32.55,0,0,1-1.71,3.86,111.46,111.46,0,0,1-11.79,15.9,177.42,177.42,0,0,1-16.12,17c-5.92,5.26-12.32,10-18.53,14.94-2.82,2.24-5.57,4.6-8.54,6.63a94.64,94.64,0,0,1-25.17,11.81c-1.47.47-3,.86-4.47,1.2-.71.16-.89.48-.86,1.15.09,2.05.15,4.12.19,6.18q.31,18.22.61,36.46c0,.66.06,1.33.09,2.06.63-.07,1.1-.08,1.56-.18,4.78-1,9.58-1.91,14.33-3,6.08-1.45,12.17-2.93,18.18-4.66,2.72-.78,5.24-2.25,7.89-3.32s5.41-1.94,8-3.09c3.3-1.43,6.74-2.71,9.71-4.68,5.22-3.46,10.14-7.36,15.15-11.12,3.19-2.39,5.74-5.33,6.67-9.3.47-2,1-4.08-.67-6.06-1.26-1.53-1.46-3.74,1.56-3.92,2.7-.16,5.39-.33,8.09-.47s5.52,0,8.23-.44c6.27-.94,12.51-2.12,18.76-3.21ZM57.12,426.59c-.14-.15-.44-.35-.41-.45a46.57,46.57,0,0,1,1.7-5.08c.91-2.05,2.21-2.33,4.21-2,1.63.28,3.44,2.79,3.32,4.42l-.94-.38-2,2.57,3.48-.42v-12l-13.05,1.44v1.08q.1,13.45.19,26.92c0,3.39,0,6.78,0,10.17,0,.42.34,1.18.56,1.19,1.13.09,2.37.46,3.21-.55a6.39,6.39,0,0,1-.42-1.48c0-2.36,0-4.72,0-7.08V426.56c1.15.31,1.06,1.28,1.07,2.14q.11,8.88.17,17.77c0,2.35,0,4.69,0,7.11h3.41V441.43c-.76-.47-1.93.68-2.33-.85l2.35-.34V426.92c-1.07-.35-2.39.82-3.19-.75l3.15-.49L58.6,423Zm52.67-48.85c.11,2.24.21,4.48.32,6.7,3.94.69,4.18.49,4.26-3.07a1.8,1.8,0,0,0-1.31-2c-1.11-.49-2.61-.27-3.29-1.63,0-.21,0-.42,0-.64q.16-10.89.32-21.77c0-1.06-.24-2.14-1.43-2.24-3.41-.3-6.83-.43-10.08-.62v25.05c.82,0,1.37,0,1.93,0,.88-.05,1.18.21,1.06,1.2a17.52,17.52,0,0,0,.18,3.26l1.09-.08V373l-2.23-.55v4.28l-.48.08a7.1,7.1,0,0,1-.6-1.92c-.05-4.41,0-8.83,0-13.24l.51-.08.74,2.53h2v-4.88c-1.29.23-1.77,2.42-3.64,1.18,1-.85,1.75-1.7,2.67-2.38,1.45-1,2.81-.67,3.73.83a7.81,7.81,0,0,1,1.14,4.26c0,5.67.15,11.34.24,17a7.48,7.48,0,0,1-.13.95l-.45.09a8.9,8.9,0,0,1-.6-2.26c0-5.45.13-10.91.11-16.36a10.22,10.22,0,0,0-.74-2.91.92.92,0,0,0-1.52-.58v4.78c.57.73,2-.29,1.82,1.31l-1.74.12v6.55c1.37.1,1.37.1,1.42,1.05l-1.43.08v9c.89.22,2.24-.26,1.91,1.64l-3.72-.46v1.38h7.69c0-1.45,0-2.78,0-4.1C109.52,379.49,109.69,378.61,109.79,377.74Zm-38-30.11c.21,0,.42,0,.63,0,4.64-.52,9.28-1.2,13.93-1.54a88.62,88.62,0,0,1,22.22,1.34v-8.8a216,216,0,0,0-34.42-.73c.69,3.09.6,5.88-1.29,8.37l-1.05,1.4c-.26.22-.76.48-.73.67.2,1.53.51,3.05.78,4.55,12.42-1.69,25-1.65,37.58-1.08,0,.05,0,0,0,0,.74-2.14.3-3.08-1.87-3.36-4-.52-8.08-1.09-12.14-1.28a101,101,0,0,0-22.3,1.44C72.34,348.73,71.78,348.62,71.8,347.63ZM215.42,532a26.92,26.92,0,0,1-3.09,1.75c-.7.29-1.15.52-1.26,1.34a2.5,2.5,0,0,1-2.28,2.12,9.74,9.74,0,0,1-1.63,0c0,.57,0,1.08,0,1.58.08,9.88.21,19.77.22,29.65,0,8.93-.12,17.87-.18,26.81,0,1.13,0,1.13,1,1-.91-4.8-.31-9.65-.41-14.46s0-9.8,0-14.7,0-9.71,0-14.57V537.93l.45,0a15.06,15.06,0,0,1,.26,2q0,27.33,0,54.66c0,1.53.23,1.78,1.78,1.79l11.86,0c.42,0,.84,0,1.35-.07v-1.51c0-4.34.05-8.68,0-13-.06-6.44-.17-12.87-.28-19.3,0-1.82-.9-2.49-2.69-2.47-3,0-6.09-.06-9.14-.15a4.12,4.12,0,0,1-1.29-.55l.14-.43H221a1.34,1.34,0,0,0,.15-.39c0-5.11.06-10.22.05-15.34a1.63,1.63,0,0,0-.52-.88c-1.3-1.41-2.69-2.75-3.94-4.21-1.53-1.78-1.21-4-1.34-6.15a9.57,9.57,0,0,1,1,2.63,5.58,5.58,0,0,0,1.67,3.78c.84.83,1.77,1.57,2.8,2.48L227,535.3c-1.32-.26-1.92-1-1.58-1.94s1.14-1.32,1.83-2.06a7,7,0,0,1-.92.22,1.68,1.68,0,0,1-.89,0,2.15,2.15,0,0,1-1-.84,1.33,1.33,0,0,1,.28-1.08c1.68-2.1,1.69-2.09,1.43-3.19-2.65,3.62-6.5,2.57-10.06,2.71C215.86,530,215.64,531,215.42,532Zm-54.66-19.55a8,8,0,0,1,.48,1.94c0,7.56,0,15.12.06,22.68a10.78,10.78,0,0,0,.55,1.82,2.85,2.85,0,0,1-.07,1.23c-.1.39-.47.75-.47,1.12,0,3.26,0,6.51,0,9.76q0,22.68,0,45.37a6.6,6.6,0,0,0,.07.82h6.32V513.09l.35,0c.12.82.25,1.64.39,2.54h6.34l-.33-2.62.34-.07a8.38,8.38,0,0,1,.42,1.73c.09,4.08.17,8.16.18,12.24q0,31.64,0,63.27V597h14.24v-1.48c0-6.36,0-12.72,0-19.07q.23-30.3.53-60.58c0-.69-.15-1.06-.88-1.09-3.55-.16-7.11-.21-10.55-1.26-.54-.16-1.07-.35-1.61-.52a.83.83,0,0,1,.7-.28c3.85.24,7.7.51,11.55.72A2.18,2.18,0,0,0,191,513c1.12-1.39,2.09-2.9,3.22-4.52-.55-.17-1-.33-1.41-.44-4.19-1-8.38-2.09-12.58-3.11-1.37-.33-2.52-1.06-4.14-.91-3.23.28-6.5-.06-9.75-.09a1.56,1.56,0,0,0-1.17.49c-1.38,2.21-2.7,4.46-4,6.73a5.5,5.5,0,0,0-.38,1.29c-1.12-.08-.81-.79-.5-1.33,1.2-2.08,2.47-4.11,3.69-6.18.29-.48.53-1,.91-1.72H138.73a29.69,29.69,0,0,1-3.11,7.23,3.22,3.22,0,0,0,.5.06l17.26,0c1.59,0,3.18,0,4.77,0,1.19,0,1.3.22,1.21,1.6h-7.48v9.15h8.78c.31-1.23-.21-1.55-1.33-1.51-1.71,0-3.43,0-5.15,0a1.35,1.35,0,0,1-1.55-1.45h8v-1.57c-2.29,0-4.51-.07-6.73,0-1.06.05-1.48-.31-1.56-1.46h8.4ZM109,508l24.93,3.39c1.34-2.43,2.75-4.95,4.23-7.62-2.6-.22-4.91-.39-7.22-.59-5-.44-10-.73-15-1.36-6.84-.87-13.64-2-20.47-3a1.81,1.81,0,0,0-1.43.64c-1,1.56-1.94,3.22-3.07,5.14-.37-2.76,2.07-4.11,2.58-6.6-1.67,0-3.22.09-4.77.09l-69.62.09H17.5v7.12h2.4q32,0,64.08,0c1,0,1.94.05,1.57,1.53h-.63q-32.68,0-65.36-.06a11.18,11.18,0,0,1-2-.39v91.12H49.2V511.87l-3.9-.18v85.48l-.49.1a5.8,5.8,0,0,1-.48-1.61q.06-36,.16-72.08c0-4.41,0-8.83,0-13.41,1.28,0,2.52.07,3.75,0A2.1,2.1,0,0,1,50.6,512c.16.73-.33,1.58-.33,2.37,0,4.86.08,9.72.08,14.57q0,31.92,0,63.82v5h4.53c0-1.82,0-3.58,0-5.33q.35-21.21.74-42.4a1.7,1.7,0,0,0-1-1.81c-1.52-.81-2-3-1.37-4.93s1.4-2.57,3.5-2.24a5,5,0,0,1,4.2,3c.93,2.41.11,4-2.38,5.17v48.52h9.59c.14-29.25.28-58.36.42-87.61,1.16,0,2,0,2.87,0,3.17-.06,3.18-.06,3.19,3.13,0,7.26,0,14.52.06,21.78a5.8,5.8,0,0,0,.49,1.55c.21.3,0,.65,0,1-.06.64-.27,1.67,0,1.85a3.32,3.32,0,0,0,2.27.38c.46-.11.88-.9,1.09-1.47a11.65,11.65,0,0,0,.37-2.29,5.16,5.16,0,0,1,2,4.13c0,4.52,0,9,0,13.54.27-4.81.24-9.63.29-14.44,0-1.47.22-3,.34-4.42l.31,0,.47,2.56c.78-.44,1.48-.82,2.16-1.24s1.66-1,1.23-2c-.33-.71-1.21-1.19-1.88-1.72a13.33,13.33,0,0,0-1.42-.93l.26-.43c1.62-.34,2.53.84,3.55,1.85V517.56c-2.56,0-5,0-7.45,0-1.26,0-1.54-.34-1.63-1.71H86.2V514c-2.16,0-4.26-.07-6.36,0-1.15,0-1.62-.48-1.89-1.64h8.26v-2.44H84.89c-9.84-.13-19.68-.31-29.52-.38-9.62-.08-19.24,0-28.86-.1a33,33,0,0,1-4.8-.69c-.09,0-.16-.18-.43-.5,21.76-1.16,43.32.39,65,.2v-3.37h.53c.22,30.77.06,61.56-.07,92.34h4.8v-3.07q.06-42.11.13-84.19c0-1.12-.33-1.63-1.48-1.76a17.89,17.89,0,0,1-2.73-.76l.11-.13,17.83,2.28v.33h-3.56a32.48,32.48,0,0,1,.59,4.21q0,40.81,0,81.62v1.29h3.81V511.7l.46-.05a10.3,10.3,0,0,1,.38,1.8c.08,3.48.16,7,.15,10.44q0,35.9-.14,71.81v1.56h5.32V513.73l.42,0a18.32,18.32,0,0,1,.39,2.73q.06,20.05,0,40.1c0,11.26-.12,22.52-.18,33.78,0,2.3,0,4.61,0,6.92h4.1V514.16l.41,0a21.94,21.94,0,0,1,.52,3.38q0,36.3,0,72.59v7.18h10.73a10.27,10.27,0,0,1-.23-1.54l.18-74.27a5.79,5.79,0,0,0-.07-2.17,6.31,6.31,0,0,1,.22-5l-4.47-.72.59-.16c-5.12-.11-9.93-2.36-15.08-3l.1-.51L131,513.36l.19,1.21-2.28-.24c.21,2.06.52,4,.59,5.91.12,3.43.14,6.87.14,10.31q-.06,32.75-.13,65.5c0,.41,0,.82,0,1.23h3.08v-13l0-69.24c0-.33,0-1-.06-1-1.54-.26-.32-1.06-.34-1.65l-1.1-.26c-5-1-10.15-.61-15.05-2.23-2-.65-4.11-.84-6.15-1.31-.36-.08-.65-.48-1-.74Zm219.53,93.13c-.06.07-.11.16-.18.18-.73.29-1.81,2.17-1.41,2.91.23.41,1.2.57,1.83.58q21.53,0,43.05,0c.26,0,.56-.08.76,0a4.3,4.3,0,0,1,.77.71l-.25.29h-45.8c.26,1.17.49,2.24.72,3.28,2,.28,2,.28,2,2.09q.06,6.65.1,13.28v1.74c14.94-1,29.73-1.48,44.82-1.4.05-2.25.13-4.36.14-6.46,0-3.87,0-7.74,0-11.61,0-3.33,0-3.44-3.24-4-5.57-1-10.82-2.91-16.1-4.76a5.12,5.12,0,0,0-3.47-.1,222.83,222.83,0,0,1-22.55,6.27,5.31,5.31,0,0,1-1.52-.13v-.4c.48-.17.94-.37,1.43-.5q11.56-3.26,23.14-6.47a3,3,0,0,1,1.63-.09c3.37,1.11,6.72,2.28,10.07,3.43.69.24,1.37.45,2.11.69a8.36,8.36,0,0,1-.5-1.85c0-5.58.09-11.17.22-16.75a2,2,0,0,0-1.25-2.24c-2.8-1.15-5.57-2.43-8.45-3.37-2.45-.79-2.52-.61-4,1.51l-.87,1.28a5.29,5.29,0,0,1-4.36,2.34,3.7,3.7,0,0,1-1.24-.44c3.14-.5,4-1,5.75-3.52a10.78,10.78,0,0,1,1.55-2.21c1.49-1.27,2.14-2.7,1.51-4.61,0-.06.06-.14.09-.21,1.51-.14,1.83-.44,1.67-1.74a7.83,7.83,0,0,0-.51-2.5,4.74,4.74,0,0,0-1.78-2c-1.69-.9-1.71-.78-1.09-2.63.53-1.54.81-3.21-.13-4.6-2.44-3.62-6-5.44-10.52-6.08l2.8,3-.21.41a3.73,3.73,0,0,1-1.12-.33,6.6,6.6,0,0,1-1.1-1.08c-2.31-2.5-5.2-2.67-8.19-1.82a17.2,17.2,0,0,0-8.11,5.4c-1.92,2.17-3.79,4.41-4.42,7.3-.68,3.1-.51,4.76,2.9,5.25.07,0,.13.1.31.25-.11.67-.24,1.41-.39,2.33H281.84v10.42c2.09-2.22,4.69-2.84,7.24-3.52a18.93,18.93,0,0,1,3.67-.56c4.83-.29,9.61-.22,14,2.27a1.47,1.47,0,0,0,1.13,0c1.59-.64,3.11-1.46,4.71-2,4.66-1.66,9.4-2.82,14.49-1.91a7.32,7.32,0,0,1-.23-1.13c0-1.22-.32-2.53.93-3.4.92-.64,1.8-1.32,2.73-1.93,2.29-1.52,4.56-3.07,7.43-3.31.72-.06,1.37-.14,1.56.84-.16.09-.31.24-.46.24a12.09,12.09,0,0,0-5.81,1.84c-1.26.72-2.48,1.51-3.72,2.25s-2.37,1.59-2.14,3.2c.25,1.81-.07,4,2,4.46,2.16-1,3.92-1.79,5.74-2.5.55-.21,1.41-.41,1.48.68-.07.07-.1.12-.14.13-.4.12-.82.22-1.21.37-2.7,1-5.44,2-5.15,5.75,0,.22-.32.47-.5.7-.21-.25-.6-.5-.6-.75,0-1.18.11-2.36.17-3.36l-2.51-3.08A31.93,31.93,0,0,0,309,581.33a2.3,2.3,0,0,1-2.56,0,9.78,9.78,0,0,0-2.77-1.32c-7.2-1.52-14.25-1.86-20.72,2.65a2.19,2.19,0,0,0-1.19,2.11c0,3.82,0,7.65,0,11.47,0,.34-.06.68-.09,1l-.33,0a5,5,0,0,1-.23-1.06q0-13.89.06-27.78c0-8.46,0-16.93,0-25.39,0-.92.13-1.84.2-2.76l.42,0v28.93h41.08c-1.89-2.4-1.55-4.83-.65-7.23a16.39,16.39,0,0,1,5.72-7.46c.2-.15.5-.3.54-.5.39-1.67,1.75-2.31,3.09-3a13.52,13.52,0,0,1,8.49-1.3c2.88.45,5.86.58,8.4,2.14,2.88,1.76,5.7,3.72,5.8,7.61a28,28,0,0,1-.38,3.63c3.3,1,2.95,4.07,3.47,6.68h9.07c.13-7.11.26-14.13.39-21.12-2-.64-2.59-1.41-2.53-3.4a18,18,0,0,1,.35-2.28c0-.2.21-.51.14-.58-1.44-1.43-1-3.49-1.79-5.14-2.2-4.88-4.83-9.46-10.07-11.69-3.14-1.35-6.37-2.48-9.55-3.73-1.71-.68-2.18-1.3-2.11-3,.14-3.09.08-6.18.16-9.27a4.38,4.38,0,0,0-1.6-3.89c-1.39-1-2.93-1.89-4.56-2.92.12.37.13.74.3.84,1.16.69,1.22,1.83,1.23,2.94,0,2.62-.05,5.24-.07,7.86,0,1.39,0,2.77,0,4.16l-.61.11a6.26,6.26,0,0,1-.61-1.83c-.06-3.69,0-7.38,0-11.35-10-.59-20-.46-30-.22a16.22,16.22,0,0,1,1,3.69c.06,5.67,0,11.34-.06,17,0,1.14.62,2.38-.55,3.37-7.55,0-15.16,0-22.76,0a7.57,7.57,0,0,1-1.64-.4c.1-.86.18-1.7.3-2.54.22-1.51-.12-1.94-1.6-1.94q-25.51-.06-51-.11c-1.48,0-1.94.42-1.75,1.85a21.67,21.67,0,0,1,0,3c1.26-.54,1.61-.29,1.84,1.23s-1,2.07-1.83,3a2.85,2.85,0,0,1,2.53,2.38c.44,3.54-3.83,8-7.87,6a2.19,2.19,0,0,0-.16.58c0,5.24,0,10.49,0,15.73a1.55,1.55,0,0,0,.53,1.05,4.53,4.53,0,0,1,1.87,3.89c0,.54.06,1.08.11,2a10.81,10.81,0,0,1,1.3-1.22c.48-.31,1.11-.77,1.53-.66s.67.88,1,1.43c-.7-.36-1.23-.88-1.67-.81-.8.11-2.06,2.33-2.07,3.21q-.06,13.41-.14,26.81c0,.81,0,1.61,0,2.52h6v-1.53c0-8.38,0-16.76,0-25.14,0-1.51.09-2.94-1.41-3.87a1.05,1.05,0,0,1-.5-.72,4.58,4.58,0,0,1,.16-2.39c.56-.86,1.32-1.92,2.62-1.71,1.08.17,2.11.58,2.37,1.85.35,1.78-.05,2.78-1.37,3.54-.36.21-.75.39-.92.47v29.85l14.47.19c1.71,0,3.43,0,5.13.11,5,.33,10.07.71,15.31,1.09V571.59c-.34,0-.71-.08-1.09-.08-8.85,0-17.7,0-26.56-.08a16.87,16.87,0,0,1-3.93-.89c-.17,0-.26-.37-.58-.84,10.93-.56,21.6-.09,32.52-.36V534.13a3.38,3.38,0,0,1-3.93-2.08c-.88-1.84-.9-2.6.48-4,.67-.7,3.83-1.38,4.51-.83,1.13.93,2.39,2.1,2,3.65s-.09,3-.09,4.46q0,29.85,0,59.7a11.68,11.68,0,0,1-.42,1.85c-.13.81.16,1.31,1.07,1.3l6.43-.08c.33,0,.65-.06,1.05-.09V571.55h-6.49v-2.17h6.51c.26-10,.52-19.82.78-29.74-.29-.09-.62-.16-.93-.29A2.84,2.84,0,0,1,276.1,536c.44-1.18,1.6-1,2.54-.89A12.2,12.2,0,0,1,281,536a2.55,2.55,0,0,1,4.1.36,2.61,2.61,0,0,1,.43,2.21,2.54,2.54,0,0,1-1.87,1.17,13.63,13.63,0,0,1-3.32-.5,8,8,0,0,0-.61,2.31q-.06,27,0,54c0,2.38.13,2.52,2.54,2.52h16.63q13.08,0,26.17,0c1,0,2.28-.53,2.78-.08s.55,1.87.77,2.86A.72.72,0,0,1,328.54,601.08ZM236,486.88l42.83.4.16.64c-.31.15-.61.44-.91.43-1.24,0-2.49-.16-3.73-.17q-17.79-.15-35.57-.26a6.9,6.9,0,0,0-.81.06,49.3,49.3,0,0,1,.47,6.06,80.92,80.92,0,0,1-1,10.08c-.43,2.49-.7,5.16-2.65,7.12a2.62,2.62,0,0,1-1,.65c-1.05.34-2.13.59-3.19.91s-1.84.68-1.83,2a3.42,3.42,0,0,0,1.85,3.36c.7.28,1.35.68,1.08,1.44a2.11,2.11,0,0,1-1.35,1c-1.21.32-1.94.87-1.72,2.28h7.48c-2.29-.57-4.47.32-6.33-1,14,.23,27.92.88,41.64.42.42-2.39.8-4.53,1.16-6.67a7.34,7.34,0,0,0,.1-1.15c0-1.86,0-2-1.93-2a3.77,3.77,0,0,1-3.56-1.94c-1.25-2.46-2.63-4.94-2.71-7.81-.11-4.24-.13-8.49-.18-12.73a9.67,9.67,0,0,1,.1-1.07l.37,0c.06,2.72.08,5.44.18,8.16.08,2.35-.39,4.73.76,7a30.06,30.06,0,0,1,1.47,4.35c.79,2.45,1.82,3.24,4.41,3.4.47,0,.95,0,1.41.1,1.22.19,1.94.82,1.82,2.16-.16,1.79-.2,3.6-.49,5.36-.5,3.11-.49,3.13,2.69,3.22,1.31,0,1.65-.38,1.64-1.69,0-8.72.08-17.44,0-26.16,0-2.86.22-5.5,2.95-7.21-1.6-1.43-2.62-2.92-2.57-5,0-1.84-1-3.44-.74-5.47.46-3.3.13-6.69.26-10s-.4-6.63.44-9.75l2.87-1.82a9.3,9.3,0,0,1-2.72-1.11,8,8,0,0,1-2.89-5,56.06,56.06,0,0,0-2.29-10,6.22,6.22,0,0,0-4.34-4.65,26.84,26.84,0,0,0-10.39-1,10.44,10.44,0,0,1-1.93.09,6.7,6.7,0,0,1-1.45-.49,58.94,58.94,0,0,1,6.31-.72,4.3,4.3,0,0,0,1.24-.58l3.77.43V416.79L251,416.1V433c2,.11,2,.11,2.18,2a8.86,8.86,0,0,1-1.76.29c-2.65-.1-4.33,1.4-5.66,3.42A12.34,12.34,0,0,0,244,442c-.64,2.25-1.06,4.57-1.49,6.88s-.58,4.45-2.69,6c1.62-.23,1.62-.23,1.85,1.39l-3,.47a2.51,2.51,0,0,0-.07.45c.1,6.78.24,13.56.28,20.35,0,1.5.55,3.2-1,4.42-.12.1-.1.41-.08.62A4.63,4.63,0,0,1,236,486.88Zm-128.56-1.09-.34.17-.45-1-.32.22v7.56c-6.28,0-12.45,0-18.63,0a11.17,11.17,0,0,1-2.38-.53l.06-.57h20.22v-8H76.19v10h7.45v-2.21c-1.44,0-2.81.07-4.17,0-1-.07-2.17-.16-2.17-1.66v-4.2c1.09,0,1.91.06,2.71,0,1.08-.11,1.5.4,1.52,1.38s0,2,0,2.84l2.3.76v-6h.39c.45,3.37.09,6.76.23,10.23H78.83c-3.32,0-3.32,0-3.32-3.31v-7.74H42.83v9.92c-1.54-3.17-.45-6.56-.82-9.93H17.46V497c.5,0,.92.08,1.34.08q34.75,0,69.49,0a21.08,21.08,0,0,1,4.63.19,8.51,8.51,0,0,0,1.88,0,6,6,0,0,0,1.42.73c2.45.43,4.9.85,7.35,1.18q6.63.9,13.25,1.69c3.28.38,6.57.67,9.86,1,1.5.14,3,.22,4.5.34l4.46.36.11-.34c-10.21-3.54-19.19-9.37-28.52-14.55l.18-.36,3.59,1.49c.14-5.35-.21-10.69.33-16l.52,0,.37,2.09,1.56-.19v-4.55l-.34-.23-2,2.13a1.74,1.74,0,0,1,.2-2.52c1-1,3.54-1.24,4.55-.41a2.71,2.71,0,0,1,.61,3.66c-.53-2.89-.53-2.89-2.44-2.71l.33,4.54c.91.31,2.26-.54,2.56,1.53l.26-2H118c.81,5.91.34,11.87.22,17.83-1.78-2.24-.4-4.92-1.11-7.4l-2.5.12c0,2,0,3.9,0,5.83,0,.31.39.71.7.91,1.78,1.1,3.6,2.15,5.39,3.23a14.34,14.34,0,0,0,8.39,2.4c1.59-.09,3.18,0,4.77,0h8.59c-.09-1.28-.21-2.45-.23-3.62,0-1,.09-2,.1-3.05q.09-11.79.16-23.59V465H29.8v4.27c1.67-.82,3.19-1.59,4.72-2.32a4.63,4.63,0,0,1,1.85-.63c3.56.12,7.13.19,10.67.57a16.82,16.82,0,0,1,5.74,1.56,87.6,87.6,0,0,1,7.72,4.86,5.4,5.4,0,0,1,.88,1l-.36.4c-2.56-1.7-5.1-3.45-7.71-5.07a8.79,8.79,0,0,0-3.14-1.24c-2.83-.45-5.69-.72-8.55-1-1.61-.17-3.24-.22-4.86-.32,2.76,1.74,5.63,3.09,8.35,4.7s5.49,3.66,8.3,5.39c2,1.23,4.1,2.3,6.2,3.37.57.29,1.42.17,1.25,1.3a3,3,0,0,1-.82-.17,75.89,75.89,0,0,1-7-3.85,159.68,159.68,0,0,0-14.76-8.86c-1.74-.94-3.32-1.42-5.09-.15a17.85,17.85,0,0,1-2.2,1.06c-1.83,1-3.64,1.94-5.47,2.92a.77.77,0,0,0,.58.27l9.27-.2c.72,0,1.65-.2,1.74.81.23,2.61.32,5.23.47,7.84l-.56.09a10.81,10.81,0,0,1-.49-2c-.07-1.32-.05-2.66,0-4,0-.73-.18-1.13-1-1.13-2.4,0-4.81,0-7.22,0a5.91,5.91,0,0,0-1.07.2,1.17,1.17,0,0,0,.91.41c1.11,0,2.23,0,3.35,0s1.77.2,1.66,1.44c-.91.31-1.21,3.31-.59,6H91.32l.09-.32L83.7,478.7l.47,2.43c-1.89-1.76-1.39-4.08-1.6-6.23s-.41-4.47-.61-6.64c-2.15,0-4.29,0-6.43,0-1.08,0-1.71-.38-1.74-1.69,1.86,0,3.69,0,5.52,0,3.69-.07,3-.38,3.81,2.77a1.68,1.68,0,0,0,.18.28,3.11,3.11,0,0,1,3.19,2.25c.75,1.94,1.21,4,1.83,6a3.3,3.3,0,0,0,.71,1.52c1.39,1.21,3.61,1.17,4.62,3,0,.1.33.09.49.09h4.17V465.88l.53,0c1,5.44.28,11,.6,16.52h1.42c-.86-3.12-.2-6.17-.41-9.21l.36,0,.63,1.93,2.3-.41v-2.27l-1.6.2c-.72-1.23-.56-1.59.82-1.62.9,0,1.8.14,2.7.16,1.28,0,1.67.74,1.67,1.92,0,3,.06,5.92.09,8.87C107.43,483.21,107.42,484.5,107.42,485.79Zm26,111.62c.67,0,1.17.07,1.68.07,4.86,0,9.71,0,14.57,0,1.19,0,1.52-.34,1.52-1.52,0-11.32,0-22.64,0-34l0-48.71c0-.41-.05-.82-.08-1.37-4.49,0-8.87,0-13.24,0a20.25,20.25,0,0,1-3.08-.57,5.32,5.32,0,0,0-1.5,3.67c.1,26,.07,52,.08,78Zm-27.95-184.1v45.28a1.9,1.9,0,0,1-1.29-1.88q.12-20.82.17-41.64c0-.55,0-1.1,0-1.78H96.07V459H141.6a18.43,18.43,0,0,0-10.55-2.51c-1,.07-1.71-.07-1.71-1.42,0-12.72,0-25.44,0-38.16,0-2-.16-2.12-2-1.82v41.38l-.49.18a5.91,5.91,0,0,1-.76-1.9c0-5.93,0-11.86,0-17.79q0-10.57.05-21.15c0-.58.17-1.24-.76-1.32-1.36-.11-2.71-.27-4-.4v41.43a4.08,4.08,0,0,1-.69-.33c-.88-.67-.57-1.63-.56-2.5q0-17.73.1-35.45v-3.3ZM143,459.43l-.09.33a6.55,6.55,0,0,1-1.41.33q-24.12,0-48.25,0H64.34l-18.69,0c-.67,0-1.4.09-1.41-1h1.58q13.86,0,27.72,0c1,0,1.41-.28,1.41-1.38,0-14.9,0-29.8,0-44.88l-7.46.34c.08.84.2,1.51.2,2.18q.1,18.76.19,37.52c0,.47,0,.94,0,1.42,0,.75-.37.81-1,.72a21.41,21.41,0,0,0-3.63-.38c-3.41.11-6.81.33-10.21.54-.76.05-1.23-.16-1.41-.92-.24-1.05-.84-1-1.62-.56a21.87,21.87,0,0,1-3.7,1.75c-4.22,1.25-8.48,2.34-12.72,3.53-.34.09-.61.45-.91.69a3.27,3.27,0,0,0,1.08.41c1.54,0,3.09-.12,4.62-.26,1.08-.1,1.63.24,1.48,1.41H29.39l.34,2.18h8.65q51.31,0,102.62,0c.78,0,1.26-.14,1.53-1a14.08,14.08,0,0,1,1-2l2.26.54.11-.34Zm-64.2-81.69V354.32l.44,0a40.75,40.75,0,0,1,.55,4.64c.1,5.75.07,11.51.13,17.27,0,.82.36,1.64.38,2.46.06,1.94,0,3.88,0,5.89h20.63v-5.85c-2-.39-4.07.41-5.87-.57l0-.48,2.31-.18V352.67H94.51c.45,10.27.12,20.47-.05,30.71a3.79,3.79,0,0,1-.88-2.14c0-7.6,0-15.21.09-22.81,0-1.88,0-3.76,0-5.62-3.66-.51-18.67.41-22,1.34a6.2,6.2,0,0,0-.06.62c-.11,7.22-.28,14.43-.26,21.65,0,1.57.09,2.77-1.84,2.95-.07,0-.12.12-.34.37l.95,5.33-4.23.65v10.46h7.81v-9.7l-2.27-1.56.2-.4h8V379c-2.33-.6-4.75.5-6.74-.81a3,3,0,0,0,.42-1.25q0-6.12,0-12.24v-1.33l.36-.06.81,1.4h1.83v-4.61l-.29-.26c-.56.55-1.14,1.09-1.67,1.67s-.75,1.11-1.57.25a12.24,12.24,0,0,1,1.72-2.49,2.52,2.52,0,0,1,2.06-.55c1.23.4,1.66,1.54,1.75,3.05L76.89,360v4.69l.36-.19c.35.32.7.63,1,1,0,0-.06.21-.1.32l-1.19.17c0,1.65,0,3.24,0,4.82,0,.26.27.53.46.76a6.37,6.37,0,0,0,.59.57c-.19.17-.4.32-.58.51s-.46.4-.46.61c0,1.49,0,3,0,4.54Zm91,125.17.16-.39-16.82-9.68-.11,1.43-.35.09a6.37,6.37,0,0,1-.43-1.56c0-2.1,0-4.2,0-6.31,0-1.19.2-2.41-.89-3.33-.18-.15-.09-.63-.09-1,0-3.09,0-6.17.05-9.26v-2.07c-1.47,0-2.8-.06-4.12,0-1.13.07-1.5-.46-1.53-1.47,2.93-.55,5-.35,5.75.8,0-2.58,0-4.89,0-7.19,0-.28-.49-.74-.79-.77-2-.19-3.92-.31-5.88-.38-.23,0-.65.45-.7.74a26.83,26.83,0,0,0-.38,3.88c0,8.21.12,16.42.16,24.62a3.86,3.86,0,0,1-.48,1.28l-.28-.05.64,5.64H128.47c2,1.14,4.13,1.84,6.07,2.89a12.49,12.49,0,0,0,6.3,1.2q10.69-.1,21.4,0c1.27,0,2.82-.84,3.81.78,0,.07.24.05.37.05Zm74.8-218.76a.44.44,0,0,0-.11.21,10.69,10.69,0,0,1-2.47,6.31,1,1,0,0,0,.15.93c1,.87,2.12,1.6,3.09,2.5a15.12,15.12,0,0,1,2.88,3.17,39.57,39.57,0,0,1,1.72,4.53,22.39,22.39,0,0,1,1.67,8.88q0,3.22-.22,6.44c-.19,2.86-.5,5.71-.73,8.57-.12,1.43-.18,2.86-.28,4.41h5.7c.83-15.37,1.65-30.55,2.48-46ZM121.76,396.53V385.65l-3,.86c0,1.45.06,2.95,0,4.44-.07,1.23.41,1.51,1.62,1.15V387h.39v6.46c-.42,0-1-.12-1.51-.13-3.48-.1-6.95-.21-10.43-.24-1.17,0-1.74-.32-1.66-1.63.11-1.66,0-3.33,0-5h-1.7v11.16c-2.58-.13-5.06-.21-7.54-.39-1.09-.09-2.41.62-3.19-.79,0-.09-.33-.07-.5-.08-3.34-.14-6.69-.31-10-.4-2.36-.06-4.72,0-7.11,0l-.39-1.33H94.91v-8.12c-1-.33-1,.1-1,.94.2,1.9.26,3.82.39,5.85-6-.37-11.81.07-17.27-.32a65.51,65.51,0,0,0,.21-6.62l-2.81-.15c.15,4,.3,7.73.46,11.64-3.17-.71-6.49.25-10-.34s-7.24.14-10.92.29c-.68,2.17-3,2.67-4.79,4.26a18.59,18.59,0,0,0,2,.1c2.74-.19,5.49-.3,8.21-.66,5.45-.72,11-.16,16.41-1.28,1.94-.4,4-.05,6-.22,9.19-.81,18.37-.41,27.56-.07,6.8.25,13.59.66,20.68,1a4.15,4.15,0,0,1-2.47-4.39,6.3,6.3,0,0,0,0-1.68,7.21,7.21,0,0,0-.62-1.4l-.44.17v4.81c-1.92-.34-3.69-.79-5.48-.93-4.49-.34-9-.59-13.49-.79a1.53,1.53,0,0,1-1.62-1.43c.16-.06.27-.15.38-.14,4.55.21,9.09.4,13.63.67A5.49,5.49,0,0,1,121.76,396.53ZM69.43,511.8v86a23.5,23.5,0,0,1,2.65,0c1.24.13,1.57-.34,1.57-1.57q.07-41.62.22-83.25a11.28,11.28,0,0,0-.08-1.21Zm263.39-16a27.44,27.44,0,0,0-2.29-3.58,10.16,10.16,0,0,0-2.64-1.82c-.74-.42-1.58-.67-2.34-1.07a11.3,11.3,0,0,0-8.7-.67c-3.76,1.13-5.37,4.64-8.13,7.21l1.38.07c.82,0,2-.31,2.38.11s.49,1.65.71,2.52c0,.05.09.08.17.15.13-.34.23-.66.38-1s.32-.56.49-.84l.28.14c-1,1.4-.27,3.43-1.69,4.68-.07-1.47-.09-2.86-.24-4.22a1.27,1.27,0,0,0-.8-.89,29.38,29.38,0,0,0-3.1,0c-.27,2.57-.52,5-.78,7.59h25.16a8.76,8.76,0,0,1-.26-1.39c0-1.58-.07-3.17,0-4.75,0-.92-.13-1.45-1.2-1.51a18.38,18.38,0,0,1-2.61-.48l.05-.24ZM94.71,413.09H76.34V459H94.71Zm5.36-76.52a24,24,0,0,1-1.57-3.71c-.39-1.56-.3-3.25-.64-4.83-.77-3.63-1.66-7.24-2.54-10.85a2.11,2.11,0,0,0-2.52-1.8,20.21,20.21,0,0,1-3.73,0,2.32,2.32,0,0,0-2.68,1.32c-1.23,2.63-2.72,5.16-3.69,7.87A72,72,0,0,0,81,332c-.37,1.51-.92,3-1.44,4.62ZM129.74,414c.38-.28,1-.73,1.63-1.24s.56-1.18-.28-1.38a39.55,39.55,0,0,0-5.13-1.05c-8.11-.75-16.22-1.62-24.35-2-7.93-.39-15.89-.43-23.83-.31-6.47.1-13,.57-19.4,1.08a80.38,80.38,0,0,0-9,1.51c-.44.09-1.07.73-1,1.09s.6.93,1,1.15c2.26,1.05,4.63.87,7,.52a113.48,113.48,0,0,1,18.31-1.52c12.23.16,24.47.32,36.7.58,4,.09,8,.43,11.94.75C125.4,413.33,127.38,413.69,129.74,414Zm46,88.9c0-3.19,0-6.23-.05-9.26,0-.3-.7-.76-1.13-.84-1.18-.22-2.4-.28-3.6-.41,3.21-.47,6.41-1.34,9.61.32.15-.94.33-1.69.37-2.44a1,1,0,0,0-.54-.76c-2.77-.57-5.54-1.09-8.32-1.58-4.34-.76-8.68-1.47-13-2.22-2-.35-4-.72-6.07-1.1,0,2.51,0,4.74,0,7a1.33,1.33,0,0,0,.64.92c1.59.85,3.27,1.54,4.82,2.43,3.52,2,7,4.13,10.45,6.24a11.07,11.07,0,0,1,1.61,1.46c.09.24.34.26.6.26ZM129.1,404.6c-25.18-1.5-50.48-.76-75.78.19v3.72c25.12-3,50.13-2.18,75,.81ZM86.18,597.54V537.15l-4,2.15v58.24Zm15.34-.27v-2.22q.09-38.59.16-77.19c0-2.69.67-5.52-1.44-8l-1.71-.11a27.52,27.52,0,0,1,.58,3.4c.1,2.57.09,5.15.09,7.73q0,37.44-.07,74.87v1.52Zm-6.58,0V509.4L92.53,509v88.3ZM74.67,540.94v56.63h3q.3-28.19.6-55.9ZM258.89,331.4q-1.51,27.11-3,54.08h5.26c-.18-18.15-.36-36.19-.55-54.35ZM96,509.47v87.81h2.19v-2q.07-40.92.13-81.83a8.2,8.2,0,0,0-.16-2.05C97.85,510.36,97.55,509.2,96,509.47ZM265.44,415.7c-2.27-1.83-2.06-4.18-1.94-6.56a25.89,25.89,0,0,0-.09-5.5,16.45,16.45,0,0,0-1.71-3.82c-.94.5-2.26-.56-3.17,1l-.92,0c-3.11.21-4.31.68-4.93,4.46-.54,3.28-.8,6.68-2.67,9.92ZM107.56,337.32l.22-.27c-1.34-1.3-1.44-2.94-1.54-4.63-.19-3.6-.5-7.22-2.23-10.46a10.41,10.41,0,0,0-4.73-5,5.73,5.73,0,0,1-1.54-1,2.69,2.69,0,0,0-2.53-.51A53.69,53.69,0,0,1,98.66,330a11.11,11.11,0,0,0,.78,3.86c.52,1.13,1.39,2.55,2.42,2.89C103.63,337.32,105.65,337.17,107.56,337.32Zm68.8,165.53,13,3.48v-9.25l-13-4.05ZM51.71,403.17l-.17.42a4.33,4.33,0,0,0,1,.33,9.29,9.29,0,0,0,1.28-.09c7.89-.3,15.79-.75,23.68-.86,11.6-.15,23.19-.13,34.79,0,5.66.05,11.32.46,17,.68.78,0,1.73.38,2.29-.95-18.8-1.51-37.51-1.9-56.27-1.63l-.1,1.06Zm45.07-93.53c.16-3.65.32-7.14.49-10.9l-12.64-.62a14,14,0,0,1,.82,11.52ZM86.22,315.5a1.71,1.71,0,0,0-2,.74A56.57,56.57,0,0,1,80,321.18a20.34,20.34,0,0,0-5.5,8.39c-.58,1.74-1.11,3.49-1.79,5.18-.58,1.42-.23,2.11,1.32,2.08,1.2,0,2.4-.19,3.6-.2a1.22,1.22,0,0,0,1.38-1c.84-3.09,1.9-6.14,2.56-9.26A29.58,29.58,0,0,1,86.22,315.5ZM61.77,385.69H54.09v10.5l10.72-.52v-9H63.2v6h-.31v-6.05l-2,.25v5.6l-.35,0V386.9l-3.35.38v5.82l-.34,0c-.55-1.85,0-3.82-.29-5.49l-1.32-.88.12-.28Zm42.67,10.58v-9.9H95.88v9.9Zm158.18,2.53a20.92,20.92,0,0,1-.32-2.35c-.07-2.78-.06-5.56-.17-8.35,0-.4-.5-1.13-.78-1.14-2.3-.1-4.6,0-6.84,0V398.8Zm-45.79,67c-.36.76-.73,1.52-1.09,2.27a5.51,5.51,0,0,0-.53,1,6.49,6.49,0,0,0,2.85,6.43,2.78,2.78,0,0,0,3.25,0,4.68,4.68,0,0,0,2.16-3.19,4,4,0,0,1,2.59-3.65,4.36,4.36,0,0,0,1.05-.84l-.23-.36L224,468.74c-2-1.62.45-2.6.25-4.09l-2.47,3c-2-2.23-.5-4.22-.33-6.17l-.34-.19-3.67,5.09ZM17.44,482.42h9.15c0-1.7-.09-3.33,0-4.94s0-3.25-1.87-4.24l-7.3,3.54Zm151.8,99.8,0-.48h5.41a3.69,3.69,0,0,0-.14-.77c-2-.18-4-.33-6-.49V597h1.57l-.86-1h5.27v-1.53c-1.56-.55-3.32.32-4.64-.94,1.26-.2,2.5-.15,3.73-.23.35,0,.95-.38,1-.62.1-1.18,0-2.38,0-3.71-1.09,0-2,0-3,0-2.21,0-2.19.13-2.35-1h5.25l.2-.39c-.35-.21-.69-.58-1.05-.61-1.29-.08-2.58,0-3.86-.09-.4,0-.78-.38-1.18-.59l.17-.41h5.83l-.11-1.19c-1.77-.47-3.67.32-5.22-.94a11,11,0,0,1,2.78-.28c.85,0,1.71-.09,2.56-.13l0-.49C172.94,582.23,170.92,583.2,169.24,582.22ZM66.37,440.4V426.34l-3.78.49v13.4Zm289,134.54c1.77.57,3.66,1.08,5.49,1.78s3.58,1.54,5.43,2.36v-6.79c-.23,0-.4-.07-.57-.08-3-.16-5.89-.33-8.84-.44-.69,0-1.18.28-1.15,1.17A10.06,10.06,0,0,1,355.38,574.94Zm-289-133.56H62.61v12.28h3.77ZM324.2,487.17c0-2.65,0-5.34,0-8a1,1,0,0,0-.67-.66c-1.82,0-3.63.11-5.57.18v8.12Zm-2.79-19.67c-1,1.22-2.24,2.66-3.47,4.09-.5.58-.86,1.15,0,1.72a4,4,0,0,1,1.79,3.75h3.78c-.16-.26-.23-.39-.32-.52-1-1.56-.8-2.24.86-3.1a8,8,0,0,0,1.61-1.24c.75-.69.62-1.26-.25-1.84C324,469.41,322.59,468.36,321.41,467.5ZM126,386.72h.53v6l.59.2c.21-.31.6-.61.61-.92.06-2,0-4.08,0-6.16h-5.31c.15,3.62.3,7.18.45,10.78h2.75C126,393.28,125.37,390,126,386.72ZM99,311H84.39c-.86,0-1.06.59-1,1.33s0,1.6,1.18,1.6c4.5,0,9,0,13.57,0Zm61.67,213.93a2,2,0,0,1,0-.57c.27-1.39-.41-1.66-1.64-1.6-1.71.08-3.43,0-5.14,0a10.21,10.21,0,0,1-1.84-.43v6.21h8.5v-2.24c-2.16,0-4.22,0-6.27,0-1,0-1.57-.42-1.79-1.51C155.27,524.83,158,524.49,160.71,524.91Zm13.91,13.51v-6.51c-1.07,0-2.05,0-3,0-2.19,0-2.19-.06-2.64-1,1.66,0,3.24,0,4.82,0,.92,0,1.17-.25.67-1.24h-5.91v3.69c1.63,0,3.17,0,4.71,0,.36,0,.7.38,1,.59l-.19.36h-5.56c-.26.86,0,1.17.84,1.13a31.19,31.19,0,0,1,3.35,0c.35,0,.67.39,1,.6l-.17.38h-5v2Zm40.6-9.51a2.91,2.91,0,0,0-.53-.83c-1.11-1-2.33-1.84-3.93-1.27a4.36,4.36,0,0,0-3,4c-.08,1.13.48,1.57,1.66,1.47a2,2,0,0,1,.86.17C212.31,533.34,215.28,531.37,215.22,528.91Zm-63,22.87h8.34v-2.13c-2.17,0-4.22,0-6.27,0a12.32,12.32,0,0,1-2.22-.45v5.67c2.34,0,4.6,0,6.87,0a7.4,7.4,0,0,1,1.75.5l-.1-2.2c-2.32,0-4.55,0-6.77,0C152.88,553.21,152.44,552.79,152.22,551.78Zm16.29,1.51h6.1v-6.53h-6.05v4.35c1.58,0,3,0,4.49,0,.39,0,.77.37,1.15.56l-.17.2h-5.52Zm6,4.8c.29-1,.07-1.35-.85-1.33-1.7,0-3.4,0-5.14,0v6.33h6.14l-.11-1.43h-3c-2,0-2,0-2.26-1h5.24v-1.6c-1.57,0-3.06,0-4.55,0a4,4,0,0,1-1.28-.56l.18-.4Zm-14,14.73V571c-2.26,0-4.45-.05-6.63,0-1,0-1.45-.44-1.63-1.5H161c-.4-.59-.6-1.18-.82-1.18-2.69-.06-5.37,0-8.1,0v4.56Zm8,.14c1.69,0,3.26,0,4.84,0,.38,0,.75.36,1.12.56l-.17.4h-5.75v1.53h6v-6.16h-6.06Zm92-270.27h-.27c-.45,9.07-.9,18.15-1.36,27.34l1.63-.21ZM169,543.9l.15-.56h5.43V539.5h-6.11v1.3c1.67,0,3.29,0,4.91,0a3.34,3.34,0,0,1,1.13.54l-.16.38h-5.88v4h6.08c.27-.92,0-1.3-.88-1.27-1.16,0-2.32,0-3.48,0A4,4,0,0,1,169,543.9Zm-16.72,34.27c2.46,0,4.8,0,7.15,0a3.4,3.4,0,0,0,1.13-.47c-.39-.18-.77-.52-1.16-.53-2.46,0-4.92,0-7.37,0v4.43h8.45v-1.89c-2.21,0-4.3,0-6.39,0C153.15,579.71,152.6,579.35,152.32,578.17ZM56.85,547.51c.53,0,.92.12,1.12,0a8,8,0,0,0,2.12-1.82,2,2,0,0,0-.34-1.8,3.5,3.5,0,0,0-5-.18,2.22,2.22,0,0,0-.69,2.53c.14.47,1,.81,1.54,1.07A4.76,4.76,0,0,0,56.85,547.51Zm210.51-131.8a16.59,16.59,0,0,1-1.12-3.15c-.42-3.05-.65-6.13-1-9.19a2.67,2.67,0,0,0-2.39-2.5,11.07,11.07,0,0,1,1,2.9c.16,2.56.14,5.13.06,7.69C263.88,413.68,265.61,415.88,267.36,415.71ZM83.18,471.07a30.21,30.21,0,0,0,0,3.43c.1.95.19,2.18.79,2.73a12.9,12.9,0,0,0,3.38,1.62l.36-.25c-.5-1.88-.95-3.78-1.52-5.64A2.5,2.5,0,0,0,83.18,471.07Zm91.48,45.7h-6.33l.08,1.6c1.72,0,3.3,0,4.88,0,.38,0,.74.39,1.12.6l-.19.42c-1.94-.1-3.91.3-5.82-.44v2h6.26ZM112,475.28c0,.56,0,1,0,1.41.06,3.77.19,7.53.14,11.3,0,1.26.52,1.81,1.8,2.33-.64-2.44,1-5.05-1.72-6.93l1.52-.43v-6.35Zm257.24,67.29c-2.41-.06-3.48,1-4.06,2.85-.43,1.37-.14,2.1,1.31,2.1a4.11,4.11,0,0,0,3.91-2.41C371.43,543.17,371.07,542.57,369.28,542.57ZM152.74,595.73l0-.4h7.76v-1.48h-7.58v-.24l1.47-.08v0h-2.34v4c2.71,0,5.36,0,8,0,.18,0,.36-.31.68-.6C158,596.2,155.15,597.22,152.74,595.73Zm-.65-63.44h8.52v-2.35c-1.91,0-3.75.06-5.58,0a24.56,24.56,0,0,1-2.94-.52ZM88,296.57l8.94.77a10.7,10.7,0,0,0-.69-1.93,1.73,1.73,0,0,0-1.09-.85c-2.34-.08-4.68,0-7,0ZM332.49,479.48l-2.93,4c1.81.88,1.52,2.68,1.54,4.38h1.35c.17-2.46.22-2.43,1.49-4.57a2.31,2.31,0,0,0,0-1.86A10,10,0,0,0,332.49,479.48Zm-180.42,62.6c2.41,0,4.71,0,7,0a8.36,8.36,0,0,1,1.62.37l-.12-2.43c-2.25,0-4.34,0-6.43,0a12.6,12.6,0,0,1-2.09-.37Zm16.36-13.43h6.2v-1.36c-1.9-.62-4,.43-5.77-.78l0-.45h5.82l-.12-1.16c-2.09-.37-4.17.37-6.18-.62Zm-53.69-52.38V483l2.54-.19v-6.65Zm91,57.83,1,.19c0-.35.13-.78,0-1-.93-1.54-2.47-1-3.83-1s-1.31,1.17-1.52,2.06c-.28,1.21.14,1.8,1.39,2.14a1.88,1.88,0,0,0,2.54-1.16C205.4,534.91,205.58,534.52,205.75,534.1ZM31.3,482.44v-5.77H28.88v5.42c-1.56-1.17-.57-2.83-1.34-4v4.38Zm129.29,53.73v-2.31c-1.79,0-3.45,0-5.11,0-1.2,0-2.46.15-3.37-1.1v2.88c2.33,0,4.56,0,6.78,0A6.11,6.11,0,0,1,160.59,536.17Zm0,22.7c-2.08,0-4,0-5.93,0a22.86,22.86,0,0,1-2.64-.36v2.23c2.23,0,4.41,0,6.58,0a11.87,11.87,0,0,1,2,.39ZM267,528.34a13.37,13.37,0,0,1-1.42,0c-1.41-.18-1.95,1.08-2.65,1.83-.26.28.19,1.69.71,2.11a5.34,5.34,0,0,0,2.54.71c.24,0,.76-.48.78-.76C267.08,531,267,529.76,267,528.34ZM57.24,597.93l.25-.1v-48.7l-1.12-.08a17.84,17.84,0,0,1,.44,2.56c.1,4.51.19,9,.2,13.53,0,10.53,0,21.06.06,31.59A8.25,8.25,0,0,0,57.24,597.93ZM103.82,476.6l-2.44-1.24v7h2.44ZM82.92,392v-5.63H80.28V392Zm21.81,84.37v6h1.57v-9.87h-1.66v2.06l1.21.36.08,1.21Zm47.34,87.56h8.48v-1.83h-8.48Zm0,28.56h8.51l-.08-1.42h-7.89v-.25h6v-.13h-6.52ZM100.74,364.82v7h2v-6.46Zm-41.61,57.7L62,425v-4l.36,0,.28,3.48.34.11c.52-.93,1.52-1.91,1.41-2.76a2.27,2.27,0,0,0-2.49-1.58A2.8,2.8,0,0,0,59.13,422.52ZM116.45,392V386.4h-2.29V392Zm44.17,153.19v-1.69h-8.56v1.69Zm7.94,34.52h6V576.6h-6ZM200,565.14c0-1.34-.5-1.82-2-1.83s-2.05.59-2.06,2.26c0,1.09.69,1.65,2.1,1.7C199.29,567.31,200,566.55,200,565.14Zm-39.45-18.49H152l.07,1.54h8.5Zm-8.52,20.21h8.62l-.08-1.47h-8.54ZM90.77,386.41H88.55v5.49H91ZM205.52,527a2.56,2.56,0,0,0-2.54,2.51c0,1.08.65,1.26,1.52,1.26,1.58,0,3-1.13,2.94-2.44S206.27,527.08,205.52,527Zm23.58,8.32-6.34,5.87A5.51,5.51,0,0,0,229.1,535.34Zm4.09,28.07c0-.72-.67-1.25-1.71-1.32a2.66,2.66,0,0,0-2.64,2,1.84,1.84,0,0,0,1.71,1.73A2.66,2.66,0,0,0,233.19,563.41Zm-79.56-7.52h-1.56v1.62c2.27,0,4.46,0,6.64,0a7.37,7.37,0,0,1,1.95.66l-.1-2h-7.63V556ZM76.44,371.43v-3.71c0-2,0-2-1.93-2.11v6ZM160.58,574.3c-1.9,0-3.65.05-5.4,0-1.05,0-2.1-.3-3.13-.45v1.77c2.9.24,5.78-.25,8.6.27Zm-8.52-35.77h8.61l-.09-1.42c-2.2,0-4.29,0-6.38,0a13.39,13.39,0,0,1-2.14-.41ZM85.73,386.34l.29,5.58h1.83v-5.58Zm66.32,198.9v1.85h8.45v-1.37C157.66,585.36,154.83,586.05,152.05,585.24ZM77.76,392h2v-5.6h-2Zm31.91-5.55h-2V392h2Zm50.86,202.09c-2.05,0-4,0-5.91,0a16.93,16.93,0,0,1-2.55-.41v1.66h8.46ZM93.28,386.38H91.34c.12,1.89.23,3.71.35,5.6h2.17ZM74.57,372.12v5.64h1.78v-5.08Zm35.71,14.27v5.52H112v-5.52Zm64.39,135.8H168.4v1.67h6.27Zm-6.12,41.91v1.72h6V564.1Zm6.1,4.21c0-.73.25-1.43-.81-1.42-1.74,0-3.48,0-5.25,0v1.42Zm-91.26-182L83.7,392l1.49-.08v-5.59ZM161,584.15c-.48-.51-.73-1-1-1-2.63-.06-5.27,0-7.88,0-.26.79,0,1.07.74,1.06C155.38,584.13,157.94,584.15,161,584.15ZM207.09,536c2.07.41,3-.14,3.36-1.93a3.53,3.53,0,0,1-3.34-3.12l-.75.68C207.67,533.52,207.74,534,207.09,536ZM80.59,489.92l.14-3-2.15-.12v-.18l1.25-.17-1.87-.1.41,3.53Zm87.94,65.78h6.18l-.14-1.35h-6ZM88.21,292.64l.14.27h5.11l-1.38-3.35a3.53,3.53,0,0,0-.31.19c-.81.93-.75,2.88-2.81,2.39C88.76,292.09,88.46,292.46,88.21,292.64ZM282.69,539.1c1.44-.26,2.65-1,2.31-1.59a2.81,2.81,0,0,0-1.85-1.15c-1.09-.19-2.22.71-1.95,1.46C281.4,538.35,282.17,538.68,282.69,539.1Zm50.2-45.21v-4.7c-1,.16-2.12-.38-2.69.81ZM278.7,538.52c1.06.12,1.76-.4,1.69-1.4s-1.11-1-1.9-1-1.73.19-1.69,1.24S277.87,538.47,278.7,538.52ZM118.2,386.31l-1,.07c0,1.72,0,3.3,0,4.88,0,.33.43.65.66,1l.35-.22Zm-5.66.05c0,1.74,0,3.36,0,5,0,.21.27.42.42.63.2-.2.57-.4.57-.61,0-1.66,0-3.32,0-5Z"></path> <path class="cls-5" d="M50.41,653.74a23.84,23.84,0,0,1,3.29-1.33,289.63,289.63,0,0,1,33-6.8,110.91,110.91,0,0,1,21.09-.58c1.09.07,2.16.32,3.5.52l-1.19-1.07c2.53.41,4.57-.81,6.64-1.59a55.45,55.45,0,0,1,14.13-3.69,50.85,50.85,0,0,1,18.38,1.09,61.62,61.62,0,0,0,21.2,1.76c5.39-.44,10.71-1.79,16-3A38,38,0,0,1,198.06,638c2.06.18,4,1.31,6,2,.19.07.3.37.33.78-1.05-.39-2.08-.86-3.16-1.16a18.22,18.22,0,0,0-4.09-.88,39.51,39.51,0,0,0-12.29,1.66,86.63,86.63,0,0,1-12.53,2.18A61.69,61.69,0,0,1,149.27,641c-7.35-1.93-14.63-1.74-22-.54a69.1,69.1,0,0,0-9.24,2.7c-2,.62-3.89,1.34-5.83,2a4.73,4.73,0,0,0-.64.36c3.82.69,7.49,1.21,11.09,2.06a163,163,0,0,0,26.08,3.69,79.38,79.38,0,0,0,25-2.5c9.52-2.39,19-4.8,28.62-6.94a97.52,97.52,0,0,1,21.37-2c4.47,0,8.95-.09,13.39.28,2.51.2,4.28-.69,6.25-1.93a25.18,25.18,0,0,1,8.76-3.9c3.36-.63,6.64-1.85,10-2.19a53.27,53.27,0,0,1,20,1.3,46.25,46.25,0,0,0,8.9,1.17c2.22.18,4.47-.07,6.7.07,4.13.25,8.09-.69,12.08-1.47a65.51,65.51,0,0,1,16-1.42,4,4,0,0,1,2.78,1.6c-.39.06-.54.13-.62.09-3.18-1.81-6.61-1-9.89-.67-4.29.43-8.53,1.31-12.79,2.07a62.07,62.07,0,0,1-16.67.24c-4.54-.41-9-1.7-13.52-2.31a58.78,58.78,0,0,0-8-.19,55.24,55.24,0,0,0-13.68,2.12,33,33,0,0,0-11.17,5,12.09,12.09,0,0,1-1.34.68c1.69.22,3.08.42,4.47.59,12.87,1.56,25.61,3.91,38.26,6.74a3.57,3.57,0,0,1,1.71,1.13c-6.72-1.37-13.41-2.85-20.14-4.07-5.86-1.07-11.78-1.79-17.65-2.77-9.93-1.67-19.94-1.54-29.93-1.23a92.76,92.76,0,0,0-19.84,2.86c-9.22,2.32-18.47,4.52-27.73,6.71a76.73,76.73,0,0,1-24.32,1.44,191.3,191.3,0,0,1-26.38-4.18,90,90,0,0,0-29.31-1.65c-6,.64-12,1.72-17.89,2.9-6.21,1.23-12.36,2.8-18.53,4.25a7.66,7.66,0,0,0-1.26.53Z"></path> <path class="cls-5" d="M130.09,212c-4.3,7.24-10.54,12.58-17.24,17.46-3.43,2.5-7.09,4.71-10.37,7.4A37.94,37.94,0,0,1,89.31,244c-4.33,1.3-8.81,2.12-13.23,3.1-3.92.87-7.87,1.65-11.79,2.52-1.26.27-2.46.75-3.71,1.07-3.35.86-6.32,2.58-9.42,4-3.59,1.69-6.13,4.62-9.2,6.91a8.72,8.72,0,0,1-.73.51c-.14.09-.31.12-.8,0A5.33,5.33,0,0,1,41,261a43.12,43.12,0,0,1,12.71-9.22A69.66,69.66,0,0,1,72,246.35a104.72,104.72,0,0,0,16.32-3.6C94,240.89,99,237.66,103.67,234c5.18-4,10.56-7.81,15.67-11.92A40.25,40.25,0,0,0,128.28,212Z"></path> <path class="cls-5" d="M.38,362.09c5.11-1.29,10.3-2.33,15.31-3.92a50.39,50.39,0,0,0,20.2-12,16.5,16.5,0,0,0,2.39-3,1.12,1.12,0,0,1,1.79-.44c6.54,4.08,14,5.33,21.34,6.88a51.07,51.07,0,0,0,6,.56c.15,1.15,0,1.36-1.07,1.27a85.21,85.21,0,0,1-17.89-3.8c-3-.93-5.76-2.36-8.74-3.61-.77.94-1.64,2.14-2.65,3.22-3.59,3.81-8,6.42-12.58,8.87-5.72,3.08-11.93,4.73-18.21,6.17L.38,363.64Z"></path> <path class="cls-5" d="M.38,267.71c3.88-.88,7.77-1.73,11.64-2.66,6.16-1.48,11.43-4.8,16.1-8.84,5-4.31,9.53-9.14,14.13-13.87a29.52,29.52,0,0,1,10.65-7.2,6,6,0,0,1,2.64-.16c.29,0,.53.61.8.94a7.41,7.41,0,0,1-1.14.47,13.86,13.86,0,0,0-3.16.69A35.34,35.34,0,0,0,43,243.93c-4.61,4.84-9.35,9.6-14.39,14a43.07,43.07,0,0,1-21.63,9.8c-2.2.37-4.37.85-6.55,1.29Z"></path> <path class="cls-5" d="M381,648.07c-7.51-1-15-2-22.54-3.08-9.33-1.34-18.67-2.49-28.08-3.2-6.29-.47-12.55-1.31-18.87-1-4.31.23-8.69.1-12.85,1.49-2.23.74-4.38,1.73-6.56,2.63-.91.37-1.79.82-2.71,1.18a3.41,3.41,0,0,1-1,.08l-.08-.34c1.07-.48,2.15-.93,3.2-1.46a33.75,33.75,0,0,1,15.65-4.06c2.53,0,5.06-.13,7.58-.28,5.18-.32,10.27.57,15.39,1s10.18.82,15.25,1.38c3.92.43,7.8,1.12,11.71,1.65,7.51,1,15,2,22.53,3,.47.06.93.14,1.4.21Z"></path> <path class="cls-5" d="M.38,279.83c4.88-1.3,9.77-2.53,14.63-3.92a39.28,39.28,0,0,0,10.13-5c2.92-1.87,5.89-3.67,8.84-5.52a1.18,1.18,0,0,1,1.61,0c.56.49.61.89-.07,1.3C30,270,24.81,273.9,18.8,276.3a81.58,81.58,0,0,1-8,2.53c-2.76.78-5.55,1.45-8.33,2.14-.7.18-1.43.27-2.14.41Z"></path> <path class="cls-5" d="M381,638.79,370.76,637c-4.1-.73-8.18-1.48-12.28-2.2a72.18,72.18,0,0,0-16.85-1.45,67.43,67.43,0,0,0-19.12,3.7c-1.48.54-2.84,1.4-4.27,2.08a10.27,10.27,0,0,1-1.33.42l-.18-.43a51,51,0,0,1,5.43-2.72,55.23,55.23,0,0,1,16.41-3.53c2.65-.13,5.32-.34,8-.21a85.84,85.84,0,0,1,9,1c6.17,1,12.32,2.06,18.48,3.12,2.32.4,4.63.84,6.94,1.25Z"></path> <path class="cls-5" d="M.38,642.66a80.45,80.45,0,0,1,15.49,1.2c3.64.55,7.34.69,11,1.14,4.5.56,9,1.24,13.46,1.91,2.83.43,5.68.84,8.47,1.45a49.59,49.59,0,0,1,5.62,1.8c.3.1.5.48.88.87a103.21,103.21,0,0,0-10.38-2.73c-7.1-1.13-14.25-1.93-21.38-2.83-4.55-.58-9.1-1.18-13.66-1.6-3.15-.3-6.33-.3-9.5-.44Z"></path> <path class="cls-5" d="M249.23,653.74c-4.39-1.07-8.67-2.63-13.28-2.6-5.37,0-10.74-.23-16.09.09-5.75.36-11.48,1.23-17.21,1.92a8,8,0,0,0-1.65.59h-3.09c3.19-.76,6.34-1.77,9.57-2.26,10.1-1.52,20.3-1.12,30.46-1a32.25,32.25,0,0,1,6.28,1.22c3.05.67,6.09,1.37,9.13,2.06Z"></path> <path class="cls-5" d="M381,620l-1.6.23V615l-.51,0c-.81,1.09-.11,2.51-.8,3.68V598.3l-2-.83.13-.49,4.79.29v1l-.85-.08V606c0,2.57,0,5.14,0,7.71,0,.6.09,1,.85.86v.26c-.27.26-.75.49-.78.78a24.24,24.24,0,0,0-.1,3.41c0,.16.57.3.88.45Zm-2.53-21.8v2.54c0,2.35,0,4.69.06,7,0,2,0,4,0,6,0,.27.33.54.51.82a2.39,2.39,0,0,0,.42-.78,18,18,0,0,0,0-1.8q0-6.4,0-12.83C379.51,598.54,379.57,597.82,378.47,598.16Z"></path> <path class="cls-5" d="M.38,480.2H14.59a8.87,8.87,0,0,0-1,.63,3.88,3.88,0,0,1-2.82.68l-10.43.23Z"></path> <path class="cls-5" d="M381,625.89a12.41,12.41,0,0,1-3-.38c-.49-.18-.73-1-1.09-1.59a4.1,4.1,0,0,1,1.32-.54,26,26,0,0,1,2.78.19Z"></path> <path class="cls-5" d="M219.37,454.7a3,3,0,0,1,.37-.87,10,10,0,0,0,1.67-2.12l1.5-.33c-10.38-1.59-20.76-.45-31.14-1l.85-.21a7.55,7.55,0,0,0-1.49-.12c-1,.08-1.29-.47-1.44-1.26-.25-1.36.11-1.81,1.52-1.79,3,.06,6.09.16,9.13.24.42,0,.84,0,1.07,0v-8.62c1.3-.33,2.76-.64,4.17-1.07A4.73,4.73,0,0,0,209,432.9c0-1.63-.29-3.26-.47-5.07l1.48,2.76a2.55,2.55,0,0,1,2-2.58c1.79-.72,2.52-3.07,2.07-5.51-2.79-.29-5.66.17-8.51-.38-.61,2.08.56,5.35,2.41,5.95l-.64,1.3c-2-2.71-3.14-5.43-2.72-8.42,3.07,0,6.24,0,9.41,0,1.07,0,1.65.22,1.58,1.41l-.9.22c0,1.2.07,2.4,0,3.59a3.93,3.93,0,0,1-2,3.23,7.62,7.62,0,0,1-1.85.42,33.32,33.32,0,0,0-.63,4c-.15,2.53.62,3.39,3.18,3.82-.2,1,.44,1.17,1.26,1.12.3,0,.6,0,.9,0,.91-.07,1.71,0,1.38,1.34h-14.7v7.37l14.55-.92c.09-2.19.17-4,.25-5.84.77.74,1.26,1.41.87,2.54a6,6,0,0,0,0,2.67c0,.23.64.49,1,.55,4,.65,8,1.23,12,1.92a1.67,1.67,0,0,1,1,1.06,7.87,7.87,0,0,1,0,2.07,12,12,0,0,1-5.35.19c-.88-.15-1.81-.35-2.4.64a.4.4,0,0,1-.2.16,4.25,4.25,0,0,0-2.66,2c-.2.33-1.28.15-1.95.2Zm-18.81-5.89v-.37c-3,0-5.92,0-8.87,0-.33,0-.65.3-1,.46a3,3,0,0,0,1,.33c3.25-.05,6.5-.18,9.76-.21,5.1,0,10.21,0,15.31,0,.62,0,1-.11.9-.84s-.41-.84-1.08-.61a7,7,0,0,1-1.88.36C210,448.25,205.27,448.52,200.56,448.81Zm18-1.19c-.1,1.35.26,1.9,1.55,1.95,1.82.06,3.62.45,5.43.61,1.62.15,3.25.18,4.88.26l.07-.63Zm-11.26-9.05h4.13l-2-2.75Z"></path> <path class="cls-5" d="M192.05,467.58h3.27c.44-1.36-.36-1.87-1.3-2.33s-2-1.07-1.77-2.46c2.27-.63,3.85.24,5.05,2.51-.08-1.4-.16-2.4-.16-3.39a2,2,0,0,1,.3-1.21,1.76,1.76,0,0,1,1.16-.54c.19,0,.53.45.62.75.29,1.06.46,2.16.74,3.23a2.73,2.73,0,0,0,.92,1.39,13,13,0,0,0,.39-2.12c0-2.4,0-4.81,0-7.21,0-.81-.22-1.16-1.12-1.33-2-.39-3.14-1.83-4-3.54l.24-.27a10.15,10.15,0,0,1,1.1.95,4.46,4.46,0,0,0,3.2,1.66c1.1.07,1.41,1.11,1.48,1.92a59.75,59.75,0,0,1,.27,6.41,32.22,32.22,0,0,1-.44,4.71c-.16,1-.77,1.25-1.43.45a31.5,31.5,0,0,1-2.2-3.35l.33,2.77-2.07-.27c0,2.31-.33,4.79,1.18,7,.85,1.25,1.76,2.35,3.77,2.23,0,3.48,0,6.87,0,10.27,0,1.11-.25,2.21-.3,3.32-.14,2.69-1.31,5.26-.93,8a4.16,4.16,0,0,1-.28,1.24,5.48,5.48,0,0,0,.27,4,9,9,0,0,1,.76,6,81.73,81.73,0,0,0-1.43,15.45c0,.82,0,1.48-1,1.78-.36.11-.57.68-.84,1s-.47.63-.69.93c.77.4,1,1,.32,1.87a.77.77,0,0,0-.21.32,22.54,22.54,0,0,0-.35,3.46,3.1,3.1,0,0,0,2,2.6,3.68,3.68,0,0,1,2,3.54c0,3.78.1,7.57,0,11.34a47.55,47.55,0,0,1-1.07,7.53,4.36,4.36,0,0,1-.65-1.5,23.06,23.06,0,0,1,.23-3.32c.13-1.19.46-2.38.48-3.56.06-4.17,0-8.33,0-12.48a4.84,4.84,0,0,1-4-5.75,25.42,25.42,0,0,0,.37-2.76c0-.2-.2-.44-.34-.63s-.62-.57-.69-.91a10.21,10.21,0,0,1-.05-1.84l1.51.17a18,18,0,0,0,1.44-1.32,1.89,1.89,0,0,0,.47-1.07c.21-3.47.31-6.94.57-10.4.11-1.49.54-2.95.74-4.44a39.77,39.77,0,0,0,.31-4.09,1.71,1.71,0,0,0-.47-1.14c-1.62-1.72-1.26-3.69-.81-5.68a2.61,2.61,0,0,0,.19-.74,40.89,40.89,0,0,1,.82-7.49c.51-3.64.46-7.36.67-11,.05-.88-.38-1.25-1.05-1.8a11.76,11.76,0,0,1-2.81-3.39c-.9-1.68-1.61-3.35-3.73-3.86-.5-.12-.86-.81-1.28-1.24Z"></path> <path class="cls-5" d="M227.33,398.86l-.21.67c-.52-.82-1-1.82-.22-2.22a4.14,4.14,0,0,1,3,0c.45.16.72,1.46.64,2.2a1.26,1.26,0,0,1-1.79.95C228.14,400.15,227.76,399.36,227.33,398.86Zm2.72-.22-.24-.4H228l-.16.34c.34.23.68.64,1,.64S229.65,398.85,230.05,398.64Z"></path> <path class="cls-5" d="M174.39,425.09l-2.18-1.37c2.13-.47,3,0,3,1.33,0,.28-.16.8-.24.8a8.58,8.58,0,0,1-3.27-.27c-.88-.4-.57-1.88.3-2.65,0,.63-.27,1.64.06,1.9S173.4,425,174.39,425.09Z"></path> <path class="cls-5" d="M171.12,396.22c.11,1.91,1.37,1.49,2.53,1.41l-.28-1.28c.52.14,1,.12,1.26.37a1.19,1.19,0,0,1-.81,2C171.53,399,170.73,398.35,171.12,396.22Z"></path> <path class="cls-5" d="M17.67,433.75l-.1-1.75,2.14,1.08.16-.28-1.31-1,.15-.37a4.13,4.13,0,0,1,1.59.35,1.59,1.59,0,0,1,.12,1.26A21.79,21.79,0,0,1,17.67,433.75Z"></path> <path class="cls-5" d="M200.64,558.39h3.88c-.39.45-.59.88-.79.87C202.72,559.25,201.51,559.85,200.64,558.39Z"></path> <path class="cls-5" d="M31.21,412.76l.52-2.27c.29.9,2.22.42,1.49,1.71C33,412.56,32.12,412.53,31.21,412.76Z"></path> <path class="cls-5" d="M13.17,384.71l.1,1,.84-1.25.53.08v1.83c-.51-.06-1.15.05-1.48-.22s-.24-.9-.34-1.37Z"></path> <path class="cls-5" d="M304.31,403.41l1.6,1.57c-.44.37-.83,1-1.33,1.07-.94.19-1.24-.61-1.21-1.36C303.39,404.35,303.83,404,304.31,403.41Z"></path> <path class="cls-5" d="M373.28,345.88l.91.68c.77-.76,1.49-.74,1.44.55,0,.34-1.24,1-1.81.88C372.83,347.84,373,346.92,373.28,345.88Z"></path> <path class="cls-5" d="M343.51,409.83c.5-.49.79-1,1.09-1,.95,0,.95.83,1,1.47,0,.23-.63.76-.73.71A8.4,8.4,0,0,1,343.51,409.83Z"></path> <path class="cls-5" d="M304.28,349.19l1.74-.89c-.11.65-.19,1.1-.31,1.76Z"></path> <path class="cls-5" d="M267.47,601.47a3.45,3.45,0,0,1,2.79,3.58,14,14,0,0,1-1.9,6.61c-1.12,1.9-2.15,2-3.27.06a2.52,2.52,0,0,0-2.53-1.39q-111.57.06-223.15,0c-10.14,0-20.28-.09-30.42-.16-.87,0-1.74-.16-2.61-.25l0-.48H263.59a27.06,27.06,0,0,1,1.06-4,25.44,25.44,0,0,1,2.1-3.33l.43.24c-.56,1.06-1.08,2.15-1.69,3.17a5.22,5.22,0,0,0-1,3.69c.73.29,2-.43,2.2,1.12l-1.68.1c0,.15,0,.26,0,.31.49.5,1,1,1.49,1.47.49-.51,1.2-1,1.43-1.56.65-1.75,1.14-3.56,1.62-5.37.34-1.26-.35-2.09-1.35-2.78a3.84,3.84,0,0,1-.74-1.07Z"></path> <path class="cls-5" d="M7.48,553.77a16.65,16.65,0,0,0-.33,1.7c-.07.76-.1,1.53-.1,2.3q0,10.38,0,20.76c0,2.06-.15,2.21-2.16,2.23-.39,0-.77,0-1.47.09a12.65,12.65,0,0,1-.37-2.31c0-7.61.08-15.21.09-22.82,0-.37-.4-.76-.65-1.11a3.75,3.75,0,0,1-.79-1.44ZM6.11,579.41V555l-2-.28v24.65Z"></path> <path class="cls-5" d="M4.47,519.48c2.75-.13,2.75-.13,2.92,1.39-.37,0-.73.11-1.1.13-2.16.12-2.8-.48-2.8-2.61V497.55a6.79,6.79,0,0,1,.91,4.07c0,5.46,0,10.92.07,16.38Z"></path> <path class="cls-5" d="M8.29,497.12a16.91,16.91,0,0,1,.32,2.2q.09,10.62.12,21.23a9.91,9.91,0,0,1-.12,1.08l-.33.07a5.47,5.47,0,0,1-.42-1.3c-.09-1.28-.11-2.57-.11-3.86,0-6,0-12,0-18v-1.37Z"></path> <path class="cls-5" d="M3.9,496.57c2.05-.85,3-.48,3.36,1.21C5.17,498.13,4.54,497.92,3.9,496.57Z"></path> <path class="cls-5" d="M327.34,550.39c-14.28-2.69-27.7-.78-40.38,6.25l-.24-.46a15.34,15.34,0,0,1,2-1.76,41.63,41.63,0,0,1,16-5.78,98.47,98.47,0,0,1,13-.8,67.11,67.11,0,0,1,8.41,1C327.07,548.94,327.51,549.46,327.34,550.39Z"></path> <path class="cls-5" d="M253.84,551.39c-2.48.22-7.13-.41-7.73-1.19l.67-.35c-.05-.92-.12-1.72-.12-2.52a32.18,32.18,0,0,0,0-4.5c-.33-2.12.87-3.55,1.84-5.1a2.3,2.3,0,0,1,2.72-1c1.33.37,1.37,1.59,1.68,3a7.49,7.49,0,0,1-.54-.67c-.65-1.29-2.09-1.57-2.93-.39a5.85,5.85,0,0,0-1.15,2.91c-.15,2.72-.05,5.46-.05,8.25l4.67.24v-10l.48-.14a4.28,4.28,0,0,1,.46,1.26c0,1.84,0,3.69,0,5.54C253.84,548.27,253.84,549.81,253.84,551.39Z"></path> <path class="cls-5" d="M238.14,582.05c1.22,1,1.75,2,.62,3.53a18.18,18.18,0,0,0,3,.59c3.52.06,7.05,0,10.57,0a42.4,42.4,0,0,1,4.48.42c1.13.15,1.48,1,1,2a3.79,3.79,0,0,0-.12,1.32c0,.62,0,1.24,0,1.86s0,1,0,1.54a12.42,12.42,0,0,0,.27,1.48l-.38.09a13.31,13.31,0,0,1-.41-2.22c0-1.33.3-2.75-1.72-3.49l1.86-1.22-.19-.44c-1.56-.14-3.11-.37-4.67-.4-3.78-.06-7.57,0-11.34-.11a4.65,4.65,0,0,1-2.63-1.29c-.32-.3,0-1.29,0-2l.37-.07c-.21-.19-.42-.38-.62-.58a1.59,1.59,0,0,1,.09-2.57c.55-.47,1.24-.8,1.75-1.3a1.57,1.57,0,0,0,.39-1.19c0-.21-.67-.41-1.05-.44-.81-.06-1.63.05-2.44,0a3.74,3.74,0,0,1-3.6-3.64,26.43,26.43,0,0,0-1-3.88,4.64,4.64,0,0,1,1.54,3.44c.09,2.1.85,2.92,2.93,3.11a11.45,11.45,0,0,0,2.19,0,1.62,1.62,0,0,1,1.91,1.12,1.93,1.93,0,0,1-.56,2.52Z"></path> <path class="cls-5" d="M273.68,534a3.61,3.61,0,0,1-3.46-2.85c-.33-1.54.4-2.79,2.08-3.54a3.83,3.83,0,0,1,5,1,2.79,2.79,0,0,1-.83,4.53A17.13,17.13,0,0,1,273.68,534Zm.76-5.73c-.6.22-1.43.56-2.28.79a1.53,1.53,0,0,0-1.23,1.83,2.58,2.58,0,0,0,1.28,1.63,4,4,0,0,0,4-.75,2.55,2.55,0,0,0,1-1.9c-.1-.56-1-1-1.62-1.44C275.39,528.32,275,528.38,274.44,528.31Z"></path> <path class="cls-5" d="M328.12,562.05a3.35,3.35,0,0,1,.77-4.13,8.9,8.9,0,0,1,6.77-3.14c.41,0,.82.41,1.23.63a5.75,5.75,0,0,1-1.24.57c-3,.61-5.54,1.74-6.76,4.8A12,12,0,0,1,328.12,562.05Z"></path> <path class="cls-5" d="M340.29,529.66a5.74,5.74,0,0,0-.52,1.2c-.14.75-.5,1.88-.16,2.2a2.91,2.91,0,0,0,2.4.6,9.07,9.07,0,0,0,3.08-1.89c.61-.54.44-1.31-.48-1.54s-1.84-.32-2.75-.53c-.27-.06-.49-.33-.74-.5.14-.18.24-.45.43-.54,1.72-.78,4.54,1.1,4.44,3s-1.65,2.36-3,3a3,3,0,0,1-3.46-.52,3,3,0,0,1-.56-3.35,6.24,6.24,0,0,1,.9-1.29Z"></path> <path class="cls-5" d="M329.11,541a2.66,2.66,0,0,1,2.74-2.74,3.44,3.44,0,0,1,3.47,3.23,3.11,3.11,0,0,1-3.21,2.88C330.25,544.4,329.12,543.14,329.11,541Zm.55.25a1.92,1.92,0,0,0,2.09,2.15,2.67,2.67,0,0,0,2.86-2.34c0-.88-1.2-1.71-2.45-1.69C330.34,539.38,329.67,539.88,329.66,541.24Z"></path> <path class="cls-5" d="M334.08,531.78c0,1.39-1.76,2.87-3.41,2.84a2.62,2.62,0,0,1-2.52-2.83c0-1.58,1-2.91,2.17-2.89C332.41,528.93,334.07,530.2,334.08,531.78ZM330.5,534c1-.73,1.94-1.33,2.77-2,.16-.12.15-.66,0-.88-.41-.7-3.27-1.36-3.7-.77a3.68,3.68,0,0,0-.67,2.33C328.94,533.05,329.82,533.41,330.5,534Z"></path> <path class="cls-5" d="M320.31,517.49l-2-.67.09-.44a7.08,7.08,0,0,1,1.59,0,1,1,0,0,1,.68.66c0,3.08,0,6.16,0,9.35l-2.36-.53v-7.94h.32v7.61h1.67Z"></path> <path class="cls-5" d="M340.78,561.56a18.84,18.84,0,0,0-4.42.43,19.59,19.59,0,0,0-3.86,2.41,3.11,3.11,0,0,1,2.06-3,7.83,7.83,0,0,1,6.18-.37Z"></path> <path class="cls-5" d="M32.63,512.93H31.24c0,.84.1,1.64.12,2.44.07,2.66.12,5.32.18,8,0,.38,0,.77,0,1.21-2.1,0-4.11.1-6.1-.08-.45,0-1.16-1-1.18-1.58-.12-3.2-.06-6.41-.06-9.74h4.08c-2-.65-4.42.66-6-1.76,3.56,0,6.91,0,10.25,0,.28,0,.77.64.78,1,.09,3.45.07,6.9.15,10.35,0,.4.4.79.61,1.18s.43.82.62,1.25.25.72.4,1.08.36.81.55,1.21a11,11,0,0,1-1.39.17c-3.31,0-6.62,0-9.93,0a2.39,2.39,0,0,1-1.72-.92,7.3,7.3,0,0,0-1.53-.83V528l-.35.08L19.89,525l2.41-.27v-11.8l.37,0a22.13,22.13,0,0,1,.37,2.68c.1,3.26.17,6.52.17,9.78,0,.86.37,1,1.07,1l8.9,0a3.91,3.91,0,0,0,.92-.24c-.11-.34-.21-.68-.32-1a13.34,13.34,0,0,1-1.1-3.32C32.52,518.84,32.63,516,32.63,512.93Zm-7.51,1.73v8.46h5.34v-8.46Z"></path> <path class="cls-5" d="M126,516.11a17,17,0,0,1,.41,2.62q0,26.1,0,52.19c0,8.2-.12,16.4-.18,24.6v1.28l-.45.09a6.93,6.93,0,0,1-.36-1.58q0-19.39,0-38.78t0-38.92v-1.4Z"></path> <path class="cls-5" d="M122.12,597a5,5,0,0,1-.44-1.39q.06-39.5.16-79c0-.33,0-.66.06-1l.36-.07a10.43,10.43,0,0,1,.41,2c.07,4.29.13,8.59.12,12.88q-.08,32.67-.18,65.33c0,.38,0,.76,0,1.14Z"></path> <path class="cls-5" d="M21.83,570.22c3.34,0,6.68,0,10,0,.33,0,.86.78.91,1.25A35.37,35.37,0,0,1,33,576c0,4.47-.08,8.94-.07,13.4,0,1.18.25,2.35.39,3.66-.45,0-1.05,0-1.66,0l-8.86-.28a2.08,2.08,0,0,1-2.22-2.15c0-6.44,0-12.87.23-19.32.94,6.79.34,13.62.55,20.48H32.17c0-3.12,0-6.2,0-9.28s0-6.44.14-9.66c0-1.07-.37-1.34-1.31-1.33-2.66.05-5.32.1-8,0-.49,0-1-.55-1.45-.85Z"></path> <path class="cls-5" d="M23.09,538.57c2.66,0,5.27-.05,7.88.06.31,0,.8.92.84,1.44.15,2.27.19,4.55.21,6.82,0,3.38,0,6.75,0,10.24-.44,0-1.05,0-1.66,0-1.91-.09-3.82-.21-5.74-.27-.25,0-.52.32-1,.64a7.43,7.43,0,0,1-.49-1.88c0-5.06,0-10.13,0-15.19C23.19,539.91,23.14,539.4,23.09,538.57Zm1.05,1.58v15.68c2,0,3.8-.05,5.64,0,.95,0,1.26-.23,1.26-1.21,0-4.47,0-8.94,0-13.4,0-.33-.06-.66-.1-1.09Z"></path> <path class="cls-5" d="M22.75,581.67c0-2.62,0-5.24,0-7.85,0-1,.36-1.27,1.29-1.24,1.63,0,3.26,0,4.89,0s2.11.42,2.12,2c0,5.06,0,10.12,0,15.19a1.26,1.26,0,0,1-1.31,1.28c-1.93,0-3.86,0-5.79-.06-1,0-1.39-.52-1.38-1.51,0-2.61,0-5.23,0-7.85Zm.72,8.23h6.71V574c-1.65,0-3.27.05-4.88,0a8.51,8.51,0,0,1-1.83-.43Z"></path> <path class="cls-5" d="M23.67,535h7.52l-2.84-2.56c-1.65.6-3.1,2-5.16,2.05l.14,2.58c-1.28-1.68-1-3.26.44-4l4.15-2.14A46.45,46.45,0,0,1,32.13,534c.46.43.39,1.44.61,2.37-2.83,0-5.39,0-7.94,0-.44,0-.85-.63-1.27-1Z"></path> <path class="cls-5" d="M109,507.91c-.57,1-1.14,2-1.72,3.11,0,0-.12,0-.12,0-.21-2.06-2.12-1.81-3.34-2.31-2.76-1.12-5.79-.92-8.66-1.44a48.64,48.64,0,0,1-6.49-1.92l18.35,2.84,3.64-6.4a2.58,2.58,0,0,1,.07,2.74c-.68,1.09-1.19,2.3-1.76,3.45Z"></path> <path class="cls-5" d="M76.85,528.1c-.27,1.57-.59,2.89-.69,4.23-.07,1,1.41,1.89,2.83,1.78a1.73,1.73,0,0,0,1.77-2.05c-.09-.4-.7-.82-1.15-1a10.26,10.26,0,0,0-1.77-.08,3.18,3.18,0,0,1-.9-.42c.19-.34.29-.85.58-1,1.5-.69,3.9.77,4.07,2.4.2,2-.48,3.33-1.87,3.58a3.88,3.88,0,0,1-4.22-3,11,11,0,0,1,.26-3.42C75.86,528.77,76.51,528.44,76.85,528.1Z"></path> <path class="cls-5" d="M33.33,559.92a8.08,8.08,0,0,1-.39-1.69c0-6.44.07-12.88.11-19.32a.64.64,0,0,1,.23-.49c.9,7.13.19,14.29.51,21.43Z"></path> <path class="cls-5" d="M21.18,558.37a5.65,5.65,0,0,1-.43-1.5c0-6.23,0-12.45,0-18.67a.44.44,0,0,1,.27-.43c.79,6.82.46,13.65.63,20.48Z"></path> <path class="cls-5" d="M20.89,558.54H32.48l.17,1.38c-4-.34-8,.57-11.78-.92Z"></path> <path class="cls-5" d="M85.83,520.71c-2.7,0-5.4.06-8.09-.05-.54,0-1-.69-1.58-1.06l.21-.45c2.9,0,5.79,0,8.69.05.39,0,.75.73,1.13,1.12Z"></path> <path class="cls-5" d="M87.55,503.89c-.46-2.64,1.81-3.81,3-5.5Z"></path> <path class="cls-5" d="M246.33,443.67c-.12-1,.77-2.06,2.2-2.68,2.29-1,4.44-.51,6.55.58,1.87,1,2.12,1.26,1.63,3.39-.64,2.81.29,5.42,1.58,7.89a1.34,1.34,0,0,0,1,.51c2.06.06,4.12.09,6.18,0a1.77,1.77,0,0,0,1.26-.61c1.71-2.37,1.42-5,.95-7.68-.1-.55-.67-1-1.19-1.76,2.29,1.16,2.73,6.17,1.1,10.09h8.9c-2.48-1.47-2.32-3.65-2.26-5.81,0-.81,0-1.63,0-2.45a3.12,3.12,0,0,0-4.37-3.18c-.61.2-1.16.57-1.76.78a1.43,1.43,0,0,1-1-.19,5.13,5.13,0,0,1,3.75-1.83,3.7,3.7,0,0,1,3.86,3.89c0,1.8.07,3.6,0,5.4,0,1.23.9,1.77,1.62,2.48s1.12,1.21,1.77,1.92c-5.28,0-10.17,0-15.05,0-6.23,0-12.45.09-18.68.1a7.24,7.24,0,0,1-1.67-.4l.05-.38,1.23-.24a18.38,18.38,0,0,0,1-2.25q.87-2.88,1.59-5.79c.07-.31-.24-.7-.31-1.07a3,3,0,0,1,0-.79,3.29,3.29,0,0,1,.64,3.45c-.56,2.12-1.13,4.24-1.67,6.23h12.49c-1.27-3.34-3.2-6.43-1.43-10-3.31-1.82-4.74-2.22-6.89-1.47A18.77,18.77,0,0,0,246.33,443.67Z"></path> <path class="cls-5" d="M239.14,485.31h37.61l.16.51c-.33.17-.67.48-1,.48q-12.3,0-24.59-.14c-3,0-6,0-9-.13a21.9,21.9,0,0,1-3.2-.57Z"></path> <path class="cls-5" d="M250.32,466.1c-1.69,1.54-1.92,3.54-1.89,5.65s0,4,0,6.16H253c-.45-1.24-.6-9.82.13-11.34a9.07,9.07,0,0,1,.4,1.87c0,2.58-.12,5.15-.15,7.72,0,.77-.44,1.68.64,2.2.17.08.12.61.17.94-2.05.11-4.05.31-6,.26-.55,0-1.07-.77-1.6-1.19l.51-.2a6,6,0,0,0,.41-1.4c.1-2.4.09-4.8.21-7.2C247.81,467.49,248.61,466.43,250.32,466.1Z"></path> <path class="cls-5" d="M253.33,516c-2,0-3.8.07-5.64,0-.54,0-1.05-.59-1.55-.9.24-.38.56-.68.58-1a22.56,22.56,0,0,0,0-5.51,12.08,12.08,0,0,1-.09-4.4c.23-1.81,1.58-2.86,3.94-2.6-.46.51-.69,1-1.06,1.15-1.34.53-2.27,1.23-2.17,2.9.19,2.93.25,5.86.37,9.06,1.55,0,3,0,4.51,0C253.23,514.71,253.23,514.73,253.33,516Z"></path> <path class="cls-5" d="M270.52,477.2v-9.43c.8.73.79.73.67,4.63-.05,1.62,0,3.25,0,4.87,2.14.94,2.14.94,2.22,1.91-1.61-.44-3.4-.3-4.61-2Z"></path> <path class="cls-5" d="M274.74,479.32c-.25-1.48-.6-2.95-.72-4.44-.15-2-.11-3.95-.17-5.92s-.07-2-2.05-2.37a4.47,4.47,0,0,1,1.76-.33c.38.1.75.77.86,1.25a15,15,0,0,1,.31,2.68c.14,3,.25,6.05.37,9.08Z"></path> <path class="cls-5" d="M253.34,421c1.1-.61,1.71-.36,2,.44a5.94,5.94,0,0,1,.26,1.88c0,1.81,0,3.61,0,5.55l-2.29-.2v-6.78h.32l.27,6h1a2.21,2.21,0,0,0,.06-.34c0-1.62,0-3.25.15-4.86C255.26,421.4,254.37,421.31,253.34,421Z"></path> <path class="cls-5" d="M252.33,502.75c1.11,1,1.31,6.91.56,11.3-.24-.31-.54-.5-.54-.7C252.32,509.9,252.33,506.45,252.33,502.75Z"></path> <path class="cls-5" d="M271.44,446.25c.25.35.42.85.68.89,1.15.22,1.17,1.14,1,1.86a2,2,0,0,1-1.26,1.14c-.9.27-1.41-.39-1.66-1.19A2,2,0,0,1,271.44,446.25Z"></path> <path class="cls-5" d="M262.06,426c-.07-1.24-.11-2.49-.24-3.73-.08-.77-.28-1.53-1.4-.85.14,1.91.27,3.82.39,5.53l1.41.89-.17.31-1.9.26c0-2.3,0-4.76,0-7.22,0-.29.64-.77,1-.77a1.27,1.27,0,0,1,.89.84c.25,1.55.36,3.12.52,4.68Z"></path> <path class="cls-5" d="M265.87,427.35v-6.13h.19v6.16Z"></path> <path class="cls-5" d="M136.06,476.84V482h2.67v-9.08l.42-.06a5.07,5.07,0,0,1,.44,1.35c.11,5.67.18,11.34.25,17a2.8,2.8,0,0,1-.13.61c-1.55-1-3.22-.45-4.83-.54-1.15-.06-2.68-1.19-2.7-2.32-.06-5,0-10.05,0-15.08,0-.06.1-.12.38-.45l.83,1.77c1.83.12,1.83.12,1.84-1.59v-3l-2.9.86c.08-1,2.32-2.73,3.58-2.65,1.48.11,2.69,1.77,2.68,4-.88-1.07-1-2.79-2.84-2.56.13,1.58.26,3.17.39,4.82.86.14,2.17-.21,1.78,1.56Zm2.46,12.85v-5.92h-2.33c-.07.14-.14.22-.14.29,0,1.16,0,2.31,0,3.46C136,490,136,490,138.52,489.69Zm-3.3.26v-6l-2.07-.48V490Zm-2-7.29c.84-.46,1.85-.71,1.89-1.07a40.88,40.88,0,0,0,.08-4.7h-2Z"></path> <path class="cls-5" d="M125.9,490.44a6.8,6.8,0,0,1-.91-2,32.46,32.46,0,0,1,0-3.82l-2.82-.4v5.38l-.4.13a4.72,4.72,0,0,1-.65-1.56c0-4.73,0-9.45.06-14.33.9,1.86,2.38,1,3.75,1V471l-3.34,1.79c1.9-3.23,3.51-3.37,5.14-3.22.94.09,1.57,1.5,1.61,3.33-.91-.72-.77-2.88-2.71-1.85.07,1.16.14,2.37.21,3.67h3l.3-1.91h.38c.56,6.07.32,12.17.38,18.33-1-.75-1-.75-1-3.21v-3.6l-3,.19v5.91Zm2.91-14.1-3,.13v6.34h3Zm-3.94,6.58v-6.27l-2.69-.47v6.74Z"></path> <path class="cls-5" d="M19.65,492.08l.47-.11-1.69-.47.08-.4H39v-3.68c-.57,0-1.06-.08-1.56-.08-5.79,0-11.59,0-17.38,0-1,0-1.66-.24-1.87-1.43.4,0,.8-.1,1.19-.1,6.23,0,12.45,0,18.68-.07,1.43,0,1.67.86,1.71,1.87.06,1.61,0,3.23-.06,4.76h-20Z"></path> <path class="cls-5" d="M68.47,470.51c-1.34-.68-3.32.69-3.86-1.8a22.89,22.89,0,0,1,3.63.06c.4.07.87.92.93,1.45a24,24,0,0,1,.11,4.24,1.56,1.56,0,0,0,1.56,2c.71.1,1.39.34,2.41.6v-9.75c2,3.86.15,7.72,1.07,11.58l-4.77-1.49v1.43l-.34.09a24,24,0,0,1-.65-2.63,26.59,26.59,0,0,1-.09-2.83C68.46,472.43,68.47,471.45,68.47,470.51Z"></path> <path class="cls-5" d="M125.85,490.46a13.07,13.07,0,0,0,1.65.06c1-.1,1.44.24,1.3,1.39h-6.37l0-.08,1-.14-2.11-.42,0-.31,4.58-.52Z"></path> <path class="cls-5" d="M64.51,469.72l1.08,8.43c-.44-.34-.59-.39-.61-.48-.26-1.29-.59-2.47-2.17-2.81-.35-.07-.57-.77-1-1.45l2.79.82L64,469.78Z"></path> <path class="cls-5" d="M184.72,544v14.39a3.27,3.27,0,0,1-.46-1c0-4.45,0-8.91,0-13.36Z"></path> <path class="cls-5" d="M181,573.33V586.6l-.17.09a3.58,3.58,0,0,1-.36-1q0-5.92.11-11.85a2.12,2.12,0,0,1,.11-.47Z"></path> <path class="cls-5" d="M186.64,557.39c-.66-.72-.89-10.16-.29-13.2C186.93,548.57,186.55,553,186.64,557.39Z"></path> <path class="cls-5" d="M188.63,587.72c-.57-.91-.68-11.49,0-13.1Z"></path> <path class="cls-5" d="M186.86,574.53V587c-.24-.51-.49-.81-.49-1.1,0-3.65.06-7.3.11-10.95a1.38,1.38,0,0,1,.15-.46Z"></path> <path class="cls-5" d="M188,558.34V543.82c.43,4.82.39,9.65.37,14.48Z"></path> <path class="cls-5" d="M179.46,542.46v14.23C179,556.14,178.73,546.58,179.46,542.46Z"></path> <path class="cls-5" d="M178.18,572.58V586.7C177.73,586.18,177.48,575.56,178.18,572.58Z"></path> <path class="cls-5" d="M182.2,543.67c.41,4.71.23,9.42.32,14.36C181.83,557.09,181.61,547.61,182.2,543.67Z"></path> <path class="cls-5" d="M182.78,586.7c-.52-.68-.68-8.21-.28-13C183,574.44,183.26,584.19,182.78,586.7Z"></path> <path class="cls-5" d="M182.4,520.2v10a4.85,4.85,0,0,1-.44-1.28c0-2.91,0-5.82,0-8.73Z"></path> <path class="cls-5" d="M184.85,573.92V587c-.53-4.34-.25-8.69-.35-13Z"></path> <path class="cls-5" d="M187,521c.63,3,.1,6,.34,9.07l-.33.09a4,4,0,0,1-.41-1.18c0-2.65,0-5.3,0-8Z"></path> <path class="cls-5" d="M174.72,511.89a9.23,9.23,0,0,0,3.63-6.85,8.42,8.42,0,0,1,.17,2.22,6.65,6.65,0,0,1-2.68,4.61C175.58,512,175.1,511.89,174.72,511.89Z"></path> <path class="cls-5" d="M163.4,511.13l8.84,1.25-.08.6c-3,.12-5.84-1.15-8.82-1.31Z"></path> <path class="cls-5" d="M184.42,530.33v-9.48h.2v9.44Z"></path> <path class="cls-5" d="M179.54,529.13v-9.56h.1v9.55Z"></path> <path class="cls-5" d="M189.23,521.46V531C188.91,530.61,188.56,522.71,189.23,521.46Z"></path> <path class="cls-5" d="M139.94,542.72c2.46,0,4.81-.07,7.15.06.45,0,1,.75,1.25,1.27a3.67,3.67,0,0,1,.28,1.63c0,4.54,0,9.09,0,13.64a1.94,1.94,0,0,1,0,.43,13.23,13.23,0,0,0-1.91-.39c-1.37-.06-2.75,0-4.12,0-2.33,0-2.64-.34-2.64-2.69C140,552.1,139.94,547.55,139.94,542.72ZM147.61,558V544.11H141V558Z"></path> <path class="cls-5" d="M148.61,530.45c-2.64,0-5.09,0-7.53,0-.51,0-1-.54-1.51-1,1.29-.07,1.18-.9,1.19-1.67q0-3.79,0-7.59c0-.45.07-.9.1-1.36l.41,0a13.16,13.16,0,0,1,.38,2.14c.05,2.69,0,5.39,0,8.23,1.9,0,3.52,0,5.13,0,.27,0,.68-.68.7-1.06.07-2.53.05-5.06.06-7.59v-1.66l.4-.12a7,7,0,0,1,.51,1.67c.09,1.84.08,3.68.1,5.53C148.62,527.33,148.61,528.82,148.61,530.45Z"></path> <path class="cls-5" d="M138.9,590.31l7.58.7.2,1a1.68,1.68,0,0,1-.36.08c-2.19-.17-4.38-.29-6.56-.55a2,2,0,0,1-1.88-2.14q0-9,0-18a4.66,4.66,0,0,1,.13-.73l.36,0a14.4,14.4,0,0,1,.41,2.33c.06,5.4.06,10.81.08,16.22Z"></path> <path class="cls-5" d="M147.36,592.05a6.85,6.85,0,0,1-.48-1.71c0-5.24,0-10.49,0-15.73a2.62,2.62,0,0,1,0-.89c1.16-2.75-.94-4.32-2.27-6.07-.95-1.25-2.54-1-3.83-.56a17.1,17.1,0,0,0-3,1.65c.29-1.21,2.12-2.52,4-2.65,2.58-.18,4,1.07,5.28,3.67,1,2,.72,3.89.75,5.85.07,5.29.05,10.57.07,15.85a2.7,2.7,0,0,1-.09.48Z"></path> <path class="cls-5" d="M140.46,517c-.05-2.48,1-3.54,3.31-3.54s4.32,2,4.28,4.82c-.41-.72-.71-1.15-.92-1.62a3,3,0,0,0-2.89-1.94C141.93,514.68,141.93,514.68,140.46,517Z"></path> <path class="cls-5" d="M112.19,428.28c-1.48-.13-2.92-.23-4.34-.39-.1,0-.16-.34-.31-.71h3.85l-3.27-4.57-1.85,2.86a2.39,2.39,0,0,1,0-2.8A6.94,6.94,0,0,1,117,421.22a7.47,7.47,0,0,1,2.28,6.11,29,29,0,0,0,.16,3.21q0,12.24,0,24.49c0,.16,0,.33-.37.59a7.42,7.42,0,0,1-.36-1.64c0-8.64.19-17.28-.11-25.91-.09-2.71-.74-5.85-4-7.11a13,13,0,0,0-1.81-.44l.21,4.59.31.16,1.86-2.39.43.37c-.34,1.55-1.89,2.31-2.7,3.63,1.57.68,3.45-.46,4.76.71l-.09.55h-4.53v12.64c.78.68,2.27-.56,2.69,1.2H113v12.28l-.45.1a8.85,8.85,0,0,1-.3-1.5c0-3.13,0-6.27,0-9.4v-1.3c-1.64-.53-3.48.4-4.88-1.09h4.77Zm-3.78-5.83,3.4,4,.38-.23v-5.64Z"></path> <path class="cls-5" d="M118.11,456.13c-3.14,0-6.26.06-9.38-.05-.59,0-1.16-.68-1.74-1.05l.13-.34c3.41,0,6.81,0,10.22,0C118.41,454.67,118.2,455.32,118.11,456.13Z"></path> <path class="cls-5" d="M83.75,362a6.53,6.53,0,0,1,3.16-4.06c1.39-.72,3.23.32,4,1.9a16.21,16.21,0,0,1,1.51,7.2c0,4.9,0,9.8.08,14.7a5.82,5.82,0,0,1-.08.72c-1-.39-1-1.18-1-2q0-6.84,0-13.67v-1.34h-3v6.21c.69.65,2.09-.45,2.48,1.18H88.44v9c.86.78,2.94-.88,3.12,1.51-1.9,0-3.77.08-5.62,0a1.78,1.78,0,0,1-1.76-2q0-8.44,0-16.89a.55.55,0,0,1,.07-.24l3.44.18v-5.51l-3.64,3.4Zm4,19.93V373l-2.26-.51v9.41Zm0-16.5H85.13l.33,6.38h2.3Zm3.57-1.16c.3-2.47-1.25-5-3-4.95v4.95Z"></path> <path class="cls-5" d="M82.63,383.55a5.42,5.42,0,0,1-.72-1.78c0-9.15,0-18.3,0-27.45a3.86,3.86,0,0,1,.14-.74l.34-.07a10.55,10.55,0,0,1,.6,2.4c.06,9,.07,18,.09,27.06a2.5,2.5,0,0,1-.06.38Z"></path> <path class="cls-5" d="M145.44,473.94a36.34,36.34,0,0,1,4.18.06c.41.05.73.82,1.3,1.52a35.33,35.33,0,0,1-4.21,0c-.53-.07-1-.69-1.49-1.06Z"></path> <path class="cls-5" d="M150.25,484.13c-1.25-.62-3.21.94-4-1.59a32.44,32.44,0,0,1,3.72.06c.27,0,.45.81.68,1.24Z"></path> <path class="cls-5" d="M150.16,480.08c-1.37-.76-3.41.81-4-1.63C148.73,477.65,150,478.08,150.16,480.08Z"></path> <path class="cls-5" d="M150.82,487.67l.24,1.39c-2.81.72-3.47.56-4.06-1.22Z"></path> <path class="cls-5" d="M145.55,495.75c3.27-.67,5.34-.42,5.7.67C149.29,496.27,147.34,496.81,145.55,495.75Z"></path> <path class="cls-5" d="M323.4,497c-1-.32-1.91-.69-2.89-.94-.68-.17-1.41-.19-2.1-.4a7.34,7.34,0,0,1,4.61.23c.22.07.24.74.35,1.13Z"></path> <path class="cls-5" d="M323.37,497.06c1.3.72,1.4,2.07,1.68,3.3a5.83,5.83,0,0,1-.05,1.5L323.41,497Z"></path> <path class="cls-5" d="M325.32,500.08q-.42-3.18,1.39-4Z"></path> <path class="cls-5" d="M92.17,455.42H83.11c-1.16,0-2.32-.06-3.48,0a2,2,0,0,1-2.41-1.83,13.17,13.17,0,0,1-.2-2.17c0-8.21,0-16.41,0-24.62a5.44,5.44,0,0,1,.58-2.53,17.83,17.83,0,0,1,2.76-4c2.19-2.2,7.44-2.32,10,.88a10.37,10.37,0,0,1,1.55,2,8,8,0,0,1,.42,2.37,10.76,10.76,0,0,1,0,1.27q-.1,12.31-.18,24.62C92.16,452.74,92.17,454,92.17,455.42Zm-11.38-33.3c-.83,1.06-1.7,2.1-2.46,3.21-.11.15.24.93.4.93,1.81.07,3.63.05,5.44.05l.24-.5c-.75-.62-1.55-1.2-2.24-1.89a16,16,0,0,1-1.41-1.84l3.4,2.4v-4.12A4.46,4.46,0,0,0,80.79,422.12ZM78.21,454H91.05V427.45H85v12.32c1.52,0,3,0,4.41,0,.76,0,1.27.17,1.06,1.23H84.85v12.57h-.57c-.16-4.19,0-8.4-.08-12.56l-6-.28Zm.16-26.83v12.56h5.79V427.45Zm10.41-5.21.43.32c-.19,1.86-2.19,2.47-3,4h4.66c.87-2-.07-3.21-1.4-4.44A4.63,4.63,0,0,0,85,420.38v5.16l.46.23Z"></path> <path class="cls-5" d="M89.46,326.08c1.28.39,1,1.35.77,2.14-.08.32-.81.81-1,.72a2,2,0,0,1-.93-2.74,3.49,3.49,0,0,0,.24,1,5.61,5.61,0,0,0,.86.9,5.89,5.89,0,0,0,.36-1.25C89.83,326.6,89.58,326.34,89.46,326.08Z"></path> <path class="cls-5" d="M93.28,341.53c-2.77,0-5,0-7.3,0a4.49,4.49,0,0,1-1.46-.65l.11-.4c2.52,0,5,0,7.55,0C92.49,340.5,92.78,341,93.28,341.53Z"></path> <path class="cls-5" d="M99.06,340.45c1.74.09,3.48.12,5.21.29.35,0,.65.55,1,.85l-.22.29c-1.73-.08-3.45-.12-5.17-.29-.36,0-.66-.54-1-.83Z"></path> <path class="cls-5" d="M74.88,341.28c1.65-.25,3.15-.51,4.67-.68.86-.1.87,0,1,1C75.52,342.4,75.52,342.4,74.88,341.28Z"></path> <path class="cls-5" d="M165.91,493.8c-4.53-1.26-11.51-4.65-12-5.93,2.19.92,4.31,1.79,6.41,2.68,1.58.67,3.16,1.35,4.71,2.07a6.69,6.69,0,0,1,1.14.88Z"></path> <path class="cls-5" d="M94.19,535v5.25h-.13V535Z"></path> <path class="cls-5" d="M100.59,325.69l1,2.56-.57.21-1-2.58Z"></path> <path class="cls-5" d="M91,309.18c-1.22.09-1.79-.6-1.82-1.74-.05-1.66,0-3.33,0-5,1.73-.69,1.82-.64,1.83,1.06C91,305.41,91,307.28,91,309.18Zm-1.1-6.75v5.75l.49-.05C90.3,306.31,90.93,304.43,89.9,302.43Z"></path> <path class="cls-5" d="M95,303.6l-1.37-1.14c1.37-.37,1.94-.19,1.87,1.17-.08,1.68.07,3.37.12,5.19a6.78,6.78,0,0,1-1.67,0c-.21,0-.46-.65-.47-1-.05-1.74,0-3.48,0-5.14.84,1,.45,2.33.61,3.56a12,12,0,0,0,.46,1.66,8,8,0,0,0,.45-1.64C95.09,305.35,95,304.41,95,303.6Z"></path> <path class="cls-5" d="M87.33,302.59V309c-.61-.45-.85-3.52-.35-6.33Z"></path> <path class="cls-5" d="M78.91,326.31c1.07.46,1.06,1.23.66,1.85-.25.39-.91.53-1.39.79l-.93-2.1.44-.17.39,1.42C79.47,328.1,79.11,327.18,78.91,326.31Z"></path> <path class="cls-5" d="M59.07,392.94c-.78-1.75-.16-3.61-.36-5.4l.49,0,.25,5.4Z"></path> <path class="cls-5" d="M258.26,391.08v4h1.63v-4.61l-1.27-.22-.1-.33c.42-.15.86-.47,1.24-.41a1.15,1.15,0,0,1,.64.92c0,1.7-.1,3.4-.25,5.09-.09,1-1,.68-1.51.6s-1-.12-.8-1a22.23,22.23,0,0,0,.06-4Z"></path> <path class="cls-5" d="M169,590.82c1.57,0,3.13,0,4.7,0,.24,0,.46.34.7.53-.23.12-.46.36-.69.36-1.24,0-2.48,0-3.72-.06a3.61,3.61,0,0,1-1.08-.42Z"></path> <path class="cls-5" d="M320.33,481.05c1.19-.39,1.58.28,1.6,1.36s0,2,0,3.06c-1.56.29-1.84.06-1.75-1.54C320.23,483,320.28,482.08,320.33,481.05Zm.94.75-.52.05.21,2.74.5,0Z"></path> <path class="cls-5" d="M174.39,549.21c-3.57.42-5.18.2-5.58-.71C171.32,547.92,174.14,548.25,174.39,549.21Z"></path> <path class="cls-5" d="M169.07,570.25c1.46,0,2.91,0,4.36,0,.33,0,.63.45.83.89-1.82-.11-3.68.6-5.3-.37Z"></path> <path class="cls-5" d="M174.44,579c-1.93-.33-3.81.51-5.71-.75C171.09,577.55,174,577.84,174.44,579Z"></path> <path class="cls-5" d="M250.17,445.46c.65.77-.24,2.46,1.42,2.45.51,0,1-.55,1.5-.84L251.18,445c2.19.27,2.91,1.13,2.63,2.71a1.88,1.88,0,0,1-2.3,1.48C250.21,448.93,249.62,447.36,250.17,445.46Z"></path> </g> </g> </g> </svg> 