<?xml version="1.0" encoding="UTF-8"?> <svg xmlns="http://www.w3.org/2000/svg" viewBox="0 0 376.46 105.8"> <defs> <style>.cls-1{fill:#fff;}.cls-2{fill:#ee731c;}</style> </defs> <title>dialog2</title> <g id="Слой_2" data-name="Слой 2"> <g id="Object"> <path class="cls-1" d="M366.88,9.42a2.14,2.14,0,0,1,.52-1c-51.95,3.72-104-2-156-1.94-29.41,0-58.82.71-88.22,1.42-14.41.35-28.83.69-43.25.85-12.22.13-25.16,1.1-37.4-.44-.51,5.94-1.27,11.74-1,17.81.27,7.36,1.06,14.74,1,22.11a2.09,2.09,0,0,1-3.71,1.25c-3.9,3.26-10.64,3.61-15.31,5.07-4,1.25-8,2.65-12,4.1,12.85,4.23,26.09,7.23,38.7,12.17a4.12,4.12,0,0,1,.66.35A1.12,1.12,0,0,1,52,72.24c0,.19,0,.38,0,.56a3.55,3.55,0,0,1,.14,1.48c.89,9.25.59,18.66.64,28,25.93-1.17,52-.81,77.94-1.38Q170.69,100,210.63,99c52.62-1.23,105.25-2.31,157.89-2.35-1.32-6.55-.47-14.29-.42-20.67.06-9.66.28-19.31.48-29,.16-7.4.78-14.88-.52-22.2C367.2,19.93,365.67,14.37,366.88,9.42Z"></path> <path class="cls-1" d="M366.88,9.42a2.14,2.14,0,0,1,.52-1c-51.95,3.72-104-2-156-1.94-29.41,0-58.82.71-88.22,1.42-14.41.35-28.83.69-43.25.85-12.22.13-25.16,1.1-37.4-.44-.51,5.94-1.27,11.74-1,17.81.27,7.36,1.06,14.74,1,22.11a2.09,2.09,0,0,1-3.71,1.25c-3.9,3.26-10.64,3.61-15.31,5.07-4,1.25-8,2.65-12,4.1,12.85,4.23,26.09,7.23,38.7,12.17a4.12,4.12,0,0,1,.66.35A1.12,1.12,0,0,1,52,72.24c0,.19,0,.38,0,.56a3.55,3.55,0,0,1,.14,1.48c.89,9.25.59,18.66.64,28,25.93-1.17,52-.81,77.94-1.38Q170.69,100,210.63,99c52.62-1.23,105.25-2.31,157.89-2.35-1.32-6.55-.47-14.29-.42-20.67.06-9.66.28-19.31.48-29,.16-7.4.78-14.88-.52-22.2C367.2,19.93,365.67,14.37,366.88,9.42Z"></path> <path class="cls-2" d="M373.37,1.52c-53.92,4.62-108-1.44-162-1.52-28.76,0-57.51.83-86.25,1.63L81.87,2.81C69,3.17,55.41,2.44,42.54,4.14a.88.88,0,0,0-1.29,0c-.06.07-.11.16-.17.23-.87.13-1.74.27-2.6.42a1.54,1.54,0,0,0,0,3l.64.11c-1.86,4.7-1.68,10.52-1.69,15.26,0,8,.62,16,.85,24-4.4-1.8-10.25.35-14.55,1.52-7.34,2-14.49,4.7-21.63,7.33a3,3,0,0,0,0,5.7c15.17,6,31.29,9.12,46.48,15.06a3.67,3.67,0,0,0,.78.19c-.65,8.92-.33,18-.42,26.9a2,2,0,0,0,3.19,1.48c26.13,1.18,52.48.25,78.63,0,26.62-.26,53.25-.74,79.87-1.25,53.24-1,106.49-2.14,159.74-2.15a2.67,2.67,0,0,0,1-.19,2.16,2.16,0,0,0,2.95-1.71c1.12-7.21,0-15.14,0-22.48,0-9.64.26-19.28.42-28.91.12-7.25.84-14.8-.26-22-.45-3-1.07-6-1.6-9-.26-1.49-.59-2.95-.79-4.45-.06-.49-.13-1-.21-1.46,0-.2-.06-.34-.09-.46a.43.43,0,0,0,.46-.63c-.17-.37-.33-.73-.49-1.1a2.29,2.29,0,0,0-.82-1.26l2.43-.2C377.47,7.61,377.51,1.17,373.37,1.52ZM368.58,47c-.2,9.66-.42,19.31-.48,29-.05,6.38-.9,14.12.42,20.67-52.64,0-105.27,1.12-157.89,2.35q-39.94.93-79.87,1.84c-25.95.57-52,.21-77.94,1.38,0-9.29.25-18.7-.64-27.95A3.55,3.55,0,0,0,52,72.8c0-.18,0-.37,0-.56a1.12,1.12,0,0,0-1.14-1.06,4.12,4.12,0,0,0-.66-.35c-12.61-4.94-25.85-7.94-38.7-12.17,4-1.45,7.93-2.85,12-4.1,4.67-1.46,11.41-1.81,15.31-5.07a2.09,2.09,0,0,0,3.71-1.25c.07-7.37-.72-14.75-1-22.11-.23-6.07.53-11.87,1-17.81,12.24,1.54,25.18.57,37.4.44,14.42-.16,28.84-.5,43.25-.85,29.4-.71,58.81-1.4,88.22-1.42,52,0,104.07,5.66,156,1.94a2.14,2.14,0,0,0-.52,1c-1.21,4.95.32,10.51,1.18,15.4C369.36,32.14,368.74,39.62,368.58,47Z"></path> </g> </g> </svg> 