<?xml version="1.0" encoding="UTF-8"?> <!-- Generator: Adobe Illustrator 23.0.3, SVG Export Plug-In . SVG Version: 6.00 Build 0) --> <svg xmlns="http://www.w3.org/2000/svg" xmlns:xlink="http://www.w3.org/1999/xlink" id="Слой_1" x="0px" y="0px" viewBox="0 0 107.1 90.9" style="enable-background:new 0 0 107.1 90.9;" xml:space="preserve"> <style type="text/css"> .st0{fill:#333333;} </style> <title>doki</title> <g> <g id="Слой_1-2"> <path class="st0" d="M14.8,10.6c-0.4-2.9-1.5-5.8-0.5-8.9c1.6,2.6,1.6,5.6,2.4,8.5c2.3-0.4,4.6-0.9,6.9-1.2 c7.5-0.7,15-1.3,22.5-1.9c1.3-0.2,2.7-0.2,4-0.2c1.2,0.1,2.4,0.4,3.6,0.8C54,7.9,54.2,8.6,54.3,9c0.7,2.7,0.7,2.7,3.5,2.8 c1.7,0,3.4,0,5.4,0c0-2.3,0-4.6,0-6.9c0-0.3-0.6-0.7-1-0.8c-2.1-0.4-4.3-0.6-6.4-0.7C42.9,2.8,30,2.3,17.2,1.8 c-0.7,0-1.3-0.1-2-0.2c-0.3-0.1-0.6-0.5-0.9-0.7c0.3-0.3,0.5-0.7,0.8-0.7C15.7,0,16.4,0,17,0c6,0.2,12,0.4,18.1,0.5 C41.5,0.7,48,0.9,54.4,1.2c2.5,0.1,4.9,0.4,7.4,0.8c2.5,0.4,3.1,1.2,3.1,3.7c0,2.1,0,4.2,0,6.3c2.3,0.1,4.3,0.3,6.4,0.4 c1.8,0.1,3.5,0.3,5.3,0.4s2,0.6,1.7,2.4c-0.9,5-1.8,10-2.8,15c-1.9,9.3-3.8,18.6-5.8,27.8c-0.3,1.3-0.3,2.7-1.5,3.6 c-0.2,0.1-0.1,0.7,0,1c0.3,1.5,0.7,3,1,4.4c0.5,2.6,0.2,2.9-2.3,3.3c-3.4,0.5-6.8,1-10.2,1.7c-12.2,2.6-24.5,4.6-36.8,6.4 c-0.7,0.2-1.4,0.2-2.1,0.3c-0.8,0-1.1-0.4-0.9-1.3c0.2-0.6,0.3-1.3,0.2-1.9c-2.2-11.6-5.5-22.9-8.8-34.3C6,33.9,3.7,26.5,1.5,19.1 c-0.4-1.3-0.3-2.8-1.3-4c-0.5-0.7,0.3-1,1-1.2c4.5-1,9-2.1,13.4-3.1C14.7,10.8,14.7,10.7,14.8,10.6z M67.7,67.8 c-0.1-0.6-0.2-1.1-0.3-1.6c-0.4-1-1-2-1.2-3.1c-1.1-4.5-2.1-9-3.2-13.5c-3.5-13.7-7-27.4-10.5-41c-1.8,0.3-3.4,0.7-5.1,0.8 c-5.8,0.5-11.7,0.5-17.5,1.4c-9.4,1.4-18.6,3.2-28,4.9C9.1,35.5,15,55.8,19.5,76.5L67.7,67.8z M69.5,29.1l-0.1,0.5 c-3.1,1.1-6-1-9.2-0.8c0.5,2,1,3.9,1.5,5.8c0.6,2.4,0.6,2.4,3.1,2.6c1,0,2.1,0.3,2.9,0.9v0.5l-4.8,0.7c1.5,6.3,2.9,12.7,4.4,19 h0.4L76.4,15l-20.7-1.3c0.6,2,1.1,3.7,1.7,5.4c0.2,0.4,0.5,0.6,0.9,0.7c0.9,0.2,1.8,0.2,2.7,0.3c2.5,0.3,5.1,0.5,7.6,0.8 c0.7,0.2,1.4,0.4,2,0.7l-0.1,0.4c-2,0.6-4.1,0.7-6.1,0.5c-2-0.1-4.1-0.4-6.3-0.5c0.4,1.4,0.8,2.7,1.1,4c0.2,0.7,0.5,0.8,1.1,0.9 c2.5,0.4,4.9,0.9,7.4,1.5C68.5,28.5,69,28.8,69.5,29.1z"></path> <path class="st0" d="M31.2,54c1.3,0,1.5,0.2,1.6,1.5c0.2,1.1,0.4,2.3,0.7,3.4c0.5,2.6,1,5.2,1.6,7.8c0,0.3,0.2,0.7,0.3,1 c0.6,1,0.5,1.3-0.7,1.6l-8,2l-0.8,0.2c-1.8,0.6-2.3,0.4-2.7-1.5c-0.8-3.7-1.5-7.4-2.2-11.1c-0.2-1.2,0.6-2.4,1.8-2.7 c2.8-1,5.6-1.8,8.4-2.6L31.2,54z M30.8,55.9c-2.7,0.7-5.2,1.4-7.6,2.1c-0.3,0.1-0.5,0.8-0.5,1.1c0.3,1.8,0.7,3.5,1.1,5.3l1.2,5.3 l8.1-2.3L30.8,55.9z"></path> <path class="st0" d="M11.9,33.9c-0.2-0.2-0.6-0.4-0.7-0.7c0-0.4,0.2-0.8,0.5-1c0.8-0.4,1.6-0.7,2.5-0.9c9.5-2.1,19-4.3,28.5-6.4 c2.7-0.6,5.5-1.1,8.3-1.6c0.6-0.1,1.3-0.1,1.9,0c0.3,0.1,0.6,0.5,0.9,0.8c-0.2,0.3-0.5,0.5-0.8,0.8c-0.2,0.1-0.4,0.1-0.6,0.2 l-39.5,8.6L11.9,33.9z"></path> <path class="st0" d="M47.1,17.1c0.5-0.1,1-0.1,1.5,0c0.4,0.2,0.8,0.6,1.2,0.9c-0.4,0.3-0.7,0.9-1.1,1c-2,0.3-4,0.4-6,0.6 c-9.8,1.2-19.6,3-29.3,5.2c-0.8,0.2-1.6,0.3-2.4,0.4c-0.5-0.1-0.9-0.3-1.3-0.5c0.3-0.3,0.6-0.7,0.9-1c0.2-0.1,0.4-0.2,0.6-0.2 C22.9,20.2,35,18.1,47.1,17.1z"></path> <path class="st0" d="M57.6,42.1c-0.2,0.1-0.5,0.3-0.7,0.4c-10.6,3-21.3,6-31.9,9c-1.8,0.4-3.6,0.8-5.4,1c-0.3,0.1-0.7,0.1-1.1,0.1 c-0.5-0.2-0.9-0.5-1.3-0.8c0.4-0.3,0.7-0.8,1.1-0.9c2.8-0.7,5.6-1.1,8.3-1.8c8.5-2.3,17-4.8,25.5-7.1c1.3-0.3,2.6-0.6,3.9-0.7 c0.6,0,1.2,0.2,1.7,0.4L57.6,42.1z"></path> <path class="st0" d="M16,43.4c-0.2-0.2-0.7-0.4-0.7-0.7c0-0.4,0.2-0.8,0.6-1c0.4-0.2,0.9-0.4,1.3-0.5c11.1-2.2,22.2-4.5,33.3-6.7 c0.9-0.2,1.9-0.3,2.9-0.2c0.5,0.1,1,0.4,1.5,0.7c-0.4,0.4-0.8,0.6-1.3,0.8c-1.5,0.4-3,0.6-4.5,0.9C38.4,38.8,27.7,41,17,43.2 L16,43.4z"></path> <path class="st0" d="M56.9,61.2c-1.2,0.6-2.4,1.1-3.7,1.5c-4.2,1-8.3,1.8-12.5,2.7c-0.4,0-0.9-0.1-1.3-0.3 c0.3-0.4,0.5-0.9,0.9-1.1c0.7-0.4,1.5-0.7,2.3-0.9c4.3-0.8,8.5-1.6,12.8-2.3c0.5,0,0.9,0,1.4,0L56.9,61.2z"></path> <path class="st0" d="M54.8,56.4c-0.4,0.2-0.8,0.4-1.2,0.6c-4,1.5-8.2,2.6-12.5,3.2c-0.6,0-1.3-0.1-1.9-0.3c0.5-0.3,1-0.9,1.5-1 c4.3-0.9,8.5-1.8,12.8-2.6c0.4-0.1,0.8-0.1,1.2-0.1L54.8,56.4z"></path> <path class="st0" d="M60.3,53.7l-0.6,1.2c-0.3-0.2-0.8-0.3-0.9-0.6c-0.7-1.8-1.3-3.7-1.8-5.5c-0.1-0.3,0.2-0.6,0.4-0.9 c0.3,0.2,0.8,0.3,1,0.5C59,50.2,59.7,52,60.3,53.7z"></path> <path class="st0" d="M62.7,63.1c-0.2,0.4-0.3,0.9-0.5,0.9c-0.3,0-0.8-0.2-0.9-0.4c-0.6-1.5-1.2-3-1.7-4.5 c-0.1-0.2,0.3-0.7,0.4-0.7c0.3,0,0.9,0.1,1,0.4C61.6,60.2,62.2,61.7,62.7,63.1z"></path> </g> </g> </svg> 