<?xml version="1.0" encoding="UTF-8"?> <svg xmlns="http://www.w3.org/2000/svg" viewBox="0 0 58.75 50"> <defs> <style>.cls-1{fill:#666;}</style> </defs> <title>срок</title> <g id="Слой_2" data-name="Слой 2"> <g id="Слой_1-2" data-name="Слой 1"> <path class="cls-1" d="M1.35,9.61c0-1.07.87-1.12,1.57-1.31S4.23,8.06,4.85,8C4.91,6.28,5,4.68,5,3.08a.5.5,0,0,0-.12-.34C4,2,4.7,1.67,5.32,1.44a14.51,14.51,0,0,1,5.52-1c.81,0,.92.78.95,1.35.1,1.81.09,3.62.13,5.43l9.91-.28c-.18-1.53-.35-3-.51-4.4A13.94,13.94,0,0,1,21.18.72c0-.21.31-.59.5-.6a29.09,29.09,0,0,1,4-.08c2.2.18,2.58.77,2.5,3.05-.05,1.33.07,2.66.12,4l9.93.44c0-1.7.07-3.35.1-5A7.93,7.93,0,0,1,38.37.93,1,1,0,0,1,39,.29c1.58-.07,3.18-.1,4.77,0,.25,0,.68.52.7.81.07,2.08,0,4.17.1,6.26,0,.27.27.75.44.77,1.58.12,3.17.1,4.75.27a1.72,1.72,0,0,1,1,1c.57,1.33,1,2.71,1.49,4.07A27.31,27.31,0,0,1,53.14,16c.81,3.4,1.57,6.8,2.36,10.2s1.59,6.69,2.34,10c.35,1.56.6,3.14.89,4.71.09.48-.1.6-.58.67-2.07.28-4.13.64-6.19,1-.42.07-.84.1-1.33.15-.08.94-.11,1.88-.28,2.79-.06.33-.45.6-.69.89-.26-.32-.74-.64-.75-1,0-1.48.09-3,.08-4.45,0-1.93-.11-3.85-.11-5.77,0-1,.18-2.1.18-3.14,0-2.33-.05-4.66-.06-7s0-4.48,0-6.72,0-4.24,0-6.36a13.25,13.25,0,0,0,0-1.54.81.81,0,0,0-.51-.55c-1.56-.09-3.13-.08-4.68-.18-2-.14-3.9-.39-5.86-.54-2.14-.15-4.29-.26-6.44-.35s-4.48-.18-6.72-.21-4.36,0-6.54,0-4.43.11-6.64.26c-2,.14-4,.38-6,.61-1.14.13-2.26.39-3.4.5-.3,0-.62-.3-.94-.47ZM23.18,7l3.66.07-.09-5.78-4.26-.05ZM6.31,2.43l.1,5.34,4.13-.4-.25-5.62Zm36.79-1-3.47,0V7.65c.92.08,1.72.13,2.53.23.54.07,1,.06,1-.64C43.15,5.31,43.12,3.39,43.1,1.4Zm7.74,31.08,3-3.08c.23-.24.68-.5.65-.7-.18-1.23-.46-2.45-.73-3.83C51.7,27.12,49.83,29.22,50.84,32.48Zm4.78,1.59c-.28.24-.57.45-.82.7-1.25,1.24-2.5,2.47-3.72,3.74a1.76,1.76,0,0,0-.45.94c-.06.6,0,1.2,0,2.09a6.58,6.58,0,0,0,.86-.64c.24-.26.38-.61.63-.85,1-1,2-1.89,3.08-2.83S56.35,35.49,55.62,34.07ZM54.81,30c-.94,1-1.68,1.76-2.45,2.53-1.24,1.26-2.26,2.59-1.59,4.59l4.61-4.53Zm-4.24-8.15.23.06a16.67,16.67,0,0,0,1.12-2.13,5.09,5.09,0,0,0,.21-1.91,5.71,5.71,0,0,0-.4-1.48l-1.17-3.51-.16.06Q50.49,17.35,50.57,21.81Zm.2,4.83c.68-.84,1.33-1.63,2-2.43.36-.45.84-.82.51-1.56a11.62,11.62,0,0,1-.47-1.93C51.81,22.76,49.85,24.16,50.77,26.64ZM52.93,41l4.4-.65-.77-2.72Z"></path> <path class="cls-1" d="M1.33,9.58c.07,1.94.16,3.87.2,5.81,0,1.23,0,2.47,0,3.65,4,0,8-.05,11.89,0s7.76.14,11.64.16c3.64,0,7.27,0,10.91-.05l9-.1a3,3,0,0,1,1.08.13,4.24,4.24,0,0,1,.91.65c-.33.26-.64.76-1,.77-2.24.08-4.48,0-6.72.07-3.18,0-6.36.16-9.54.17-2.21,0-4.43-.1-6.64-.13s-4.3,0-6.45-.05-4.31-.09-6.47-.09-4.6.05-6.9.07c-.54,0-1.08,0-1.71-.05,0,1.47-.07,2.86-.08,4.25,0,1.72,0,3.45,0,5.18s0,3.57.06,5.36.05,3.51.13,5.26.23,3.69.35,5.54c0,0,0,.06,0,.09.1.54,0,1.26.35,1.58s1,.21,1.56.24c2.06.08,4.11.15,6.17.19,1.7,0,3.4.07,5.1,0,2.34,0,4.67-.07,7-.13,1.7,0,3.4-.09,5.1-.19,2.42-.14,4.83-.34,7.25-.52,1.84-.13,3.68-.27,5.52-.43s3.74-.38,5.62-.49a13.89,13.89,0,0,1,2.8.15c.29,0,.54.43.81.67-.29.22-.56.61-.87.65-1.17.15-2.36.15-3.54.26-2,.17-3.92.4-5.88.58s-3.62.29-5.43.43-3.75.31-5.62.42c-1.72.1-3.45.15-5.17.19-2.25,0-4.49.08-6.74.09-1.67,0-3.34,0-5,0-2.17-.07-4.35-.15-6.52-.33A32.77,32.77,0,0,1,.62,49C0,48.89-.1,48.37.33,47.86a1.22,1.22,0,0,0,.31-.75C.49,44.69.26,42.27.15,39.84c-.1-2.2-.09-4.42-.11-6.63s0-4.48,0-6.73c0-1.66,0-3.33.08-5,.05-2.21.08-4.43.17-6.64.06-1.42.19-2.85.38-4.26.05-.35.47-.66.72-1Z"></path> <path class="cls-1" d="M5.49,38.46c.83-1.2,1.89-.66,2.78-.64,2,0,4,.26,6,.4l-.18-8.86c-1.2,0-2.34,0-3.47-.06-1.37,0-2.74-.07-4.09-.19-.33,0-.63-.43-.94-.66.33-.18.67-.5,1-.5,2.48,0,5,0,7.55,0,0-1.25,0-2.45.05-3.65a2.94,2.94,0,0,1,.33-.91c.19.28.51.55.54.85.16,1.2.22,2.42.32,3.71,1.14,0,2.31.1,3.47.12,1.79,0,3.58,0,5.36.07.78,0,1.1-.19,1.1-.93s0-1.4,0-2.09a4.84,4.84,0,0,1,.27-.95h.44a22.62,22.62,0,0,1,.3,2.3c.06,1.61,0,1.59,1.7,1.62,2.27,0,4.54.12,6.85.18,0-1.22,0-2.39,0-3.56,0-.21.23-.42.35-.64.15.2.4.39.44.6.17,1.2.28,2.4.42,3.62l8,.32v.26l-8,.52.62,8.65L40.33,38l0,.15-3.43.6.28,6.06-.22,0C36,43,36,41,35.61,38.9l-8.85.71L26.88,44c-1.13-1.3-.92-3-1.39-4.36l-9.94-.1v4.79l-.22,0a1.86,1.86,0,0,1-.23-.47c-.2-1.32-.35-2.64-.59-3.95a.94.94,0,0,0-.62-.59c-1.53-.15-3.07-.21-4.6-.32-1-.08-2.05-.17-3.07-.29A3,3,0,0,1,5.49,38.46Zm19.85-8.95-10-.13.15,9,10,.12Zm9.66,0a1.17,1.17,0,0,0-.3-.1c-2.59,0-5.19,0-7.79.08-.18,0-.49.39-.49.59,0,2.21.11,4.41.2,6.62,0,.53-.09,1.26.21,1.53s1,.13,1.55.12c2.18,0,4.36-.05,6.54-.14a1,1,0,0,0,.62-.75C35.4,34.82,35.19,32.19,35,29.5Z"></path> </g> </g> </svg> 