<?xml version="1.0" encoding="UTF-8"?> <svg xmlns="http://www.w3.org/2000/svg" viewBox="0 0 264.24 312.06"><defs><style>.cls-1{fill:gray;}</style></defs><title>loclocl</title><g id="Слой_2" data-name="Слой 2"><g id="Слой_1-2" data-name="Слой 1"><path class="cls-1" d="M140.62,0c5.21.75,10.48,1.19,15.6,2.3,52.67,11.4,87.28,42.91,102.87,94.39,9.22,30.45,5.68,60.39-7.59,89.25-11,23.87-26.55,44.54-44.22,63.75-18.53,20.14-39.26,38-59.71,56.05-9.4,8.32-21.31,8.46-30.71.18-24-21.14-48.29-42-69-66.47-16.76-19.78-31.18-41-40-65.64-12.14-34-10.12-67.44,5.73-99.54,19-38.45,50.06-62.26,92-71.56,5.91-1.31,12-1.83,18-2.71Zm-4.23,18.22c-17.6.32-30.81,2.19-43.41,7.17-39.91,15.8-64.26,44.78-72.65,86.85-4,19.89-1.59,39.32,5.73,58.23,8.51,22,21.78,40.91,37,58.63,19.77,23.05,42.9,42.6,65.42,62.77,2.79,2.51,4.61,2.47,7.48-.16,16.52-15.16,33.39-30,49.39-45.68,19.7-19.35,36.83-40.8,48.75-66,15.3-32.33,16.14-65,.24-97.08C213.54,41.06,178.58,20.44,136.39,18.22Z"></path><path class="cls-1" d="M190.17,126.84c.14,31.9-26,58.14-58,58.27S74.13,159.08,74,127a58.08,58.08,0,1,1,116.15-.19ZM171.9,127a39.8,39.8,0,1,0-40,39.8A39.84,39.84,0,0,0,171.9,127Z"></path></g></g></svg> 