<?xml version="1.0" encoding="UTF-8"?> <svg xmlns="http://www.w3.org/2000/svg" viewBox="0 0 480.24 440.34"> <defs> <style>.cls-1{fill:gray;}</style> </defs> <title>magaz</title> <g id="Слой_2" data-name="Слой 2"> <g id="Слой_1-2" data-name="Слой 1"> <path class="cls-1" d="M480.24,103.9c-3.75,14.48-7.58,28.93-11.23,43.43q-14.56,57.88-29,115.8c-2.78,11.05-9.3,16.37-20.54,17q-94.29,5.56-188.58,11.13-60.13,3.52-120.27,6.9c-1.07.06-2.14.23-3.73.4a20.51,20.51,0,0,0,1.32,3.48c7.63,12.53,18.77,18.62,33.48,18.61q108.33-.1,216.64-.05c12.34,0,23.78,2.89,34.24,9.54a59.8,59.8,0,0,1,23.95,70.65c-9.61,26.65-36.18,42.51-65,38.83-26.13-3.34-48.16-26-50.38-52.86-.71-8.69.85-17.57,1.38-26.47H196.34c5.59,17.18,4.43,33.56-4.2,49.16a58.64,58.64,0,0,1-27.36,25.39,59.51,59.51,0,0,1-69-14.17c-15-16.39-24.45-47.53-3.7-76.42C86.78,338,81.15,332.15,76.5,325.6c-8.06-11.36-11.42-24.41-12.62-38.21Q56.58,204.05,49,120.74c-2.3-25.68-4.6-51.35-6.75-77-.26-3.14-1.15-4.4-4.45-4.27-5.93.23-11.88.16-17.82,0C8.55,39.21.12,31,0,20.1-.12,9,8.32.36,19.91.16,33-.07,46.17,0,59.29.14,70.92.3,78.62,7.93,79.64,19.8q2.42,28,4.92,56c.12,1.37.42,2.73.71,4.51h6.2q181.69,0,363.41-.17c12.23,0,20.85,3.64,25.36,15.29ZM101.09,259.27c8.73-.52,16.81-1,24.89-1.47q60.15-3.48,120.3-6.94c51.17-3,102.33-6.11,153.51-9,3.74-.21,5.38-1.21,6.29-5,5.77-23.82,11.81-47.57,17.74-71.34,3.77-15.11,7.5-30.22,11.28-45.44H88.59C92.77,166.64,96.91,212.79,101.09,259.27ZM380.7,380.45a20.34,20.34,0,1,0-40.68.32,20.34,20.34,0,0,0,40.68-.32ZM139.42,400.83a20.36,20.36,0,1,0-19.74-21.2A20.25,20.25,0,0,0,139.42,400.83Z"></path> </g> </g> </svg> 