<?xml version="1.0" encoding="UTF-8"?> <svg xmlns="http://www.w3.org/2000/svg" xmlns:xlink="http://www.w3.org/1999/xlink" viewBox="0 0 38.07 44.83"> <defs> <style>.cls-1{fill:url(#Безымянный_градиент_21);}.cls-2{fill:url(#Безымянный_градиент_21-2);}</style> <linearGradient id="Безымянный_градиент_21" y1="26.81" x2="37.78" y2="26.81" gradientUnits="userSpaceOnUse"> <stop offset="0" stop-color="#ff9500"></stop> <stop offset="1" stop-color="#ffc200"></stop> </linearGradient> <linearGradient id="Безымянный_градиент_21-2" x1="8.42" y1="18.01" x2="38.07" y2="18.01" xlink:href="#Безымянный_градиент_21"></linearGradient> </defs> <title>гал очка1</title> <g id="Слой_2" data-name="Слой 2"> <g id="Слой_1-2" data-name="Слой 1"> <path class="cls-1" d="M34.93,19.32A14.41,14.41,0,0,1,36.21,21a12.33,12.33,0,0,1,1,9.83C35.11,38,28,43.86,20.31,44.7a19.34,19.34,0,0,1-9.86-1.39C4.05,40.57.63,35.67.08,28.76a20.92,20.92,0,0,1,1.5-9.86,16.9,16.9,0,0,1,16-10.1,2.75,2.75,0,0,1,1.2.33L18,9.31a65.06,65.06,0,0,0-6.8,2c-5.8,2.44-8.8,7.06-9.41,13.2A22.22,22.22,0,0,0,2.1,31c1.23,6.42,6.21,10.88,13,12a19,19,0,0,0,19.29-9.69,15.3,15.3,0,0,0,.29-13.71Z"></path> <path class="cls-2" d="M38.07.16c-.09.15-.16.32-.26.47a180.91,180.91,0,0,0-17.66,33c-1.17,3-2.5,3.13-4.47.61A56.66,56.66,0,0,1,9,23.37a6.79,6.79,0,0,1-.54-1.8c0-.31.22-.66.34-1,.27.17.64.28.81.52.59.86,1.1,1.77,1.66,2.65q2.87,4.41,5.75,8.82c.22.34.51.63.91,1.12C22.82,21.29,28.66,9.64,37.84,0Z"></path> </g> </g> </svg> 