<?xml version="1.0" encoding="UTF-8"?> <svg xmlns="http://www.w3.org/2000/svg" viewBox="0 0 53.95 54.14"> <defs> <style>.cls-1{fill:#666;}</style> </defs> <title>цена_1</title> <g id="Слой_2" data-name="Слой 2"> <g id="Слой_1-2" data-name="Слой 1"> <path class="cls-1" d="M1.52,22.45c-.89-.68-.89-.86.05-1.35s1.66-.75,2.58-1.17c-.1-.32-.21-.64-.32-1C2.7,15.8,1.56,12.64.47,9.46-.35,7.08-.06,6.19,2.1,4.91A37.69,37.69,0,0,1,17.22,0a6.94,6.94,0,0,1,3,.46A3.29,3.29,0,0,1,22.14,3c.2.7.39,1.41.57,2.08a29.21,29.21,0,0,1,15.63.55A11.16,11.16,0,0,1,40.89,6.8c1,.62,1,1.21,0,1.89a.58.58,0,0,0-.22.34c-.41,2.2-.8,4.4-1.21,6.65,1.48.24,3,.46,4.53.75a21.47,21.47,0,0,1,2.65.69c1.33.43,2.52.88,2.75,2.64s1,3.65,1.27,5.5a40.68,40.68,0,0,1,.52,6.42,5.5,5.5,0,0,0,.69,2.72,18.42,18.42,0,0,1,1.19,4.2c.13.54,0,1.13.13,1.68a2.29,2.29,0,0,0,.46,1c.43.5.28.84-.23,1-.83.29-1.7.47-2.66.73,0,1.26,0,2.58,0,3.89,0,2.35-.32,2.75-2.59,3.33-2.59.68-5.14,1.54-7.76,2.12a80.88,80.88,0,0,1-18.81,1.74c-6.16-.08-12.31-.45-18.46-.73C1.9,53.34,1.9,53.29,2.1,52a.8.8,0,0,0,0-.34A66.66,66.66,0,0,1,0,35.8,41.14,41.14,0,0,1,1.52,22.45Zm48.29,10c-.07-.9-.14-1.63-.2-2.36A43.85,43.85,0,0,0,47.89,20a1.22,1.22,0,0,0-1-1c-2.81-.5-5.6-1.19-8.43-1.47-5.66-.57-11.3,0-16.92.67A108.37,108.37,0,0,0,3.29,22c-.31.09-.79.3-.83.51-.14.84-.14,1.71-.2,2.58,1.79-.6,3.47-1.25,5.2-1.73A98.75,98.75,0,0,1,35.19,19.8a35.59,35.59,0,0,1,9.47,1.14,14.45,14.45,0,0,1,2.61,1.24.64.64,0,0,1,.27.57.69.69,0,0,1-.56.32,7.22,7.22,0,0,1-1.3-.16c-2.35-.43-4.67-1-7-1.25a84.84,84.84,0,0,0-18.7.77A89.23,89.23,0,0,0,3.39,26.14C2,26.6,2,26.57,1.88,28.05c-.77,8,.27,15.83,1.6,23.71a1.24,1.24,0,0,0,.25,0A231.29,231.29,0,0,0,28.85,52a75.76,75.76,0,0,0,19.83-3.82,1,1,0,0,0,.57-.61c.14-1.49.21-3,.32-4.58l-2.16.1c.1.89.25,1.7.27,2.52,0,.32-.25.64-.39,1-.29-.25-.74-.44-.83-.74A6.19,6.19,0,0,1,46.25,44c0-.61-.16-.84-.8-.82-2.62.07-5.25.08-7.87.17-1.2,0-2.4.24-3.61.32-.62,0-1.49.17-1.61-.66a55.46,55.46,0,0,1-.54-5.61,2.36,2.36,0,0,1,1.58-2.43,63.64,63.64,0,0,1,6-2.25,18.81,18.81,0,0,1,9.1-.5ZM19.32,1.19C13,2.38,6.65,3.67,1.25,7.28l4.4,12,16.6-3.24c-.25-2.48-.46-5-.79-7.57S21.1,3.34,19.32,1.19ZM31.85,15.47c.42-1.93.35-3.92,1.37-5.61l.35.07-.35,5.41c1.3.09,2.52.13,3.74.26.65.07.9-.19,1-.78.41-2,.8-3.92,1.31-5.86.24-1-.12-1.28-.95-1.56A31.08,31.08,0,0,0,26.58,6c-1.22.07-2.42.3-3.62.46L24,16ZM46.8,33.54a26.69,26.69,0,0,0-13.12,3.08.79.79,0,0,0-.35.61c.09,1.35.22,2.7.35,4,.06.55.3.76.94.7q3.91-.31,7.85-.48c2.85-.12,5.71-.16,8.56-.27.25,0,.7-.36.68-.52a37.8,37.8,0,0,0-.59-4.63,2.71,2.71,0,0,0-2.58-2.28C47.92,33.74,47.31,33.62,46.8,33.54Z"></path> <path class="cls-1" d="M3.83,34.8a8,8,0,0,1-.43-1.63c-.06-1.29,0-2.58,0-3.88,0-.3.35-.59.54-.88.21.27.6.54.62.83.1,1.43.15,2.87.13,4.3a4.28,4.28,0,0,1-.46,1.26Z"></path> <path class="cls-1" d="M4.25,44.42a18.56,18.56,0,0,1-.43-2.07c-.13-1.22-.21-2.46-.24-3.69a3.47,3.47,0,0,1,.34-1.08c.24.26.61.48.71.78A9.83,9.83,0,0,1,5,43.49a5.74,5.74,0,0,1-.39.93Z"></path> <path class="cls-1" d="M48,29.48l-.67,1c-.26-.28-.66-.53-.75-.86A25.08,25.08,0,0,1,46,26.49c0-.23.25-.51.39-.77.3.18.79.3.87.54C47.59,27.29,47.78,28.36,48,29.48Z"></path> <path class="cls-1" d="M7,49.59c-.23.32-.37.69-.55.72s-.72-.16-.78-.34c-.36-1.17-.65-2.36-.92-3.56a.63.63,0,0,1,.34-.51.64.64,0,0,1,.57.26C6.15,47.29,6.57,48.43,7,49.59Z"></path> <path class="cls-1" d="M9.45,13.5c-.18.06-.33.16-.45.13-.35-.1-.69-.25-1-.38.17-.3.29-.74.55-.86a.76.76,0,0,0,.5-1c-.21-.94-.31-1.91-.44-2.72-.39-.29-.89-.49-.93-.74a1.42,1.42,0,0,1,.49-1A5.39,5.39,0,0,1,12,5.32,1.67,1.67,0,0,1,13.68,7.7a5.51,5.51,0,0,1-2.43,3,2,2,0,0,0-.66.59L12,11.24c0,.18,0,.26,0,.29a2,2,0,0,0-.72,2.7c.09.18-.22.58-.34.88-.3-.13-.68-.19-.87-.41A5.37,5.37,0,0,1,9.45,13.5Zm.74-3.67a4.18,4.18,0,0,0,2.08-3A5.36,5.36,0,0,0,10,7.43c-.21.13,0,1,0,1.46C10,9.15,10.1,9.4,10.19,9.83Z"></path> <path class="cls-1" d="M36.66,40.62a2,2,0,0,1-1.86-2.76A3.51,3.51,0,0,1,38,36.22a1.91,1.91,0,0,1,1.22,2.35A2.23,2.23,0,0,1,36.66,40.62Zm1.2-2.57c-.1-.1-.37-.48-.47-.44a2.81,2.81,0,0,0-1.35.8c-.2.31.12.81.7.84S37.72,38.88,37.86,38.05Z"></path> </g> </g> </svg> 