<?xml version="1.0" encoding="UTF-8"?> <svg xmlns="http://www.w3.org/2000/svg" viewBox="0 0 319.72 177.76"> <defs> <style>.cls-1{fill:#fff;}.cls-2{fill:#ee731c;}</style> </defs> <title>вверх</title> <g id="Слой_2" data-name="Слой 2"> <g id="Object"> <path class="cls-1" d="M301.76,74.3c-.82-6.82-1.94-14-2.25-21-3.5.82-7.71.39-11,.46a114.3,114.3,0,0,0-14.79,1.07c-.92,2.06-4.66,1.54-5-1.24-2.1-16.3-9.47-30.65-16.8-45.08q-3.7,7.9-7.86,15.61c-3.37,6.28-6.56,12.93-10.69,18.77a3.23,3.23,0,0,1-2.55,4.72c-38.06,3-76.26,1.07-114.37.15-19.4-.47-38.82-.71-58.21,0-9.43.35-18.86.9-28.25,1.87-8,.83-16.87,2.94-25,2.22a2.81,2.81,0,0,1,.75,1.83c.34,6.5.82,13,1.12,19.5.18,4,.37,8.08.49,12.13A14.53,14.53,0,0,1,7,90.36c.39,6.56.69,13.13,1,19.7.76,18.09,1.91,35.94,5,53.78a2.78,2.78,0,0,1-1.25,2.91c4,.45,8,1.37,12.14,1.54a.73.73,0,0,1,.73.8c46.24,6.65,93.51-1.26,139.81-3.45,24-1.13,48,.72,72,1,22.8.23,47,.18,68.54-8.37a2.74,2.74,0,0,1,3.31.79,15.29,15.29,0,0,1,3.27-2.53c2.13-1.29,1.51-2.36,1.39-4.76-.24-5.21-.9-10.36-1.62-15.52-1.48-10.49-3.22-20.93-4.93-31.38C304.66,94.68,303,84.52,301.76,74.3Z"></path> <path class="cls-1" d="M301.76,74.3c-.82-6.82-1.94-14-2.25-21-3.5.82-7.71.39-11,.46a114.3,114.3,0,0,0-14.79,1.07c-.92,2.06-4.66,1.54-5-1.24-2.1-16.3-9.47-30.65-16.8-45.08q-3.7,7.9-7.86,15.61c-3.37,6.28-6.56,12.93-10.69,18.77a3.23,3.23,0,0,1-2.55,4.72c-38.06,3-76.26,1.07-114.37.15-19.4-.47-38.82-.71-58.21,0-9.43.35-18.86.9-28.25,1.87-8,.83-16.87,2.94-25,2.22a2.81,2.81,0,0,1,.75,1.83c.34,6.5.82,13,1.12,19.5.18,4,.37,8.08.49,12.13A14.53,14.53,0,0,1,7,90.36c.39,6.56.69,13.13,1,19.7.76,18.09,1.91,35.94,5,53.78a2.78,2.78,0,0,1-1.25,2.91c4,.45,8,1.37,12.14,1.54a.73.73,0,0,1,.73.8c46.24,6.65,93.51-1.26,139.81-3.45,24-1.13,48,.72,72,1,22.8.23,47,.18,68.54-8.37a2.74,2.74,0,0,1,3.31.79,15.29,15.29,0,0,1,3.27-2.53c2.13-1.29,1.51-2.36,1.39-4.76-.24-5.21-.9-10.36-1.62-15.52-1.48-10.49-3.22-20.93-4.93-31.38C304.66,94.68,303,84.52,301.76,74.3Z"></path> <path class="cls-2" d="M303,44.11c-.34-2-3.22-1.34-3.36.46-.11,1.29-.17,2.59-.19,3.89-4.49-.25-9.49.62-13.83.79-4,.16-8.13.3-11.93,1.55C271.62,33.08,262,16.9,254.06,1.26c-.82-1.62-3.67-1.74-4.46,0-3.07,6.87-6.43,13.6-9.88,20.28s-7.55,13.16-10.41,20.12h-.16a1.33,1.33,0,0,0-2.65.08.41.41,0,0,1,0,.11c-37.23,2.61-74.6.75-111.86-.13-19.39-.46-38.8-.67-58.17.23q-14.13.66-28.2,2.25c-8,.91-17.31,1.54-24.52,5.32a1,1,0,0,0-.5,1.38A2.67,2.67,0,0,0,0,53.66q.27,9.75.69,19.5.24,5.5.4,11c.06,2.16-.19,5.07,1,7,.27,7.18.42,14.36.69,21.53.36,9.55.8,19.1,1.57,28.62.65,7.89,1.21,16.25,3.37,23.9A2.56,2.56,0,0,0,9,166.94a2.61,2.61,0,0,0,.18,4.28l-.59.58a.36.36,0,0,0,.51.51l.84-.84c50.53,12.34,103.35,3.18,154.45.53,24.49-1.27,49.08.8,73.57,1.08,23,.26,46.9-.45,68.79-8.19a3.52,3.52,0,0,0,1.7-1.27,1.67,1.67,0,0,0,.38.06c3.84,0,7-1.83,9.8-4.32,2.52-2.22-.08-9.23-.53-11.94-1.94-11.52-3.34-23.13-5.33-34.65-1.93-11.15-3.88-22.31-5.64-33.49C305.3,67.62,305,55.7,303,44.11Zm9.9,107.62c.12,2.4.74,3.47-1.39,4.76a15.29,15.29,0,0,0-3.27,2.53,2.74,2.74,0,0,0-3.31-.79c-21.5,8.55-45.74,8.6-68.54,8.37-24-.24-48-2.09-72-1-46.3,2.19-93.57,10.1-139.81,3.45a.73.73,0,0,0-.73-.8c-4.1-.17-8.09-1.09-12.14-1.54A2.78,2.78,0,0,0,13,163.84c-3.13-17.84-4.28-35.69-5-53.78-.27-6.57-.57-13.14-1-19.7a14.53,14.53,0,0,0,.43-5.07c-.12-4.05-.31-8.09-.49-12.13-.3-6.51-.78-13-1.12-19.5A2.81,2.81,0,0,0,5,51.83c8.1.72,16.92-1.39,25-2.22,9.39-1,18.82-1.52,28.25-1.87,19.39-.72,38.81-.48,58.21,0,38.11.92,76.31,2.86,114.37-.15a3.23,3.23,0,0,0,2.55-4.72c4.13-5.84,7.32-12.49,10.69-18.77q4.16-7.69,7.86-15.61c7.33,14.43,14.7,28.78,16.8,45.08.35,2.78,4.09,3.3,5,1.24a114.3,114.3,0,0,1,14.79-1.07c3.27-.07,7.48.36,11-.46.31,7,1.43,14.21,2.25,21,1.24,10.22,2.9,20.38,4.57,30.53,1.71,10.45,3.45,20.89,4.93,31.38C312,141.37,312.64,146.52,312.88,151.73Z"></path> </g> </g> </svg> 