<?xml version="1.0" encoding="UTF-8"?> <svg xmlns="http://www.w3.org/2000/svg" xmlns:xlink="http://www.w3.org/1999/xlink" viewBox="0 0 82 82"> <defs> <style>.cls-1{fill:url(#Безымянный_градиент_93);}.cls-2{fill:#fdfefe;}.cls-3{fill:#55a9ed;}</style> <linearGradient id="Безымянный_градиент_93" x1="16.76" y1="82.99" x2="65.23" y2="-0.98" gradientUnits="userSpaceOnUse"> <stop offset="0" stop-color="#55a9ed"></stop> <stop offset="1" stop-color="#558ded"></stop> </linearGradient> </defs> <title>telegram</title> <g id="Слой_2" data-name="Слой 2"> <g id="Слой_1-2" data-name="Слой 1"> <path class="cls-1" d="M82,18V64c-.23-.11-.2.09-.2.19a5.36,5.36,0,0,1-.1.7A18.42,18.42,0,0,1,80,70.33a20.29,20.29,0,0,1-5,6.52,20.66,20.66,0,0,1-4.19,2.88,18.91,18.91,0,0,1-6.68,2.07c-.11,0-.3,0-.19.2h-46c.1-.23-.09-.2-.19-.2a6.88,6.88,0,0,1-1.19-.2,19.15,19.15,0,0,1-6.82-2.68,19.45,19.45,0,0,1-5-4.35,20.38,20.38,0,0,1-3.05-5A19.54,19.54,0,0,1,.2,64.26c0-.11,0-.3-.2-.2V18c.19-.1.19-.1.2-.24A15.68,15.68,0,0,1,1.06,14,20.16,20.16,0,0,1,4,8.42,21.18,21.18,0,0,1,7.46,4.7a20.77,20.77,0,0,1,5-3.06A19.29,19.29,0,0,1,17.69.21c.13,0,.3,0,.25-.21H64c-.11.23.09.2.19.2a5.36,5.36,0,0,1,.7.1A18.42,18.42,0,0,1,70.33,2a20.29,20.29,0,0,1,6.52,5,20.66,20.66,0,0,1,2.88,4.19,18.91,18.91,0,0,1,2.07,6.68C81.81,18,81.77,18.15,82,18ZM53,61.91a1.29,1.29,0,0,0,1.26-1.13Q55,57,55.81,53.26l6.33-30.43a1.3,1.3,0,0,0-.41-1.39,1.32,1.32,0,0,0-1.44-.16c-1.55.62-3.12,1.21-4.68,1.81L22.74,35.77c-2.15.83-4.3,1.65-6.45,2.5a1.28,1.28,0,0,0-.63,2,1.82,1.82,0,0,0,.82.5c3.32,1.24,6.65,2.49,10,3.71a1.06,1.06,0,0,1,.71.77q1.93,6.28,3.89,12.57c.4,1.28,1.33,1.56,2.38.7l5.48-4.47a1.88,1.88,0,0,1,2.72-.1l10.44,7.59A1.63,1.63,0,0,0,53,61.91Z"></path> <path class="cls-2" d="M53,61.91a1.63,1.63,0,0,1-.9-.34L41.64,54a1.88,1.88,0,0,0-2.72.1l-5.48,4.47c-1,.86-2,.58-2.38-.7q-1.95-6.29-3.89-12.57a1.06,1.06,0,0,0-.71-.77c-3.33-1.22-6.66-2.47-10-3.71a1.82,1.82,0,0,1-.82-.5,1.28,1.28,0,0,1,.63-2c2.15-.85,4.3-1.67,6.45-2.5L55.61,23.09c1.56-.6,3.13-1.19,4.68-1.81a1.32,1.32,0,0,1,1.44.16,1.3,1.3,0,0,1,.41,1.39L55.81,53.26Q55,57,54.24,60.78A1.29,1.29,0,0,1,53,61.91ZM29.5,44.47a4.28,4.28,0,0,0,.11.57q1.08,3.84,2.18,7.68c.09.33.21.63.63.6s.47-.34.51-.66c.18-1.35.38-2.7.55-4a3.88,3.88,0,0,1,1.29-2.43l15.5-14.4,1.64-1.53c.18-.17.29-.35.11-.58s-.37-.11-.56,0l-.21.13-9.46,5.83-11.21,6.9A2.16,2.16,0,0,0,29.5,44.47Z"></path> <path class="cls-3" d="M29.5,44.47a2.16,2.16,0,0,1,1.08-1.94l11.21-6.9,9.46-5.83.21-.13c.19-.11.38-.2.56,0s.07.41-.11.58l-1.64,1.53-15.5,14.4a3.88,3.88,0,0,0-1.29,2.43c-.17,1.35-.37,2.7-.55,4,0,.32-.1.63-.51.66s-.54-.27-.63-.6Q30.7,48.88,29.61,45A4.28,4.28,0,0,1,29.5,44.47Z"></path> </g> </g> </svg> 