<?xml version="1.0" encoding="UTF-8"?> <svg xmlns="http://www.w3.org/2000/svg" viewBox="0 0 45.14 59.82"> <defs> <style>.cls-1{fill:#666;}</style> </defs> <title>время</title> <g id="Слой_2" data-name="Слой 2"> <g id="Слой_1-2" data-name="Слой 1"> <path class="cls-1" d="M2.86,49.75a17.52,17.52,0,0,1,3.43-9.86,13.3,13.3,0,0,1,6.24-4.39,21,21,0,0,0,5.12-2.69c2.5-1.93,2.61-4.46.16-6.63-1.59-1.4-3.47-2.47-5.2-3.72C9.25,20.05,7.6,17.67,8,12.9A20.56,20.56,0,0,1,9.8,6.37L7.86,5.64C6.14,5,5.84,3.41,6.53,1.85c.08-.18.26-.32.29-.5C7.05.08,7.89-.1,9,0c2.59.34,5.18.66,7.77,1l6.35.82c2.27.31,4.54.65,6.81,1,1.61.22,3.23.35,4.83.62,2.6.43,5.19.89,7.76,1.45A3.43,3.43,0,0,1,45.14,8c-.06,1.21-.35,1.64-1.53,1.84s-2.18.23-3.34.34c.13,1.17.29,2.35.38,3.54a12.67,12.67,0,0,1-1.65,8,9.87,9.87,0,0,1-5,3.79,66.11,66.11,0,0,0-6.31,2.7c-2.89,1.43-2.91,4.48-.9,6.53a37.38,37.38,0,0,0,4.68,3.92,12.5,12.5,0,0,1,5.49,9c.2,1.88.19,3.8.27,5.7a.64.64,0,0,1,0,.28c-.54,1-.27,1.49.79,1.8.56.17,1.35,2.17,1,2.71a3,3,0,0,1-1.63,1.24,21.62,21.62,0,0,1-7.94.13c-2.68-.38-5.37-.7-8.06-1.08s-5.28-.79-7.93-1.14C11.27,57,9.1,56.83,7,56.51c-1.91-.28-3.87-.38-5.61-1.4S-.11,52.52.58,51C1,50,1.63,49.32,2.86,49.75Zm32.73,4.31c0-1.46.12-3.05,0-4.61a13.34,13.34,0,0,0-2-6.47c-1.41-2.11-3.62-3.29-5.49-4.87s-3.73-3.28-3.9-6c-.15-2.29.49-4.23,2.58-5.32a64.8,64.8,0,0,1,6.45-2.81c3.25-1.25,5.36-3.37,5.73-6.95.13-1.2.23-2.4.28-3.6s0-2.15,0-3.07L10.84,6.52c-.42,2-.95,4-1.21,6a8.34,8.34,0,0,0,1.1,5.76c1.07,1.7,2.73,2.65,4.25,3.8s2.84,2,4.18,3.17c2.89,2.4,1.77,6.9-.71,9-1.87,1.55-4.14,2.32-6.32,3.29a9.42,9.42,0,0,0-4.57,3.62,33.06,33.06,0,0,0-2.42,5,21.47,21.47,0,0,0-.77,3.78ZM44,7.26s-.07-.31-.22-.39a8.21,8.21,0,0,0-2-.89c-1.75-.36-3.51-.63-5.27-.89-2.21-.32-4.41-.6-6.62-.89l-6.43-.85c-2.18-.3-4.34-.64-6.52-.93-2.71-.36-5.42-.69-8.13-1a.88.88,0,0,0-.54,0c-.37.26-.66,2.06-.33,2.32a3.83,3.83,0,0,0,1.57.82c2,.39,4.07.72,6.12,1,2.65.35,5.31.58,8,1C26.71,7,29.84,7.54,33,8c2.82.41,5.64.74,8.45,1.12C42.54,9.28,44,8.34,44,7.26Zm-8.53,51.6c.32-.13.81-.35,1.31-.52s1.25-.52,1-1.15a2.15,2.15,0,0,0-1.27-1.27c-2.07-.49-4.17-.84-6.27-1.17s-4.41-.62-6.61-.92L17.5,53l-6.73-.87c-2.65-.35-5.29-.71-7.95-1a1.1,1.1,0,0,0-.83.27,1.61,1.61,0,0,0,.84,2.7c2.06.41,4.13.76,6.2,1.07s4.24.5,6.35.79c2.65.37,5.29.79,7.93,1.19,2.3.35,4.59.71,6.89,1.05C31.87,58.41,33.55,58.61,35.44,58.86Z"></path> <path class="cls-1" d="M32,51.82c-3.55-.21-7.11-.33-10.64-.65-2.62-.24-5.22-.71-7.82-1.14-1.84-.31-3.67-.71-5.5-1.1a6,6,0,0,1-1.89-.62,1.35,1.35,0,0,1-.54-1.17,10.1,10.1,0,0,1,2.91-4.52,2.12,2.12,0,0,1,2-.44c1.13.28,2.33.26,3.47.48,1.37.27,2.71.72,4.08,1,1.74.32,3.5.59,5.27.76,2.2.21,4.42.23,6.61.48,1.79.2,2.79,1.58,3.57,3a14.82,14.82,0,0,1,.74,2.45c.29.84-.31,1-.85,1.2a5.51,5.51,0,0,1-1.41.05ZM7,47.23a114.81,114.81,0,0,0,25.83,2.85c-.28-.66-.41-1.08-.62-1.46a4.86,4.86,0,0,0-3.84-2.79c-1.89-.15-3.81.09-5.71,0A42,42,0,0,1,17.62,45c-2.51-.5-4.87-1.8-7.54-1.44-.3,0-.71.1-.85.3C8.5,44.85,7.85,45.93,7,47.23Z"></path> <path class="cls-1" d="M15,15.84c3,.15,5.89.25,8.83.45,2.12.15,4.25.36,6.35.7a14.24,14.24,0,0,1,3,1c.81.32,1.66.92,1.51,1.78a2.83,2.83,0,0,1-1.45,1.73c-2.13,1.06-4.34,1.95-6.53,2.9-.72.31-1.46.6-2.2.9-1.73.72-3.05-.31-4.27-1.2-2.59-1.89-5.06-3.95-7.58-5.93a3.16,3.16,0,0,1-.53-.42c-.22-.28-.64-.76-.56-.88a1.78,1.78,0,0,1,1-.76A17,17,0,0,1,15,15.92Zm-1,1.68-.08.22c.19.16.36.34.56.49,2,1.46,4,2.93,6,4.36,1.59,1.13,3.09,2,5.21.71A39.2,39.2,0,0,1,32,20.75c.53-.21,1.1-.33,1.83-.54a7.93,7.93,0,0,0-1.05-.84,19.77,19.77,0,0,0-7.62-1.59c-2.11-.15-4.23-.27-6.34-.33C17.24,17.41,15.66,17.49,14.07,17.52Z"></path> <path class="cls-1" d="M24.33,39.18a9.92,9.92,0,0,1-1.63,2.15,2,2,0,0,1-2.48-.17c-1-.86-.77-2-.46-3a21.69,21.69,0,0,1,1.28-3c.09-.2.35-.32.53-.48.13.19.25.38.4.56A11.71,11.71,0,0,1,23,36.51C23.49,37.32,23.85,38.19,24.33,39.18Zm-2.79-2.51a18,18,0,0,0-.69,2.4c-.06.45-.24,1.18.61,1.28s1.19-.34,1.29-1.08C22.88,38.24,22.33,37.54,21.54,36.67Z"></path> </g> </g> </svg> 