<?xml version="1.0" encoding="UTF-8"?> <svg xmlns="http://www.w3.org/2000/svg" viewBox="0 0 383.97 288.19"> <defs> <style>.cls-1{fill:gray;}</style> </defs> <title>uslug</title> <g id="Слой_2" data-name="Слой 2"> <g id="Слой_1-2" data-name="Слой 1"> <path class="cls-1" d="M0,19.52c.37-.89.79-1.76,1.1-2.67A24,24,0,0,1,24,0C31.57,0,39.19,0,46.81,0H358.34c13,0,22.57,7.3,25.1,19.16A24,24,0,0,1,361.34,48c-1.62.09-3.24.05-4.87.05-108.71,0-217.43-.14-326.14.17C15.24,48.23,4.69,43.45,0,28.52Z"></path> <path class="cls-1" d="M0,139.52c.46-1.12,1-2.23,1.37-3.37a23.76,23.76,0,0,1,22.2-16.09c8.25-.12,16.5,0,24.74,0q155,0,310,0c13,0,22.57,7.3,25.1,19.16A24,24,0,0,1,361.34,168c-1.62.09-3.25.05-4.87.05-108.72,0-217.43-.14-326.14.17-15.09,0-25.64-4.74-30.33-19.67Z"></path> <path class="cls-1" d="M0,259.52c.46-1.12,1-2.23,1.37-3.37a23.76,23.76,0,0,1,22.2-16.09c8.25-.12,16.5,0,24.74,0h310c13,0,22.57,7.3,25.1,19.16A24,24,0,0,1,361.34,288c-1.62.09-3.25,0-4.87,0-108.72,0-217.43-.14-326.14.17-15.09,0-25.64-4.74-30.33-19.67Z"></path> </g> </g> </svg> 