<?xml version="1.0" encoding="UTF-8"?> <svg xmlns="http://www.w3.org/2000/svg" xmlns:xlink="http://www.w3.org/1999/xlink" viewBox="0 0 82.35 82"> <defs> <style>.cls-1{fill:url(#Безымянный_градиент_84);}.cls-2{fill:#fcfdfc;}.cls-3{fill:#2ca51d;}</style> <linearGradient id="Безымянный_градиент_84" x1="16.19" y1="84.16" x2="66.17" y2="-2.41" gradientUnits="userSpaceOnUse"> <stop offset="0" stop-color="#2ca51d"></stop> <stop offset="1" stop-color="#54a51d"></stop> </linearGradient> </defs> <title>whatsapp</title> <g id="Слой_2" data-name="Слой 2"> <g id="Слой_1-2" data-name="Слой 1"> <path class="cls-1" d="M14.3,0H67.93a3,3,0,0,1,.79.05c.75.21,1.51.39,2.25.65a16.53,16.53,0,0,1,6,3.72,16.49,16.49,0,0,1,4.68,7.77,18,18,0,0,1,.64,4.43c0,1.37,0,2.74,0,4.11V42.58q0,5,0,10c0,3.23,0,6.45,0,9.68a34.78,34.78,0,0,1-.18,5.2,18.29,18.29,0,0,1-.94,3.65,17,17,0,0,1-2.82,4.82,16.38,16.38,0,0,1-2.83,2.69,16.79,16.79,0,0,1-4.72,2.53,16.48,16.48,0,0,1-4.77.88H15.94a5.45,5.45,0,0,1-1.06-.11,13.9,13.9,0,0,1-2.85-.6,16.36,16.36,0,0,1-4.09-1.9A16.87,16.87,0,0,1,2.72,74.2,16.09,16.09,0,0,1,.46,68.86,15.31,15.31,0,0,1,0,65.58c0-5,0-10.09,0-15.14q0-10,0-19.92c0-4.49,0-9,0-13.46A17.33,17.33,0,0,1,1.51,9.75,17,17,0,0,1,7.59,2.59a16.45,16.45,0,0,1,4.15-2A8.28,8.28,0,0,1,14.3,0Zm8.59,49.52.42-.1c.62-.2,1.23-.43,1.86-.61,1.85-.54,3.66-1.23,5.53-1.72.59-.15,1.16-.41,1.75-.6a.64.64,0,0,1,.54,0,17.58,17.58,0,0,0,6.81,2,18,18,0,0,0,19.65-17.3A17.63,17.63,0,0,0,59,26.63a17.43,17.43,0,0,0-2.62-6A18,18,0,0,0,42.3,12.67,18.14,18.14,0,0,0,36,13.5a17.84,17.84,0,0,0-4.78,2.34,18.08,18.08,0,0,0-5.75,6.5,17.53,17.53,0,0,0-1.92,6.3,18,18,0,0,0,.11,4.8,17.75,17.75,0,0,0,2.12,6.05,1.1,1.1,0,0,1,.07,1l-1.32,3.87c-.49,1.45-1,2.9-1.46,4.36A1.61,1.61,0,0,0,22.89,49.52ZM61.48,65.58l.23.18a3.06,3.06,0,0,0,4.44-.54,5,5,0,0,0,0-5.44,3.14,3.14,0,0,0-4.51-.52c-.08.08-.16.17-.28.11s-.1-.16-.09-.25c0-.33-.11-.41-.41-.39s-.74,0-1.11,0-.47,0-.47.46v6.39a2.17,2.17,0,0,1,0,.36c0,.09,0,.19-.15.21s-.19-.07-.23-.17-.17-.47-.26-.71c-.6-1.62-1.22-3.24-1.82-4.86-.53-1.41-1.06-2.82-1.58-4.24a.45.45,0,0,0-.49-.32c-.55,0-1.09,0-1.64,0a.43.43,0,0,0-.48.33c-.18.49-.37,1-.55,1.46q-1.44,3.8-2.87,7.59a2.92,2.92,0,0,0-.31,1.06h2.08c.16,0,.2-.13.25-.26.19-.56.41-1.11.59-1.68a.47.47,0,0,1,.55-.37c1,0,2.07,0,3.11,0a.44.44,0,0,1,.48.36c.18.57.37,1.13.56,1.69,0,.13.11.27.25.27.69,0,1.38,0,2.07,0,.42,0,.46-.07.46.36,0,.65,0,1.29,0,1.93,0,.29.1.38.37.37.45,0,.9,0,1.36,0,.28,0,.39-.07.38-.38,0-.84,0-1.69,0-2.53C61.35,65.87,61.31,65.72,61.48,65.58Zm-44.75.71h.83a.33.33,0,0,0,.38-.28c.2-.78.43-1.55.64-2.33.37-1.38.73-2.76,1.1-4.13.3-1.12.62-2.25.92-3.37.06-.21,0-.34-.26-.33H19c-.53,0-.54,0-.67.52-.46,2-.93,3.93-1.39,5.89,0,.13,0,.3-.2.3s-.15-.16-.18-.27c-.5-2-1-4.08-1.51-6.12-.06-.23-.17-.33-.39-.32H13.07a.35.35,0,0,0-.4.31c-.5,2-1,4.08-1.56,6.1,0,.1,0,.23-.16.23s-.16-.12-.19-.23l-.36-1.56c-.35-1.53-.7-3.06-1-4.59A.3.3,0,0,0,9,55.86H7.72c-.7,0-.7,0-.56.66,0,.11,0,.21.07.32Q8,59.6,8.71,62.38c.31,1.18.63,2.36.94,3.54.07.27.19.4.49.38.53,0,1.07,0,1.6,0a.34.34,0,0,0,.4-.3q.73-3,1.49-6.06c0-.11,0-.26.17-.27s.17.14.2.24c.46,1.86.93,3.71,1.38,5.57.2.81.19.82,1,.82Zm52.9-6.85a.25.25,0,0,1-.13-.28c0-.33-.13-.44-.45-.42a8.67,8.67,0,0,1-1.14,0c-.32,0-.41.11-.41.41,0,.81,0,1.62,0,2.43,0,2.32,0,4.63,0,6.95,0,.32.09.42.41.4s.88,0,1.32,0c.26,0,.35-.07.35-.34,0-.87,0-1.74,0-2.61,0-.13,0-.28.09-.4a.43.43,0,0,1,.27.15,3.06,3.06,0,0,0,4.73-.91,5.12,5.12,0,0,0,.19-4.11,3.14,3.14,0,0,0-5-1.38A.74.74,0,0,1,69.63,59.44Zm-46.36.21a.82.82,0,0,1-.07-.44c0-1,0-1.92,0-2.89,0-.33-.09-.48-.44-.45s-.79,0-1.18,0-.45,0-.45.47v6.39c0,1,0,2.09,0,3.14,0,.33.1.44.43.42s.81,0,1.22,0,.43-.1.43-.42c0-1.22,0-2.43,0-3.64a3.94,3.94,0,0,1,.16-1.09,1.53,1.53,0,0,1,2.3-.7,1.14,1.14,0,0,1,.27.37,2.64,2.64,0,0,1,.18,1.08c0,1.3,0,2.59,0,3.89,0,.51,0,.51.52.51h1.07c.48,0,.49,0,.5-.48V63.24a19.42,19.42,0,0,0-.09-2.64,2.1,2.1,0,0,0-1-1.67,3,3,0,0,0-2.68-.16A3.72,3.72,0,0,0,23.27,59.65Zm13.11,6.64a9.56,9.56,0,0,1-.21-2.09c0-1.15,0-2.31,0-3.46a1.77,1.77,0,0,0-1.35-1.9,5.6,5.6,0,0,0-3.95.06,2.3,2.3,0,0,0-1.51,1.77c-.07.27,0,.42.32.4s.91,0,1.36,0c.24,0,.37-.06.42-.31a.93.93,0,0,1,.6-.7,2.34,2.34,0,0,1,1.48,0,.87.87,0,0,1,.56.83.68.68,0,0,1-.52.72,2.61,2.61,0,0,1-.61.16,19.62,19.62,0,0,0-2.15.34,2,2,0,0,0-1.72,1.83,2.08,2.08,0,0,0,1.75,2.45,3.86,3.86,0,0,0,3-.51c.23-.15.4-.15.44.18a.25.25,0,0,0,.26.24Zm5.44-2.46A2.31,2.31,0,0,0,43.16,66a5.28,5.28,0,0,0,3.83.23,2.46,2.46,0,0,0,1.45-1,2.09,2.09,0,0,0-.69-3,10.38,10.38,0,0,0-2-.6,3.28,3.28,0,0,1-1.39-.5.59.59,0,0,1,.1-1,2.06,2.06,0,0,1,1.7,0,.71.71,0,0,1,.43.53c0,.23.18.29.39.29.42,0,.85,0,1.28,0s.4-.13.33-.41A2.3,2.3,0,0,0,47.45,59a4.83,4.83,0,0,0-3.06-.43,3.3,3.3,0,0,0-1.62.6A2,2,0,0,0,43,62.55a6.23,6.23,0,0,0,1.22.4,13.44,13.44,0,0,1,1.86.5c.29.12.56.28.6.63a.8.8,0,0,1-.48.81,2.08,2.08,0,0,1-2.06-.19,1,1,0,0,1-.37-.63c0-.12,0-.24-.19-.24ZM38,62.72c0,.65-.06,1.46,0,2.26a1.4,1.4,0,0,0,1,1.21,4.45,4.45,0,0,0,1.62.16c1.13,0,.91,0,.93-.92,0-.71,0-.71-.7-.72s-.81-.15-.81-.83c0-1.07,0-2.14,0-3.21,0-.52,0-.52.52-.52,1,0,1,0,1-1.06V59c0-.2-.09-.29-.28-.29s-.55,0-.83,0-.43-.09-.41-.41c0-.51,0-1,0-1.54,0-.22-.09-.32-.32-.31q-.75,0-1.5,0c-.21,0-.29.08-.29.3,0,.41,0,.81,0,1.21,0,.74,0,.74-.74.75-.52,0-.52,0-.52.53,0,.85,0,.86.83.87.32,0,.44.14.43.46C38,61.25,38,61.9,38,62.72Z"></path> <path class="cls-2" d="M22.89,49.52a1.61,1.61,0,0,1,.19-.82c.48-1.46,1-2.91,1.46-4.36l1.32-3.87a1.1,1.1,0,0,0-.07-1,17.75,17.75,0,0,1-2.12-6.05,18,18,0,0,1-.11-4.8,17.53,17.53,0,0,1,1.92-6.3,18.08,18.08,0,0,1,5.75-6.5A17.84,17.84,0,0,1,36,13.5a18.14,18.14,0,0,1,6.29-.83,18,18,0,0,1,14.08,7.92,17.43,17.43,0,0,1,2.62,6,17.63,17.63,0,0,1,.45,4.63A18,18,0,0,1,39.8,48.56a17.58,17.58,0,0,1-6.81-2,.64.64,0,0,0-.54,0c-.59.19-1.16.45-1.75.6-1.87.49-3.68,1.18-5.53,1.72-.63.18-1.24.41-1.86.61ZM27.41,45c.1.08.16.09.21.07l2.28-.73,2.91-.93a.6.6,0,0,1,.58,0A15.11,15.11,0,0,0,54,39.1,14.89,14.89,0,0,0,56.12,27,15,15,0,0,0,54.3,22.7a15.31,15.31,0,0,0-3.79-4.15,15.11,15.11,0,0,0-21.34,3.3,14.73,14.73,0,0,0-2.63,6.32,15,15,0,0,0,.29,6.33A14.67,14.67,0,0,0,29,39.23a.6.6,0,0,1,.1.56c-.42,1.24-.85,2.47-1.26,3.71A10.57,10.57,0,0,0,27.41,45Z"></path> <path class="cls-2" d="M61.48,65.58c-.17.14-.13.29-.13.43,0,.84,0,1.69,0,2.53,0,.31-.1.39-.38.38-.46,0-.91,0-1.36,0-.27,0-.38-.08-.37-.37,0-.64,0-1.28,0-1.93,0-.43,0-.4-.46-.36-.69,0-1.38,0-2.07,0-.14,0-.21-.14-.25-.27-.19-.56-.38-1.12-.56-1.69a.44.44,0,0,0-.48-.36c-1,0-2.08,0-3.11,0a.47.47,0,0,0-.55.37c-.18.57-.4,1.12-.59,1.68-.05.13-.09.26-.25.26H48.84a2.92,2.92,0,0,1,.31-1.06q1.43-3.8,2.87-7.59c.18-.49.37-1,.55-1.46a.43.43,0,0,1,.48-.33c.55,0,1.09,0,1.64,0a.45.45,0,0,1,.49.32c.52,1.42,1,2.83,1.58,4.24.6,1.62,1.22,3.24,1.82,4.86.09.24.17.48.26.71s.1.19.23.17.14-.12.15-.21a2.17,2.17,0,0,0,0-.36V59.19c0-.43,0-.45.47-.46s.74,0,1.11,0,.45.06.41.39c0,.09,0,.21.09.25s.2,0,.28-.11a3.14,3.14,0,0,1,4.51.52,5,5,0,0,1,0,5.44,3.06,3.06,0,0,1-4.44.54Zm3.36-3.13a3.65,3.65,0,0,0-.22-1.24,1.65,1.65,0,0,0-1.56-1.09,1.56,1.56,0,0,0-1.55,1,3.93,3.93,0,0,0-.11,2.42,1.64,1.64,0,0,0,1.46,1.32A1.61,1.61,0,0,0,64.55,64,3.33,3.33,0,0,0,64.84,62.45Zm-12.32-.28a.58.58,0,0,0,.4.09h1.82c.36,0,.42-.07.3-.42-.33-1-.67-1.93-1-2.9a.23.23,0,0,0-.3-.19Z"></path> <path class="cls-2" d="M16.73,66.3h-.32c-.84,0-.83,0-1-.82-.45-1.86-.92-3.71-1.38-5.57,0-.1,0-.26-.2-.24s-.14.16-.17.27q-.75,3-1.49,6.06a.34.34,0,0,1-.4.3c-.53,0-1.07,0-1.6,0-.3,0-.42-.11-.49-.38-.31-1.18-.63-2.36-.94-3.54Q8,59.61,7.23,56.84c0-.11-.05-.21-.07-.32-.14-.66-.14-.66.56-.66H9a.3.3,0,0,1,.36.26c.34,1.53.69,3.06,1,4.59l.36,1.56c0,.11.05.23.19.23s.13-.13.16-.23c.55-2,1.06-4.06,1.56-6.1a.35.35,0,0,1,.4-.31h1.54c.22,0,.33.09.39.32.5,2,1,4.08,1.51,6.12,0,.11,0,.27.18.27s.17-.17.2-.3c.46-2,.93-3.93,1.39-5.89.13-.51.14-.52.67-.52h1.39c.26,0,.32.12.26.33-.3,1.12-.62,2.25-.92,3.37-.37,1.37-.73,2.75-1.1,4.13-.21.78-.44,1.55-.64,2.33a.33.33,0,0,1-.38.28Z"></path> <path class="cls-2" d="M69.63,59.44a.74.74,0,0,0,.17-.12,3.14,3.14,0,0,1,5,1.38,5.12,5.12,0,0,1-.19,4.11,3.06,3.06,0,0,1-4.73.91.43.43,0,0,0-.27-.15c-.14.12-.09.27-.09.4,0,.87,0,1.74,0,2.61,0,.27-.09.35-.35.34-.44,0-.89,0-1.32,0s-.41-.08-.41-.4c0-2.32,0-4.63,0-6.95,0-.81,0-1.62,0-2.43,0-.3.09-.43.41-.41a8.67,8.67,0,0,0,1.14,0c.32,0,.48.09.45.42A.25.25,0,0,0,69.63,59.44Zm-.12,3.05c0,.26,0,.53.06.79a2.79,2.79,0,0,0,.14.47,1.6,1.6,0,0,0,1.5,1.17,1.52,1.52,0,0,0,1.58-.87,3.47,3.47,0,0,0,0-3,1.66,1.66,0,0,0-3,0A3.14,3.14,0,0,0,69.51,62.49Z"></path> <path class="cls-2" d="M23.27,59.65a3.72,3.72,0,0,1,1.15-.88,3,3,0,0,1,2.68.16,2.1,2.1,0,0,1,1,1.67,19.42,19.42,0,0,1,.09,2.64v2.57c0,.46,0,.48-.5.48H26.64c-.52,0-.52,0-.52-.51,0-1.3,0-2.59,0-3.89a2.64,2.64,0,0,0-.18-1.08,1.14,1.14,0,0,0-.27-.37,1.53,1.53,0,0,0-2.3.7,3.94,3.94,0,0,0-.16,1.09c0,1.21,0,2.42,0,3.64,0,.32-.1.44-.43.42s-.81,0-1.22,0-.44-.09-.43-.42c0-1.05,0-2.1,0-3.14V56.34c0-.46,0-.47.45-.47s.79,0,1.18,0,.44.12.44.45c0,1,0,1.93,0,2.89A.82.82,0,0,0,23.27,59.65Z"></path> <path class="cls-2" d="M36.38,66.29H34.53a.25.25,0,0,1-.26-.24c0-.33-.21-.33-.44-.18a3.86,3.86,0,0,1-3,.51,2.08,2.08,0,0,1-1.75-2.45,2,2,0,0,1,1.72-1.83A19.62,19.62,0,0,1,33,61.76a2.61,2.61,0,0,0,.61-.16.68.68,0,0,0,.52-.72.87.87,0,0,0-.56-.83,2.34,2.34,0,0,0-1.48,0,.93.93,0,0,0-.6.7c-.05.25-.18.32-.42.31-.45,0-.91,0-1.36,0s-.39-.13-.32-.4a2.3,2.3,0,0,1,1.51-1.77,5.6,5.6,0,0,1,3.95-.06,1.77,1.77,0,0,1,1.35,1.9c0,1.15,0,2.31,0,3.46A9.56,9.56,0,0,0,36.38,66.29ZM34,62.69a19.44,19.44,0,0,1-2.06.44,1,1,0,0,0-.78.83c0,.41,0,.79.43,1a2,2,0,0,0,1.72,0A1.86,1.86,0,0,0,34,62.69Z"></path> <path class="cls-2" d="M41.82,63.83h1.79c.16,0,.18.12.19.24a1,1,0,0,0,.37.63,2.08,2.08,0,0,0,2.06.19.8.8,0,0,0,.48-.81c0-.35-.31-.51-.6-.63a13.44,13.44,0,0,0-1.86-.5,6.23,6.23,0,0,1-1.22-.4,2,2,0,0,1-.26-3.35,3.3,3.3,0,0,1,1.62-.6,4.83,4.83,0,0,1,3.06.43,2.3,2.3,0,0,1,1.1,1.51c.07.28,0,.43-.33.41s-.86,0-1.28,0c-.21,0-.35-.06-.39-.29a.71.71,0,0,0-.43-.53,2.06,2.06,0,0,0-1.7,0,.59.59,0,0,0-.1,1,3.28,3.28,0,0,0,1.39.5,10.38,10.38,0,0,1,2,.6,2.09,2.09,0,0,1,.69,3,2.46,2.46,0,0,1-1.45,1A5.28,5.28,0,0,1,43.16,66,2.31,2.31,0,0,1,41.82,63.83Z"></path> <path class="cls-2" d="M38,62.72c0-.82,0-1.47,0-2.12,0-.32-.11-.45-.43-.46-.84,0-.84,0-.83-.87,0-.53,0-.53.52-.53.74,0,.74,0,.74-.75,0-.4,0-.8,0-1.21,0-.22.08-.3.29-.3q.75,0,1.5,0c.23,0,.32.09.32.31,0,.52,0,1,0,1.54,0,.32.11.43.41.41s.55,0,.83,0,.28.09.28.29v.07c0,1,0,1-1,1.06-.51,0-.51,0-.52.52,0,1.07,0,2.14,0,3.21,0,.68.14.82.81.83s.71,0,.7.72c0,.94.2.9-.93.92A4.45,4.45,0,0,1,39,66.19,1.4,1.4,0,0,1,38,65C37.9,64.18,38,63.37,38,62.72Z"></path> <path class="cls-3" d="M27.41,45a10.57,10.57,0,0,1,.45-1.45c.41-1.24.84-2.47,1.26-3.71a.6.6,0,0,0-.1-.56,14.67,14.67,0,0,1-2.19-4.73,15,15,0,0,1-.29-6.33,14.73,14.73,0,0,1,2.63-6.32,15.1,15.1,0,0,1,21.34-3.3A15.31,15.31,0,0,1,54.3,22.7,15,15,0,0,1,56.12,27,14.89,14.89,0,0,1,54,39.1a15.11,15.11,0,0,1-20.58,4.31.6.6,0,0,0-.58,0l-2.91.93L27.62,45C27.57,45,27.51,45,27.41,45Zm19-5.85a3.74,3.74,0,0,0,1.73-.36,3.5,3.5,0,0,0,2.47-3.55.68.68,0,0,0-.42-.68C49.09,34,48,33.4,46.86,32.92a.94.94,0,0,0-1.38.38c-.32.43-.64.88-1,1.3a.88.88,0,0,1-1.14.29,11.73,11.73,0,0,1-5.87-5c-.35-.57-.32-.73.1-1.24a10,10,0,0,0,1-1.17.91.91,0,0,0,.08-.86c-.48-1.19-1-2.38-1.49-3.57a.75.75,0,0,0-.48-.5,2.59,2.59,0,0,0-2.56.55A5.2,5.2,0,0,0,33.17,29,14.67,14.67,0,0,0,35,31.9a19.83,19.83,0,0,0,5,4.87,16.49,16.49,0,0,0,3.86,1.78A7.81,7.81,0,0,0,46.42,39.1Z"></path> <path class="cls-3" d="M64.84,62.45A3.33,3.33,0,0,1,64.55,64a1.61,1.61,0,0,1-1.69.87,1.64,1.64,0,0,1-1.46-1.32,3.93,3.93,0,0,1,.11-2.42,1.56,1.56,0,0,1,1.55-1,1.65,1.65,0,0,1,1.56,1.09A3.65,3.65,0,0,1,64.84,62.45Z"></path> <path class="cls-3" d="M52.52,62.17l1.22-3.42a.23.23,0,0,1,.3.19c.33,1,.67,1.93,1,2.9.12.35.06.42-.3.42H52.92A.58.58,0,0,1,52.52,62.17Z"></path> <path class="cls-3" d="M69.51,62.49A3.14,3.14,0,0,1,69.8,61a1.66,1.66,0,0,1,3,0,3.47,3.47,0,0,1,0,3,1.52,1.52,0,0,1-1.58.87,1.6,1.6,0,0,1-1.5-1.17,2.79,2.79,0,0,1-.14-.47C69.53,63,69.53,62.75,69.51,62.49Z"></path> <path class="cls-3" d="M34,62.69a1.86,1.86,0,0,1-.69,2.2,2,2,0,0,1-1.72,0c-.41-.18-.47-.56-.43-1a1,1,0,0,1,.78-.83A19.44,19.44,0,0,0,34,62.69Z"></path> <path class="cls-2" d="M46.42,39.1a7.81,7.81,0,0,1-2.64-.55,16.49,16.49,0,0,1-3.86-1.78,19.83,19.83,0,0,1-5-4.87A14.67,14.67,0,0,1,33.17,29a5.2,5.2,0,0,1,.95-5.88,2.59,2.59,0,0,1,2.56-.55.75.75,0,0,1,.48.5c.5,1.19,1,2.38,1.49,3.57a.91.91,0,0,1-.08.86,10,10,0,0,1-1,1.17c-.42.51-.45.67-.1,1.24a11.73,11.73,0,0,0,5.87,5,.88.88,0,0,0,1.14-.29c.35-.42.67-.87,1-1.3a.94.94,0,0,1,1.38-.38c1.14.48,2.23,1,3.34,1.59a.68.68,0,0,1,.42.68,3.5,3.5,0,0,1-2.47,3.55A3.74,3.74,0,0,1,46.42,39.1Z"></path> </g> </g> </svg> 